<?xml version="1.0" standalone="no"?>
<!DOCTYPE svg PUBLIC "-//W3C//DTD SVG 1.1//EN" "http://www.w3.org/Graphics/SVG/1.1/DTD/svg11.dtd" >
<svg>
<metadata>
Created by FontForge 20090914 at Mon Jul  4 14:26:56 2022
 By www-data
vernon adams
</metadata>
<defs>
<font id="Trocchi" horiz-adv-x="1189" >
  <font-face 
    font-family="Trocchi"
    font-weight="400"
    font-stretch="normal"
    units-per-em="2048"
    panose-1="0 0 0 0 0 0 0 0 0 0"
    ascent="1638"
    descent="-410"
    x-height="1073"
    cap-height="1505"
    bbox="-315.001 -576.001 2869 2085"
    underline-thickness="102"
    underline-position="-102"
    unicode-range="U+0020-U+FB02"
  />
<missing-glyph horiz-adv-x="61" 
 />
    <glyph glyph-name="onequarter" unicode="&#x31;&#x2f;&#x34;" horiz-adv-x="1526" 
d="M1218 1479l100 -60l-1065 -1480l-100 59zM69 750v86h133v575l-133 -35v107l279 78v-725h125v-86h-404zM1458 86v-86h-402v86h146v182h-349v92l316 445h158v-453h131v-84h-131v-182h131zM1202 352v344l-236 -344h236z" />
    <glyph glyph-name="onehalf" unicode="&#x31;&#x2f;&#x32;" horiz-adv-x="1668" 
d="M1219 1479l100 -60l-1065 -1480l-100 59zM70 750v86h133v575l-133 -35v107l279 78v-725h125v-86h-404zM957 90c14 10.667 44.4971 31.502 91.4971 62.502s89 60 126 87s76.333 58.667 118 95s74.334 73.666 98.001 111.999s35.5 75.166 35.5 110.499
c0 50 -17.167 93.833 -51.5 131.5s-74.5 56.5 -120.5 56.5c-65.333 0 -118.666 -23.667 -159.999 -71c18.667 -6 35.334 -16.833 50.001 -32.5s22 -35.5 22 -59.5c0 -34 -10.667 -61 -32 -81s-49 -30 -83 -30c-40 0 -70.167 12 -90.5 36s-31.166 52.333 -32.499 85v4
c0 62 34.667 116.667 104 164s152 71 248 71c92 0 164.833 -25.167 218.5 -75.5s80.5 -120.5 80.5 -210.5c0 -38 -15.833 -80.833 -47.5 -128.5s-81.834 -96.5 -150.501 -146.5l-201 -147h395l27 -225l-51 -9l-70 111h-510c-8 60 -12.667 90 -14 90z" />
    <glyph glyph-name="threequarters" unicode="&#x33;&#x2f;&#x34;" horiz-adv-x="1576" 
d="M1015 352h236v344zM1507 0h-402v86h146v182h-349v92l316 445h158v-453h131v-84h-131v-182h131v-86zM298 729c-60 0 -110.829 11.332 -152.496 33.999s-62.5 53.667 -62.5 93c0 26 7.16699 47.167 21.5 63.5s35.833 24.5 64.5 24.5c25.333 0 46 -7.66699 62 -23
s24 -33.666 24 -54.999c0 -23.333 -5.33301 -42.333 -16 -57c23.333 -4 43.666 -6 60.999 -6c64 0 115.167 18.667 153.5 56s57.5 82.666 57.5 135.999c0 101.333 -53 152 -159 152c-18.667 0 -39.334 -2 -62.001 -6l-14 76c65.333 10 114.666 29 147.999 57
s50 63.333 50 106c0 40.667 -14.333 73.5 -43 98.5s-64 37.5 -106 37.5c-52.667 0 -101 -20 -145 -60c22 -4 41 -12.667 57 -26s24 -33.333 24 -60c0 -25.333 -9.33301 -46.666 -28 -63.999s-41.334 -26 -68.001 -26c-32 0 -56.333 10.333 -73 31s-25 45 -25 73
c0 50 26.667 95.667 80 137s117.333 62 192 62c82.667 0 145.667 -19.167 189 -57.5s65 -83.833 65 -136.5c0 -43.333 -16.5 -81.833 -49.5 -115.5s-78.5 -56.167 -136.5 -67.5c82 0 144.5 -20 187.5 -60s64.5 -90.333 64.5 -151c0 -76 -33.333 -139.333 -100 -190
s-153.667 -76 -261 -76zM202.004 -2.00098l1065 1481l100 -60l-1065 -1480z" />
    <glyph glyph-name="ellipsis" unicode="&#x2e;&#x2e;&#x2e;" horiz-adv-x="1505" 
d="M167 127c0 41.333 14.333 76.5 43 105.5s63.334 43.5 104.001 43.5c40 0 75 -14.667 105 -44s45 -64.333 45 -105c0 -40 -15 -74.5 -45 -103.5s-65 -43.5 -105 -43.5c-40.667 0 -75.334 14.5 -104.001 43.5s-43 63.5 -43 103.5zM625 127c0 41.333 14.333 76.5 43 105.5
s63.334 43.5 104.001 43.5c40 0 75 -14.667 105 -44s45 -64.333 45 -105c0 -40 -15 -74.5 -45 -103.5s-65 -43.5 -105 -43.5c-40.667 0 -75.334 14.5 -104.001 43.5s-43 63.5 -43 103.5zM1083 127c0 41.333 14.333 76.5 43 105.5s63.334 43.5 104.001 43.5
c40 0 75 -14.667 105 -44s45 -64.333 45 -105c0 -40 -15 -74.5 -45 -103.5s-65 -43.5 -105 -43.5c-40.667 0 -75.334 14.5 -104.001 43.5s-43 63.5 -43 103.5z" />
    <glyph glyph-name="uniFB01" unicode="fi" horiz-adv-x="1310" 
d="M651 0l-577 -0.00390625v117h194v844h-194v112h194c0 169.333 40 296.666 120 381.999s197.667 128 353 128c62.667 0 118.667 -7.66699 168 -23s88.5 -35.666 117.5 -60.999s50.833 -52.666 65.5 -81.999s22 -59.333 22 -90c0 -52.667 -14.167 -93.834 -42.5 -123.501
s-63.833 -44.5 -106.5 -44.5c-36 0 -67.667 12.833 -95 38.5s-41 57.834 -41 96.501c0 35.333 13.833 64.333 41.5 87s56.834 34 87.501 34c-0.666992 24 -22.334 44 -65.001 60s-83 24 -121 24c-24.667 0 -50 -2.83301 -76 -8.5s-52.167 -15.167 -78.5 -28.5
s-49.833 -29.666 -70.5 -48.999s-37.5 -43.666 -50.5 -72.999s-19.5 -61.666 -19.5 -96.999v-170h643v-956h176v-117h-546v117h155v844h-422v-844h168v-117z" />
    <glyph glyph-name="uniFB02" unicode="fl" horiz-adv-x="1421" 
d="M649 117l-0.000976562 -116.998h-575v117h194v844h-194v112h194c0 340 139.333 510 418 510c77.333 0 152.5 -7.66699 225.5 -23s133.5 -36.833 181.5 -64.5s72 -57.834 72 -90.501v-1288h215v-117h-604v117h174v1286c-5.33301 21.333 -22.166 38.833 -50.499 52.5
s-57.666 22.667 -87.999 27s-61.833 6.5 -94.5 6.5c-66.667 0 -123.334 -19.833 -170.001 -59.5s-70 -101.834 -70 -186.501v-170h332v-112h-326v-844h166z" />
    <glyph glyph-name="f_f.liga" unicode="ff" horiz-adv-x="1406" 
d="M614 0l-523.999 -0.000976562v117h178v844h-194v112h194c0 171.333 32.833 299.166 98.5 383.499s168.167 126.5 307.5 126.5c69.333 0 130.666 -12.167 183.999 -36.5s93.666 -55.166 120.999 -92.499c38.667 41.333 82 73.166 130 95.499s94 33.5 138 33.5
c62.667 0 116.667 -7.66699 162 -23s80 -36.166 104 -62.499s41.333 -53.666 52 -81.999s16 -58.5 16 -90.5c0 -52 -15.167 -92.667 -45.5 -122s-67.166 -44 -110.499 -44c-36 0 -66.5 12.667 -91.5 38s-37.5 57.666 -37.5 96.999c0 35.333 13 64.333 39 87s54 34 84 34
c-0.666992 24.667 -15.667 44.834 -45 60.501s-61.333 23.5 -96 23.5c-62.667 0 -113.167 -20.833 -151.5 -62.5s-57.5 -106.167 -57.5 -193.5v-170h254v-112h-248v-844h193v-117h-559v117h151v844h-377v-844h131v-117zM477.001 1073l383 0.000976562v133
c-33.333 9.33301 -58.333 25.166 -75 47.499s-25 47.5 -25 75.5c0 54 23 99 69 135c-9.33301 8.66699 -28 16.667 -56 24s-59.667 11 -95 11c-62 0 -111 -20.667 -147 -62s-54 -106 -54 -194v-170z" />
    <glyph glyph-name="f_f_i.liga" unicode="ffi" horiz-adv-x="1933" 
d="M629 0l-545.001 -0.00292969v117h184v844h-194v112h194c0 167.333 38.833 294.166 116.5 380.499s187.834 129.5 330.501 129.5c69.333 0 131 -12.167 185 -36.5s94.667 -55.166 122 -92.499c80 86 194 129 342 129c62.667 0 118.667 -7.66699 168 -23
s88.5 -35.666 117.5 -60.999s50.833 -52.666 65.5 -81.999s22 -59.333 22 -90c0 -52.667 -14.333 -93.834 -43 -123.501s-64.334 -44.5 -107.001 -44.5c-36 0 -67.5 12.833 -94.5 38.5s-40.5 57.834 -40.5 96.501c0 35.333 13.833 64.333 41.5 87s56.834 34 87.501 34
c-0.666992 24 -22.334 44 -65.001 60s-83 24 -121 24c-31.333 0 -62.666 -4.83301 -93.999 -14.5s-61.5 -24.167 -90.5 -43.5s-52.667 -46.166 -71 -80.499s-27.5 -73.5 -27.5 -117.5v-170h631v-956h176v-117h-547v117h156v844h-410v-844h168v-117h-563v117h180v844h-420
v-844h146v-117zM476.999 1073l426.002 0.00195312v133c-33.333 9.33301 -58.333 25.166 -75 47.499s-25 47.5 -25 75.5c0 54 23 99 69 135c-9.33301 8 -28.333 15.833 -57 23.5s-60.667 11.5 -96 11.5c-30.667 0 -59.834 -4.83301 -87.501 -14.5
s-53.334 -24.334 -77.001 -44.001s-42.5 -46.5 -56.5 -80.5s-21 -73 -21 -117v-170z" />
    <glyph glyph-name="f_f_l.liga" unicode="ffl" horiz-adv-x="1998" 
d="M629 0l-555.001 0.00292969v117h194v844h-194v112h194c0 173.333 30.667 301.666 92 384.999s161 125 299 125c138.667 0 246 -39 322 -117c70 78 171.667 117 305 117c77.333 0 152.5 -7.66699 225.5 -23s133.5 -36.833 181.5 -64.5s72 -57.834 72 -90.501v-1288h193
v-117h-582v117h174v1286c-5.33301 21.333 -22.166 38.833 -50.499 52.5s-57.666 22.667 -87.999 27s-61.833 6.5 -94.5 6.5c-66.667 0 -123.334 -19.833 -170.001 -59.5s-70 -101.834 -70 -186.501v-170h332v-112h-326v-844h195v-117h-541v117h131v844h-385v-844h146v-117z
M867.999 1073l-0.000976562 13.998c0 32.667 1.33301 64.334 4 95.001c-36 6.66699 -63.667 22 -83 46s-29 51 -29 81c0 29.333 9.16699 55.333 27.5 78s43.833 35.334 76.5 38.001c-13.333 23.333 -37 41.5 -71 54.5s-68.333 19.5 -103 19.5
c-63.333 0 -114.666 -20.833 -153.999 -62.5s-59 -106.167 -59 -193.5v-170h391z" />
    <glyph glyph-name="f_j.liga" unicode="fj" horiz-adv-x="1282" 
d="M774 -471l-7.99902 -0.00292969c-98.667 0 -173.834 19.167 -225.501 57.5s-77.5 91.5 -77.5 159.5c0 44 14.5 78.5 43.5 103.5s62.833 37.5 101.5 37.5c32 0 59.5 -9.66699 82.5 -29s34.5 -46.333 34.5 -81c0 -68.667 -19 -111 -57 -127c21.333 -8 45 -12 71 -12
c20 0 38.5 3.16699 55.5 9.5s34.333 17.5 52 33.5s31.5 40.833 41.5 74.5s15 74.834 15 123.501v1082h-442v-844h235v-117h-645v117h195v844h-195v112h195c0 164.667 44.333 290.834 133 378.501s206 131.5 352 131.5c54.667 0 105.834 -8.33301 153.501 -25
s86.167 -37.667 115.5 -63s52.333 -52.5 69 -81.5s25 -56.5 25 -82.5c0 -52.667 -14.333 -94.5 -43 -125.5s-64.334 -46.5 -107.001 -46.5c-36 0 -67.5 12.833 -94.5 38.5s-40.5 57.834 -40.5 96.501c0 35.333 13.833 64.333 41.5 87s56.834 34 87.501 34
c-0.666992 24 -20.834 44 -60.501 60s-78.167 24 -115.5 24c-25.333 0 -51.166 -3.16699 -77.499 -9.5s-53.333 -17.5 -81 -33.5s-52.334 -35.5 -74.001 -58.5s-39.5 -53.167 -53.5 -90.5s-21 -79 -21 -125v-109h663v-1163c0 -121.333 -31.667 -214.833 -95 -280.5
s-146.333 -99.167 -249 -100.5z" />
    <glyph glyph-name=".notdef" horiz-adv-x="61" 
 />
    <glyph glyph-name="space" unicode=" " horiz-adv-x="480" 
 />
    <glyph glyph-name="exclam" unicode="!" horiz-adv-x="856" 
d="M471 451h-72l-94 1028h260zM291 127c0 41.333 14.333 76.5 43 105.5s63.334 43.5 104.001 43.5c40 0 75 -14.667 105 -44s45 -64.333 45 -105c0 -40 -15 -74.5 -45 -103.5s-65 -43.5 -105 -43.5c-40.667 0 -75.334 14.5 -104.001 43.5s-43 63.5 -43 103.5z" />
    <glyph glyph-name="quotedbl" unicode="&#x22;" horiz-adv-x="717" 
d="M143 1456c0 23.333 7.5 42.499 22.5 57.499s36.167 22.5 63.5 22.5c56 0 84 -26.667 84 -80l-53 -428c-2 -16 -12.333 -24 -31 -24c-20 0 -31 8 -33 24c-35.333 282.667 -53 425.334 -53 428.001zM405 1456c0 23.333 7.5 42.499 22.5 57.499s36.167 22.5 63.5 22.5
c56 0 84 -26.667 84 -80l-53 -428c-2 -16 -12.333 -24 -31 -24c-20 0 -31 8 -33 24c-35.333 282.667 -53 425.334 -53 428.001z" />
    <glyph glyph-name="numbersign" unicode="#" horiz-adv-x="1350" 
d="M642 1597l119 -36l-162 -488h326l174 524l118 -36l-162 -488h234v-67h-256l-119 -361h254v-67h-276l-248 -748l-119 37l236 711h-326l-248 -748l-119 37l236 711h-223v67h245l120 361h-244v67h266zM577 1006l-120 -361h326l120 361h-326z" />
    <glyph glyph-name="dollar" unicode="$" horiz-adv-x="1394" 
d="M106 1080c0 124 47.8311 225.503 143.498 304.503s225.5 120.5 389.5 124.5v150l96 2v-156c56.667 -4 111.834 -13.167 165.501 -27.5s105.5 -33.833 155.5 -58.5s90.333 -57.667 121 -99s46 -88 46 -140c0 -58.667 -14.833 -106.834 -44.5 -144.501
s-71.5 -56.5 -125.5 -56.5c-44.667 0 -83.834 12.833 -117.501 38.5s-50.5 59.834 -50.5 102.501c0 53.333 13.667 92.666 41 117.999s59.333 38 96 38c-71.333 62.667 -167 97.334 -287 104.001v-532c107.333 -26.667 196.166 -55.834 266.499 -87.501
s124.333 -67 162 -106s63.834 -79.5 78.501 -121.5s22 -91.333 22 -148c0 -125.333 -44.167 -223 -132.5 -293s-220.5 -109 -396.5 -117v-165l-96 -3v166c-47.333 2.66699 -95.666 9.16699 -144.999 19.5s-98.5 25.666 -147.5 45.999s-92.5 44 -130.5 71
s-68.833 60.167 -92.5 99.5s-35.5 81.666 -35.5 126.999c0 55.333 18 100.833 54 136.5s78 53.5 126 53.5c44.667 0 82.5 -17 113.5 -51s46.5 -72.333 46.5 -115c0 -44 -12.667 -77.833 -38 -101.5s-59.666 -38.167 -102.999 -43.5
c101.333 -64 218.666 -99.333 351.999 -106v524c-4 0 -10 1.33301 -18 4c-100 24.667 -184.5 52.834 -253.5 84.501s-122.167 66.667 -159.5 105s-63.666 77.666 -78.999 117.999s-23 85.5 -23 135.5zM734.998 109.003h6c94 6 171.833 31.167 233.5 75.5
s92.5 103.5 92.5 177.5c0 64.667 -26.167 114.167 -78.5 148.5s-136.833 66.833 -253.5 97.5v-499zM638.998 870.003l0.000976562 509.997c-90.667 -7.33301 -167.334 -33.666 -230.001 -78.999s-94 -103.666 -94 -174.999c0 -22.667 1.83301 -42.5 5.5 -59.5
s12 -35.167 25 -54.5s30.833 -36.666 53.5 -51.999s54.167 -30.833 94.5 -46.5s88.833 -30.167 145.5 -43.5z" />
    <glyph glyph-name="percent" unicode="%" horiz-adv-x="1779" 
d="M1379 1479l100 -60l-1065 -1480l-100 59zM226 1157c0 -74.667 20.834 -140.834 62.501 -198.501s97.167 -86.5 166.5 -86.5c68.667 0 123.5 28.5 164.5 85.5s61.5 122.833 61.5 197.5c0 73.333 -19.833 136 -59.5 188s-95.834 78 -168.501 78s-128.667 -25.667 -168 -77
s-59 -113.666 -59 -186.999zM70.001 1145c0 46.667 8.16699 91.501 24.5 134.501s40 81.833 71 116.5s71.333 62.5 121 83.5s105.167 31.5 166.5 31.5s116.833 -10.5 166.5 -31.5s90 -49 121 -84s54.667 -74.167 71 -117.5s24.5 -88.333 24.5 -135s-8 -91.334 -24 -134.001
s-39.333 -81.5 -70 -116.5s-70.667 -62.833 -120 -83.5s-105 -31 -167 -31s-118.167 10.333 -168.5 31s-90.833 48.5 -121.5 83.5s-54.167 74 -70.5 117s-24.5 88.167 -24.5 135.5zM1100 342.001c0 -74.667 21 -140.832 63 -198.499s97.667 -86.5 167 -86.5
c68.667 0 123.334 28.5 164.001 85.5s61 122.833 61 197.5c0 73.333 -19.667 136 -59 188s-95.333 78 -168 78s-128.834 -25.833 -168.501 -77.5s-59.5 -113.834 -59.5 -186.501zM945.001 330.003c0 46.667 8.16699 91.501 24.5 134.501s40 81.833 71 116.5
s71.333 62.5 121 83.5s105.167 31.5 166.5 31.5s116.833 -10.5 166.5 -31.5s90 -49 121 -84s54.667 -74.167 71 -117.5s24.5 -88.333 24.5 -135s-8 -91.334 -24 -134.001s-39.333 -81.5 -70 -116.5s-70.667 -62.833 -120 -83.5s-105 -31 -167 -31s-118.167 10.333 -168.5 31
s-90.833 48.5 -121.5 83.5s-54.167 74 -70.5 117s-24.5 88.167 -24.5 135.5z" />
    <glyph glyph-name="ampersand" unicode="&#x26;" horiz-adv-x="1810" 
d="M565 143c42.667 0 88 15.832 136 47.499s105.667 79.5 173 143.5l-239 356c-70 -45.333 -122.333 -80.666 -157 -105.999s-63.167 -51.5 -85.5 -78.5s-36 -51.5 -41 -73.5s-7.5 -52 -7.5 -90c0 -54 19.833 -100.667 59.5 -140s93.5 -59 161.5 -59zM840 1396
c-59.333 0 -109.003 -17.833 -149.003 -53.5s-60 -87.167 -60 -154.5c0 -58 30 -145.333 90 -262l57.5 42.5l59.5 44c14.667 11 31.834 25.5 51.501 43.5s34.834 34.667 45.501 50s20 33.333 28 54s12 41.667 12 63c0 50.667 -12.167 92.167 -36.5 124.5
s-57.166 48.5 -98.499 48.5zM1343 -27.001c-62 0 -125.502 18.667 -190.502 56s-125.5 94 -181.5 170l-56 -50.5c-27.333 -25 -47.666 -43 -60.999 -54s-33.666 -26 -60.999 -45s-51.833 -32.833 -73.5 -41.5s-48.334 -16.667 -80.001 -24s-64.5 -11 -98.5 -11
c-133.333 0 -237.666 37.833 -312.999 113.5s-113 173.167 -113 292.5c0 35.333 4.16699 68.166 12.5 98.499s21.5 58.333 39.5 84s36.333 48.334 55 68.001s43.167 40 73.5 61s56.833 38.5 79.5 52.5l88 53l86 52c-34.667 56.667 -62.834 115 -84.501 175
s-32.5 108 -32.5 144c0 108.667 37.333 197.334 112 266.001s167.667 103 279 103c93.333 0 170.666 -27.833 231.999 -83.5s92 -127.5 92 -215.5c0 -45.333 -9.16699 -89.333 -27.5 -132s-45.166 -83.167 -80.499 -121.5s-71.666 -72.833 -108.999 -103.5
s-81.666 -63.334 -132.999 -98.001l217 -317l325 397h-200v96h575v-96h-166l-442 -528c34 -60 75.167 -107.833 123.5 -143.5s90.5 -53.5 126.5 -53.5c24.667 0 45.667 2.66699 63 8s34.166 15.833 50.499 31.5s28.833 40 37.5 73s13 74.833 13 125.5v143h131v-84
c0 -77.333 -4.5 -142.833 -13.5 -196.5s-24.667 -101.167 -47 -142.5s-54 -72 -95 -92s-91.833 -30 -152.5 -30z" />
    <glyph glyph-name="quotesingle" unicode="'" horiz-adv-x="455" 
d="M229 1004c-20.667 0 -40.166 63 -58.499 189s-27.5 213.667 -27.5 263c0 23.333 7.5 42.5 22.5 57.5s36.167 22.5 63.5 22.5c56 0 84 -26.667 84 -80c0 -46 -9.33301 -132.833 -28 -260.5s-37.334 -191.5 -56.001 -191.5z" />
    <glyph glyph-name="parenleft" unicode="(" horiz-adv-x="738" 
d="M296 668c0 -92.667 8 -183.83 24 -273.497s39 -172.834 69 -249.501s69.5 -141 118.5 -193s103.5 -83.667 163.5 -95v-86c-96 9.33301 -183 42.166 -261 98.499s-141.167 127 -189.5 212s-85.333 177.833 -111 278.5s-38.5 203.334 -38.5 308.001
c0 104 12.833 206.333 38.5 307s62.667 193.667 111 279s111.5 156.166 189.5 212.499s165 89.166 261 98.499v-86c-60 -11.333 -114.5 -43.166 -163.5 -95.499s-88.5 -116.833 -118.5 -193.5s-53 -159.834 -69 -249.501s-24 -180.5 -24 -272.5z" />
    <glyph glyph-name="parenright" unicode=")" horiz-adv-x="737" 
d="M443 668c0 92.667 -8 183.83 -24 273.497s-39 172.834 -69 249.501s-69.5 141 -118.5 193s-103.5 83.667 -163.5 95v86c96 -9.33301 183 -42.166 261 -98.499s141.167 -127 189.5 -212s85.333 -177.833 111 -278.5s38.5 -203.334 38.5 -308.001
c0 -104 -12.833 -206.333 -38.5 -307s-62.667 -193.667 -111 -279s-111.5 -156.166 -189.5 -212.499s-165 -89.166 -261 -98.499v86c60 11.333 114.5 43.166 163.5 95.499s88.5 116.833 118.5 193.5s53 159.834 69 249.501s24 180.5 24 272.5z" />
    <glyph glyph-name="asterisk" unicode="*" horiz-adv-x="1454" 
d="M1022 368l-296 485l-296 -485l-172 154l383 397l-518 162l82 195l477 -273l-66 533h220l-66 -533l477 273l82 -195l-518 -162l383 -397z" />
    <glyph glyph-name="plus" unicode="+" horiz-adv-x="1131" 
d="M650 532v-376h-170v376h-332v148h332v367h170v-367h332v-148h-332z" />
    <glyph glyph-name="comma" unicode="," horiz-adv-x="617" 
d="M235 -174c32 19.333 61.498 44.001 88.498 74.001s40.5 58 40.5 84c0 11.333 -2.66699 20.666 -8 27.999c-26 -16 -54 -24 -84 -24c-34.667 0 -65.5 13.667 -92.5 41s-40.5 58 -40.5 92c0 37.333 15.833 70.5 47.5 99.5s65.834 43.5 102.501 43.5
c47.333 0 90.5 -18.167 129.5 -54.5s58.5 -87.833 58.5 -154.5c0 -51.333 -14.667 -103.5 -44 -156.5s-74.666 -100.5 -135.999 -142.5c-4 -1.33301 -8 -4 -12 -8z" />
    <glyph glyph-name="hyphen" unicode="-" horiz-adv-x="889" 
d="M735 547h-582v137h582v-137z" />
    <glyph glyph-name="period" unicode="." horiz-adv-x="589" 
d="M146 127c0 41.333 14.333 76.5 43 105.5s63.334 43.5 104.001 43.5c40 0 75 -14.667 105 -44s45 -64.333 45 -105c0 -40 -15 -74.5 -45 -103.5s-65 -43.5 -105 -43.5c-40.667 0 -75.334 14.5 -104.001 43.5s-43 63.5 -43 103.5z" />
    <glyph glyph-name="slash" unicode="/" horiz-adv-x="819" 
d="M637 1597l119 -36l-574 -1731l-119 37z" />
    <glyph glyph-name="zero" unicode="0" horiz-adv-x="1114" 
d="M557 1102c76.667 0 146.334 -16 209.001 -48s113.5 -74.833 152.5 -128.5s69 -113.667 90 -180s31.5 -135.166 31.5 -206.499c0 -72 -10.333 -141.333 -31 -208s-50.334 -126.834 -89.001 -180.501s-89.5 -96.667 -152.5 -129s-133.167 -48.5 -210.5 -48.5
s-147.5 16.167 -210.5 48.5s-113.833 75.333 -152.5 129s-68.334 113.834 -89.001 180.501s-31 136 -31 208c0 71.333 10.5 140.166 31.5 206.499s51 126.333 90 180s89.833 96.5 152.5 128.5s132.334 48 209.001 48zM557 100c54 0 101.5 21.5 142.5 64.5
s71.167 97.167 90.5 162.5s29 136 29 212c0 75.333 -10 146.333 -30 213s-50.333 121.834 -91 165.501s-87.667 65.5 -141 65.5s-100.333 -21.833 -141 -65.5s-71 -98.834 -91 -165.501s-30 -137.667 -30 -213c0 -76 9.66699 -146.667 29 -212s49.5 -119.5 90.5 -162.5
s88.5 -64.5 142.5 -64.5z" />
    <glyph glyph-name="one" unicode="1" horiz-adv-x="821" 
d="M117 0v113h243v784l-213 -98l-61 129l367 145h122v-960h230v-113h-688z" />
    <glyph glyph-name="two" unicode="2" horiz-adv-x="1058" 
d="M123 119c18.667 13.333 52.1689 36.001 100.502 68.001l134.5 90c41.333 28 87.666 62.333 138.999 103s95 79.334 131 116.001s66.333 76.834 91 120.501s37 85.167 37 124.5c0 67.333 -23 125.833 -69 175.5s-100.333 74.5 -163 74.5
c-88.667 0 -160.334 -31.333 -215.001 -94c25.333 -7.33301 47.833 -21.833 67.5 -43.5s29.5 -48.834 29.5 -81.501c0 -43.333 -14.333 -78.333 -43 -105s-65.667 -40 -111 -40c-55.333 0 -96.833 16.5 -124.5 49.5s-41.5 72.5 -41.5 118.5
c0 82.667 46.667 155.167 140 217.5s205 93.5 335 93.5c124 0 222 -33.167 294 -99.5s108 -159.5 108 -279.5c0 -50.667 -21.333 -107.334 -64 -170.001s-111 -128.334 -205 -197.001l-270 -196h534l37 -301l-69 -10l-95 147h-688c-12 79.333 -18.667 119 -20 119z" />
    <glyph glyph-name="three" unicode="3" horiz-adv-x="1105" 
d="M446 -305c-64.667 0 -123.332 7.16699 -175.999 21.5s-95.834 37.166 -129.501 68.499s-50.5 69 -50.5 113c0 42.667 11.667 77.167 35 103.5s58.666 39.5 105.999 39.5c41.333 0 74.666 -14.167 99.999 -42.5s38 -60.5 38 -96.5c0 -12 -1.66699 -24.167 -5 -36.5
s-7.5 -24.333 -12.5 -36s-8.16699 -19.834 -9.5 -24.501c38.667 -5.33301 66 -8 82 -8c61.333 0 116.833 9.5 166.5 28.5s89.667 44.167 120 75.5s53.666 66.333 69.999 105s24.5 79 24.5 121c0 172 -85.333 258 -256 258c-28.667 0 -67.667 -4 -117 -12l-24 127
c218 32.667 327 117.334 327 254.001c0 70 -23 125.667 -69 167s-109.667 62 -191 62c-54.667 0 -99.167 -7.5 -133.5 -22.5s-70.5 -43.833 -108.5 -86.5c15.333 0 31 -2 47 -6s32 -10.5 48 -19.5s29.167 -22.5 39.5 -40.5s15.5 -39 15.5 -63
c0 -43.333 -13.5 -78.666 -40.5 -105.999s-61.833 -41 -104.5 -41c-52 0 -94.167 17 -126.5 51s-48.5 71 -48.5 111c0 108 41.667 192.333 125 253s192 91 326 91c70.667 0 133.334 -10 188.001 -30s97.834 -46.833 129.501 -80.5s55.334 -70.167 71.001 -109.5
s23.5 -80.666 23.5 -123.999c0 -70.667 -21.167 -130.667 -63.5 -180s-106.5 -85 -192.5 -107c122 -12.667 211.833 -49 269.5 -109s86.5 -137 86.5 -231c0 -126.667 -52.667 -231.334 -158 -314.001s-246 -124 -422 -124z" />
    <glyph glyph-name="four" unicode="4" horiz-adv-x="1099" 
d="M643 150v774l-375 -774h375zM1081 -250v-137h-678v137h240v250h-534l-25 135l522 952l252 -30v-907h266l-18 -150h-248v-250h223z" />
    <glyph glyph-name="five" unicode="5" horiz-adv-x="1085" 
d="M459 612c98.667 0 184.171 -11.002 256.504 -33.002s129.5 -53.333 171.5 -94s73 -87.167 93 -139.5s30 -111.166 30 -176.499c0 -63.333 -12.333 -123.166 -37 -179.499s-60 -106.5 -106 -150.5s-105.667 -78.667 -179 -104s-155.333 -38 -246 -38
c-64.667 0 -123.334 7.16699 -176.001 21.5s-95.834 37.166 -129.501 68.499s-50.5 69 -50.5 113c0 42.667 11.667 77.167 35 103.5s58.666 39.5 105.999 39.5c41.333 0 74.666 -14.167 99.999 -42.5s38 -60.5 38 -96.5c0 -16.667 -4.5 -35.667 -13.5 -57
s-13.5 -32.333 -13.5 -33c43.333 -6 70.666 -9 81.999 -9c60.667 0 114.834 9.5 162.501 28.5s86.167 44.667 115.5 77s51.5 68.666 66.5 108.999s22.5 83.166 22.5 128.499c0 60.667 -12 113.834 -36 159.501s-57 81.834 -99 108.501s-88.5 46.334 -139.5 59.001
s-106.5 19 -166.5 19c-33.333 0 -76.333 -3.66699 -129 -11l-59 72l75 518h680l-59 -170h-498l-47 -299c47.333 5.33301 97.333 8 150 8z" />
    <glyph glyph-name="six" unicode="6" horiz-adv-x="1241" 
d="M653 98c80 0 145.5 29.832 196.5 89.499s76.5 135.834 76.5 228.501c0 88 -23 159.5 -69 214.5s-112.667 82.5 -200 82.5c-38.667 0 -81.167 -8.33301 -127.5 -25s-87.5 -41.167 -123.5 -73.5s-54 -67.166 -54 -104.499c0 -76.667 10.333 -145.334 31 -206.001
s54.167 -110.167 100.5 -148.5s102.833 -57.5 169.5 -57.5zM1126 409.999c0 -125.333 -45.6709 -229.502 -137.004 -312.502s-206 -124.5 -344 -124.5c-153.333 0 -275.666 53.667 -366.999 161s-137 264.666 -137 471.999c0 77.333 6.5 150 19.5 218s31.167 128 54.5 180
s51 99.333 83 142s66.5 78.5 103.5 107.5s76.333 53.5 118 73.5s83.5 34.5 125.5 43.5s84.333 13.5 127 13.5c76 0 139.667 -15.5 191 -46.5s77 -71.167 77 -120.5c0 -44.667 -12.167 -79.5 -36.5 -104.5s-57.166 -37.5 -98.499 -37.5c-33.333 0 -63.5 12.333 -90.5 37
s-40.5 52.667 -40.5 84c0 12 0.666992 23.5 2 34.5s3 21.333 5 31s3 15.834 3 18.501c-121.333 -11.333 -222.166 -70.666 -302.499 -177.999s-123.5 -241.333 -129.5 -402c43.333 46.667 98 82.334 164 107.001s129 37 189 37c76.667 0 146.334 -15.833 209.001 -47.5
s113.667 -81 153 -148s59 -146.5 59 -238.5z" />
    <glyph glyph-name="seven" unicode="7" horiz-adv-x="1042" 
d="M975 922l-500 -1282c-12.667 -30 -30.167 -52.667 -52.5 -68s-45.833 -23 -70.5 -23c-30.667 0 -57 10.667 -79 32s-33 49.666 -33 84.999c0 27.333 6 54 18 80l555 1186h-530v-244h-185v385h822z" />
    <glyph glyph-name="eight" unicode="8" horiz-adv-x="1234" 
d="M618 -27c-154.667 0 -280.668 32.6689 -378.001 98.002s-146 152.333 -146 261c0 49.333 9.83301 96.166 29.5 140.499s43.167 81.333 70.5 111s59.333 57.167 96 82.5s68.167 44.333 94.5 57s52.5 24 78.5 34c-44.667 26.667 -83.167 52.5 -115.5 77.5
s-63.333 54 -93 87s-52.167 69.833 -67.5 110.5s-23 84.334 -23 131.001c0 106 41 190.167 123 252.5s194 93.5 336 93.5c133.333 0 242.333 -35.333 327 -106s127 -157.334 127 -260.001c0 -44 -8.66699 -85.333 -26 -124s-41 -72.334 -71 -101.001
s-60.333 -53.167 -91 -73.5s-64 -38.5 -100 -54.5c40.667 -23.333 76.167 -45.333 106.5 -66s61.833 -45.167 94.5 -73.5s59.334 -56.833 80.001 -85.5s37.667 -61.5 51 -98.5s20 -75.833 20 -116.5c0 -114.667 -46.333 -206.167 -139 -274.5s-220.667 -102.5 -384 -102.5z
M621.999 1383c-78.667 0 -144.003 -20.665 -196.003 -61.998s-78 -98 -78 -170c0 -16.667 3.33301 -33.334 10 -50.001s14.334 -31.667 23.001 -45s22.334 -27.833 41.001 -43.5s35 -28.834 49 -39.501s34.667 -24 62 -40l64.5 -37.5c15.667 -9 39.834 -22.167 72.501 -39.5
c26 12.667 50.5 26.834 73.5 42.501s46.5 35.667 70.5 60s43.167 53.166 57.5 86.499s21.5 69.333 21.5 108c0 61.333 -24.667 115 -74 161s-115 69 -197 69zM583.996 690.004c-30 -16 -58.502 -33.333 -85.502 -52s-55.667 -42 -86 -70s-54.5 -59.833 -72.5 -95.5
s-27 -72.5 -27 -110.5c0 -84.667 26.667 -148.5 80 -191.5s126.333 -64.5 219 -64.5c96 0 173.333 19.833 232 59.5s88 101.167 88 184.5c0 36 -8.66699 69.667 -26 101s-43.666 60.833 -78.999 88.5s-69.666 51.667 -102.999 72s-76 44.5 -128 72.5z" />
    <glyph glyph-name="nine" unicode="9" horiz-adv-x="1239" 
d="M475 -283c-76 0 -139.663 15.6699 -190.996 47.0029s-77 71.666 -77 120.999c0 44.667 12.167 79.5 36.5 104.5s57.166 37.5 98.499 37.5c33.333 0 63.5 -12.333 90.5 -37s40.5 -52.667 40.5 -84c0 -12 -0.666992 -23.5 -2 -34.5s-3 -21.333 -5 -31
s-3 -15.834 -3 -18.501c61.333 4 119 23 173 57s99.5 77 136.5 129s67.833 108.5 92.5 169.5s41.334 123.5 50.001 187.5c-34.667 -38.667 -81.334 -67.834 -140.001 -87.501s-117.667 -29.5 -177 -29.5c-48 0 -94 4.5 -138 13.5s-86.833 24.167 -128.5 45.5
s-77.834 47.833 -108.501 79.5s-55.334 72.167 -74.001 121.5s-28 104.666 -28 165.999c0 80 21.167 153 63.5 219s100.333 117.667 174 155s154.834 56 243.501 56c153.333 0 275.666 -53.667 366.999 -161s137 -264.666 137 -471.999
c0 -107.333 -12.667 -204.5 -38 -291.5s-58.666 -158.667 -99.999 -215s-89.833 -103.5 -145.5 -141.5s-112.334 -65.167 -170.001 -81.5s-116.834 -24.5 -177.501 -24.5zM625.004 379.003c40 0 80.999 6.66602 122.999 19.999s79.333 34.5 112 63.5s49 62.5 49 100.5
c0 36 -2.66699 71.5 -8 106.5s-15 71.667 -29 110s-32 71.833 -54 100.5s-51.667 52.334 -89 71.001s-79.666 28 -126.999 28c-77.333 0 -143 -28 -197 -84s-81 -127 -81 -213c0 -100 25.833 -175.5 77.5 -226.5s126.167 -76.5 223.5 -76.5z" />
    <glyph glyph-name="colon" unicode=":" horiz-adv-x="588" 
d="M146 922c0 41.333 14.5 76.5 43.5 105.5s63.833 43.5 104.5 43.5c40 0 74.833 -14.667 104.5 -44s44.5 -64.333 44.5 -105c0 -40 -14.833 -74.667 -44.5 -104s-64.5 -44 -104.5 -44c-40.667 0 -75.5 14.667 -104.5 44s-43.5 64 -43.5 104zM146 147
c0 41.333 14.5 76.668 43.5 106.001s63.833 44 104.5 44c40 0 74.833 -14.833 104.5 -44.5s44.5 -64.834 44.5 -105.501c0 -40 -14.833 -74.5 -44.5 -103.5s-64.5 -43.5 -104.5 -43.5c-40.667 0 -75.5 14.5 -104.5 43.5s-43.5 63.5 -43.5 103.5z" />
    <glyph glyph-name="semicolon" unicode=";" horiz-adv-x="590" 
d="M139 131c0 36.667 15.167 68.6689 45.5 96.002s64.166 41 101.499 41c46 0 85.167 -17.333 117.5 -52s48.5 -83.334 48.5 -146.001c0 -28 -3.5 -53.5 -10.5 -76.5s-19.833 -47.333 -38.5 -73s-36.167 -47.334 -52.5 -65.001s-41.833 -43.834 -76.5 -78.501l-45 73
c29.333 18 56.5 41.333 81.5 70s37.5 55.334 37.5 80.001c0 11.333 -3 21 -9 29c-24 -16.667 -49.667 -25 -77 -25c-31.333 0 -59.666 13.167 -84.999 39.5s-38 55.5 -38 87.5zM139 922.002c0 41.333 14.333 76.5 43 105.5s63.334 43.5 104.001 43.5
c40 0 75 -14.667 105 -44s45 -64.333 45 -105c0 -40 -15 -74.667 -45 -104s-65 -44 -105 -44c-40.667 0 -75.334 14.667 -104.001 44s-43 64 -43 104z" />
    <glyph glyph-name="less" unicode="&#x3c;" horiz-adv-x="943" 
d="M70 801l801 354v-166l-645 -278l645 -262v-170l-801 325v197z" />
    <glyph glyph-name="equal" unicode="=" horiz-adv-x="1005" 
d="M153 860h698v-137h-698v137zM153 496h698v-138h-698v138z" />
    <glyph glyph-name="greater" unicode="&#x3e;" horiz-adv-x="943" 
d="M874 801v-197l-801 -325v170l645 262l-645 278v166z" />
    <glyph glyph-name="question" unicode="?" horiz-adv-x="1009" 
d="M492 406l-65.999 0.000976562c0 69.333 9.83301 134 29.5 194s43.334 111.333 71.001 154l83.5 124c28 40 51.833 83.333 71.5 130s29.5 95 29.5 145c0 46 -7 87.333 -21 124s-32.833 66 -56.5 88s-49.834 38.667 -78.501 50s-58.667 17 -90 17
c-45.333 0 -87.5 -11.5 -126.5 -34.5s-67.833 -55.167 -86.5 -96.5c12 0 24.167 -1.16699 36.5 -3.5s25.5 -6.5 39.5 -12.5s26.167 -13.667 36.5 -23s19 -21.833 26 -37.5s10.5 -33.167 10.5 -52.5c0 -43.333 -13.5 -78.833 -40.5 -106.5s-61.833 -41.5 -104.5 -41.5
c-52 0 -94 16.5 -126 49.5s-48 69.167 -48 108.5c0 73.333 21 137.333 63 192s96.333 95.334 163 122.001s140 40 220 40c30 0 61.5 -3.66699 94.5 -11s68 -21 105 -41s69.833 -44.833 98.5 -74.5s52.5 -69.334 71.5 -119.001s28.5 -105.5 28.5 -167.5
c0 -65.333 -12.333 -126.333 -37 -183s-55.834 -106.334 -93.501 -149.001s-76.167 -83.167 -115.5 -121.5s-77 -80.333 -113 -126s-61 -91.5 -75 -137.5zM455.001 -19.999c-40.667 0 -75.5 14.5 -104.5 43.5s-43.5 63.5 -43.5 103.5c0 41.333 14.5 76.5 43.5 105.5
s63.833 43.5 104.5 43.5c40 0 74.833 -14.667 104.5 -44s44.5 -64.333 44.5 -105c0 -40 -14.833 -74.5 -44.5 -103.5s-64.5 -43.5 -104.5 -43.5z" />
    <glyph glyph-name="at" unicode="@" horiz-adv-x="1642" 
d="M1471 817c0 110 -24.3291 210.994 -72.9961 302.994s-117.167 165.167 -205.5 219.5s-186.833 81.5 -295.5 81.5c-87.333 0 -169.666 -14.333 -246.999 -43s-144 -67.334 -200 -116.001s-104.333 -104.667 -145 -168s-71.167 -130.333 -91.5 -201
s-30.5 -141.667 -30.5 -213c0 -79.333 13.167 -154 39.5 -224s65.333 -133 117 -189s120.167 -100.333 205.5 -133s182.333 -49 291 -49c72 0 151 11.833 237 35.5s157 55.167 213 94.5c41.333 -51.333 62 -78.666 62 -81.999c-66.667 -48 -150.334 -86.833 -251.001 -116.5
s-194 -44.5 -280 -44.5c-122 0 -232.833 19 -332.5 57s-181.834 90.333 -246.501 157s-114.334 144.334 -149.001 233.001s-52 184.334 -52 287.001c0 113.333 23.5 221.5 70.5 324.5s109.333 191.167 187 264.5s168.5 131.833 272.5 175.5s211.333 65.5 322 65.5
c96 0 184.333 -14.167 265 -42.5s148.667 -66.166 204 -113.499s102.5 -102.333 141.5 -165s67.5 -127.667 85.5 -195s27 -135.666 27 -204.999c0 -68 -9 -132.5 -27 -193.5s-43.5 -115.167 -76.5 -162.5s-75.5 -84.833 -127.5 -112.5s-109.667 -41.5 -173 -41.5
c-70.667 0 -124.334 21.5 -161.001 64.5s-57.334 108.833 -62.001 197.5c-14 -32 -27.5 -59.167 -40.5 -81.5s-29 -44.5 -48 -66.5s-39.833 -39.5 -62.5 -52.5s-50.167 -23.5 -82.5 -31.5s-68.5 -12 -108.5 -12c-32 0 -62.833 5.66699 -92.5 17s-57.5 28.5 -83.5 51.5
s-46.833 54.833 -62.5 95.5s-23.5 87.667 -23.5 141c0 67.333 13.167 136.833 39.5 208.5s61.333 136.667 105 195s96 106.333 157 144s123.5 56.5 187.5 56.5c16 0 40.833 -12.333 74.5 -37s63.167 -49.667 88.5 -75l38 -37c18 50 29.667 83.333 35 100h160
c-78 -412 -117 -633.667 -117 -665c0 -80.667 28 -121 84 -121c16 0 34 5.16699 54 15.5s40.833 26.833 62.5 49.5s41.5 49.834 59.5 81.501s32.833 71.334 44.5 119.001s17.5 99.167 17.5 154.5zM557.004 650.994c0 -70 16.1621 -122.333 48.4951 -157
s66.833 -52 103.5 -52c57.333 0 114.5 29.667 171.5 89s91.833 116.333 104.5 171c0 0.666992 3.83301 23.167 11.5 67.5l23 136l12.5 75.5l-11.5 14.5c-5 6.33301 -14.667 17.166 -29 32.499s-28.166 29 -41.499 41s-28.666 22.833 -45.999 32.5s-32.666 14.5 -45.999 14.5
c-49.333 0 -97.666 -25.167 -144.999 -75.5s-85.166 -111.666 -113.499 -183.999s-42.5 -140.833 -42.5 -205.5z" />
    <glyph glyph-name="A" unicode="A" horiz-adv-x="1662" 
d="M635 143v-143h-627v143h180l527 1362h237l535 -1362h168v-143h-647v143h223l-139 361h-578l-131 -361h252zM1042 631l-247 678l-234 -678h481z" />
    <glyph glyph-name="B" unicode="B" horiz-adv-x="1445" 
d="M514 862l217.002 -0.000976562c42.667 0 83.667 4.33301 123 13s76.166 21.834 110.499 39.501s61.666 42.5 81.999 74.5s30.5 69 30.5 111c0 33.333 -3.83301 62.833 -11.5 88.5s-18 47.667 -31 66s-30.833 34 -53.5 47s-46 23.333 -70 31s-54 13.667 -90 18
s-70.833 7.33301 -104.5 9s-74.5 2.5 -122.5 2.5h-80v-500zM514.002 142.999l119.001 0.00390625c45.333 0 84.666 0.666992 117.999 2s67.166 3.66602 101.499 6.99902s63.5 8.16602 87.5 14.499s47.5 14.166 70.5 23.499s41.833 20.833 56.5 34.5
s27.834 29.834 39.501 48.501s20 40.167 25 64.5s7.5 51.833 7.5 82.5c0 51.333 -11.667 97.166 -35 137.499s-54.5 72.666 -93.5 96.999s-82.333 42.833 -130 55.5s-97.5 19 -149.5 19h-217v-586zM33.0029 0.00292969l0.000976562 142.998h246v1219h-246v143h655
c44.667 0 88 -2 130 -6s87 -10.667 135 -20s91.5 -23.166 130.5 -41.499s74.667 -40.666 107 -66.999s57.666 -59.833 75.999 -100.5s27.5 -86.334 27.5 -137.001c0 -85.333 -23.333 -154.166 -70 -206.499s-115.334 -91.5 -206.001 -117.5
c114.667 -28 202.667 -75 264 -141s92 -151.333 92 -256c0 -54 -8.16699 -102.5 -24.5 -145.5s-37.166 -78.667 -62.499 -107s-57.833 -52.833 -97.5 -73.5s-78 -36.334 -115 -47.001s-80.333 -19.167 -130 -25.5s-92 -10.166 -127 -11.499s-75.5 -2 -121.5 -2h-663z" />
    <glyph glyph-name="C" unicode="C" horiz-adv-x="1447" 
d="M817 1536c91.333 0 178.998 -19.1719 262.998 -57.5049s153.333 -93.5 208 -165.5s82 -152 82 -240c0 -45.333 -17.833 -87 -53.5 -125s-83.167 -57 -142.5 -57c-50.667 0 -91.667 14.833 -123 44.5s-47 70.167 -47 121.5s19.667 90.833 59 118.5s79 41.5 119 41.5
c-32.667 50 -81 92.333 -145 127s-138 52 -222 52c-136 0 -247.833 -57.333 -335.5 -172s-131.5 -268 -131.5 -460c0 -73.333 11.667 -145.666 35 -216.999s56 -136.166 98 -194.499s95.833 -105.333 161.5 -141s137.5 -53.5 215.5 -53.5c58.667 0 113.834 11 165.501 33
s95.167 50.833 130.5 86.5s65 74.334 89 116.001s41.667 84.5 53 128.5l134 -65c-35.333 -154 -107 -273.167 -215 -357.5s-248 -126.5 -420 -126.5c-103.333 0 -199.666 21.333 -288.999 64s-164.666 100 -225.999 172s-109.333 156.5 -144 253.5s-52 198.833 -52 305.5
c0 110 17.667 212.333 53 307s84.666 175.834 147.999 243.501s140.833 120.834 232.5 159.501s191.5 58 299.5 58z" />
    <glyph glyph-name="D" unicode="D" horiz-adv-x="1568" 
d="M512 143c84 0 160.17 5.83301 228.503 17.5s133.5 32 195.5 61s114 66.667 156 113s75.333 105.5 100 177.5s37 155.333 37 250c0 70.667 -6.83301 134.834 -20.5 192.501s-32.334 107 -56.001 148s-53.334 77 -89.001 108s-73.334 55.833 -113.001 74.5
s-84.5 33.667 -134.5 45s-99 19.166 -147 23.499s-100.333 6.5 -157 6.5v-1217zM33.0029 1362l0.000976562 143.001h452c108 0 208.167 -6.83301 300.5 -20.5s182.5 -38 270.5 -73s162.833 -79.833 224.5 -134.5s111.167 -125.834 148.5 -213.501s56 -188.167 56 -301.5
c0 -106.667 -15.333 -202.5 -46 -287.5s-73.834 -156.833 -129.501 -215.5s-123.667 -107.5 -204 -146.5s-168.833 -67.5 -265.5 -85.5s-202.667 -27 -318 -27h-489v143h243v1219h-243z" />
    <glyph glyph-name="E" unicode="E" horiz-adv-x="1484" 
d="M33 0v143h246v1219h-246v143h1360v-579h-181v436h-698v-541h373v246h133v-621h-133v261h-373v-564h698v428h181v-571h-1360z" />
    <glyph glyph-name="F" unicode="F" horiz-adv-x="1409" 
d="M33 0v143h243v1219h-243v143h1341v-549h-182v406h-680v-518h360v211h138v-584h-138v254h-360v-582h260v-143h-739z" />
    <glyph glyph-name="G" unicode="G" horiz-adv-x="1599" 
d="M855 1536c110.667 0 210.501 -20.498 299.501 -61.498s157.833 -95.667 206.5 -164s73 -143.5 73 -225.5c0 -41.333 -15.667 -79.166 -47 -113.499s-73 -51.5 -125 -51.5c-48 0 -88 16.167 -120 48.5s-48 68.5 -48 108.5c0 46.667 14.667 85 44 115s57 45 83 45h4
c-28.667 39.333 -65.5 71.666 -110.5 96.999s-86.667 42 -125 50s-76.833 12 -115.5 12c-107.333 0 -201.5 -28.5 -282.5 -85.5s-142.167 -133 -183.5 -228s-62 -201.833 -62 -320.5c0 -79.333 12.667 -156 38 -230s59.833 -139 103.5 -195s97.334 -100.833 161.001 -134.5
s131.5 -50.5 203.5 -50.5c51.333 0 100.833 9.66699 148.5 29s87.667 43.833 120 73.5s58.166 61.5 77.499 95.5s29 66 29 96v140h-283v151h651v-151h-163v-586h-121l-49 211c-22.667 -44.667 -52.5 -83.167 -89.5 -115.5s-77.5 -57 -121.5 -74s-87.667 -29.333 -131 -37
s-87.333 -11.5 -132 -11.5c-92 0 -177 15.167 -255 45.5s-144.167 71.166 -198.5 122.499s-100.666 110.833 -138.999 178.5s-66.5 138.667 -84.5 213s-27 150.166 -27 227.499c0 101.333 17.833 198.5 53.5 291.5s85.667 175.5 150 247.5s145.666 129.5 243.999 172.5
s206.166 64.5 323.499 64.5z" />
    <glyph glyph-name="H" unicode="H" horiz-adv-x="1654" 
d="M1622 143v-143h-711v143h232v582h-631v-582h229v-143h-708v143h243v1219h-243v143h708v-143h-229v-510h631v510h-232v143h711v-143h-244v-1219h244z" />
    <glyph glyph-name="I" unicode="I" horiz-adv-x="769" 
d="M509 143h230v-143h-709v143h244v1219h-244v143h709v-143h-230v-1219z" />
    <glyph glyph-name="J" unicode="J" horiz-adv-x="1161" 
d="M451 -201c-122.667 0 -222.667 31.6689 -300 95.002s-116 139.666 -116 228.999c0 56 16.667 99.667 50 131s73.333 47 120 47c44 0 82.667 -14.5 116 -43.5s50 -67.833 50 -116.5c0 -35.333 -11.667 -68 -35 -98s-48.666 -53.333 -75.999 -70
c12.667 -18 37.834 -32.667 75.501 -44s72.5 -17 104.5 -17c40 0 74.333 6.33301 103 19s51.5 29.667 68.5 51s30.333 49.666 40 84.999s16.167 71.666 19.5 108.999s5 82.333 5 135v1051h-281v143h754v-143h-238v-1024c0 -62.667 -3.83301 -119.167 -11.5 -169.5
s-21.834 -99.166 -42.501 -146.499s-47.834 -86.833 -81.501 -118.5s-78 -57 -133 -76s-118.833 -28.5 -191.5 -28.5z" />
    <glyph glyph-name="K" unicode="K" horiz-adv-x="1624" 
d="M905 0v143h223l-444 553l-172 -143v-410h211v-143h-690v143h243v1219h-243v143h690v-143h-211v-627c6 2 22.167 14.167 48.5 36.5s43.5 37.5 51.5 45.5c18.667 18 70.167 72.333 154.5 163l239.5 259l112 123h-229v143h710v-143h-229l-508 -537l574 -682h176v-143h-707z
" />
    <glyph glyph-name="L" unicode="L" horiz-adv-x="1290" 
d="M1264 0h-1231v143h243v1219h-243v143h708v-143h-229v-1219h565v482h187v-625z" />
    <glyph glyph-name="M" unicode="M" horiz-adv-x="1937" 
d="M51 0l-0.00195312 143h219v1219h-237v143h606l356 -948l332 948h563v-143h-233v-1219h248v-143h-693v143h220v1186l-390 -1071c-19.333 -50.667 -43.666 -76 -72.999 -76c-15.333 0 -30.166 6.66699 -44.499 20s-25.5 30 -33.5 50l-438 1108v-1217h252v-143h-654z" />
    <glyph glyph-name="N" unicode="N" horiz-adv-x="1720" 
d="M694 143v-143h-661v143h241v1219h-241v143h540l711 -1239v1096h-244v143h664v-143h-229v-1362h-267l-743 1292v-1149h229z" />
    <glyph glyph-name="O" unicode="O" horiz-adv-x="1589" 
d="M84 754c0 78 9.16699 154.167 27.5 228.5s46.833 145 85.5 212s85.5 125.833 140.5 176.5s121.833 90.834 200.5 120.501s164.334 44.5 257.001 44.5s178.167 -14.833 256.5 -44.5s145 -69.834 200 -120.501s101.833 -109.5 140.5 -176.5s67.167 -137.667 85.5 -212
s27.5 -150.5 27.5 -228.5s-9.16699 -154.333 -27.5 -229s-46.833 -145.5 -85.5 -212.5s-85.5 -125.5 -140.5 -175.5s-121.667 -89.833 -200 -119.5s-163.833 -44.5 -256.5 -44.5s-178.334 14.833 -257.001 44.5s-145.5 69.5 -200.5 119.5s-101.833 108.5 -140.5 175.5
s-67.167 137.833 -85.5 212.5s-27.5 151 -27.5 229zM340 756c0 -65.333 6.16504 -128.999 18.498 -190.999s31.333 -120.333 57 -175s56.167 -102.667 91.5 -144s77.833 -73.833 127.5 -97.5s103.167 -35.5 160.5 -35.5c71.333 0 136.333 18.167 195 54.5
s106.5 84.666 143.5 144.999s65.5 128.333 85.5 204s30 154.167 30 235.5c0 64 -6.16699 127 -18.5 189s-31.166 120.333 -56.499 175s-55.833 102.834 -91.5 144.501s-78.167 74.667 -127.5 99s-102.666 36.5 -159.999 36.5c-71.333 0 -136.333 -18.167 -195 -54.5
s-106.667 -84.833 -144 -145.5s-66 -128.834 -86 -204.501s-30 -154.167 -30 -235.5z" />
    <glyph glyph-name="P" unicode="P" horiz-adv-x="1333" 
d="M580 1362l-68.001 -0.00195312v-557h139c281.333 0 422 95 422 285c0 29.333 -2.83301 56 -8.5 80s-12.834 44.833 -21.501 62.5s-21 33.334 -37 47.001s-31.667 25 -47 34s-35 16.5 -59 22.5s-46.167 10.667 -66.5 14s-45.666 5.83301 -75.999 7.5
s-57.166 2.83398 -80.499 3.50098s-52 1 -86 1h-11zM32.999 1505l613.998 -0.000976562c43.333 0 81.333 -0.666992 114 -2s73.5 -4.83301 122.5 -10.5s91.667 -13.667 128 -24s74.666 -25.666 114.999 -45.999s73.333 -44.5 99 -72.5s47 -63.5 64 -106.5
s25.5 -91.5 25.5 -145.5c0 -54.667 -7.66699 -103.667 -23 -147s-35.166 -79.5 -59.499 -108.5s-56.166 -54.167 -95.499 -75.5s-78 -37.666 -116 -48.999s-83.667 -20.333 -137 -27s-101.166 -10.834 -143.499 -12.501s-91.833 -2.5 -148.5 -2.5h-80v-533h250v-143h-729
v143h243v1219h-243v143z" />
    <glyph glyph-name="Q" unicode="Q" horiz-adv-x="1617" 
d="M795 113c62.667 0 119.333 13 170 39c-42.667 71.333 -83.5 126.333 -122.5 165s-82.167 58 -129.5 58c-68.667 0 -131 -50.667 -187 -152c73.333 -73.333 163 -110 269 -110zM765.999 502c73.333 0 137.999 -19.1699 193.999 -57.5029s109.333 -90.166 160 -155.499
c42 56.667 74 126.334 96 209.001s33 167.334 33 254.001c0 64 -6.16699 127 -18.5 189s-31.166 120.333 -56.499 175s-55.833 102.834 -91.5 144.501s-78.167 74.667 -127.5 99s-102.666 36.5 -159.999 36.5c-71.333 0 -136.333 -18.167 -195 -54.5
s-106.667 -84.833 -144 -145.5s-66 -128.834 -86 -204.501s-30 -154.167 -30 -235.5c0 -80.667 9.66699 -160 29 -238s46.666 -145.667 81.999 -203c10.667 20 23.167 39.333 37.5 58s33.833 38.5 58.5 59.5s56 37.833 94 50.5s79.667 19 125 19zM1671 228.997
c0 -91.333 -6.99805 -167.333 -20.998 -228s-35.333 -106.834 -64 -138.501s-60.834 -53.5 -96.501 -65.5s-79.5 -18 -131.5 -18c-62.667 0 -118 20.667 -166 62s-95.667 99 -143 173c-76.667 -27.333 -161.334 -41 -254.001 -41s-178.334 14.833 -257.001 44.5
s-145.5 69.5 -200.5 119.5s-101.833 108.5 -140.5 175.5s-67.167 137.833 -85.5 212.5s-27.5 151 -27.5 229s9.16699 154.167 27.5 228.5s46.833 145 85.5 212s85.5 125.833 140.5 176.5s121.833 90.834 200.5 120.501s164.334 44.5 257.001 44.5
s178.167 -14.833 256.5 -44.5s145 -69.834 200 -120.501s101.833 -109.5 140.5 -176.5s67.167 -137.667 85.5 -212s27.5 -150.5 27.5 -228.5c0 -124 -23 -242.667 -69 -356s-112.333 -205.666 -199 -276.999c33.333 -49.333 63 -86.666 89 -111.999s52.333 -38 79 -38h8
c40 4 72.833 30.167 98.5 78.5s38.5 108.166 38.5 179.499v23h121v-23z" />
    <glyph glyph-name="R" unicode="R" horiz-adv-x="1583" 
d="M1282 -33c-42 0 -79.3291 7.33203 -111.996 21.999s-60.167 34.334 -82.5 59.001s-42.166 57.667 -59.499 99s-31.5 84.5 -42.5 129.5s-22.167 99.5 -33.5 163.5c-6.66699 40 -17.334 75.667 -32.001 107s-30.167 55.333 -46.5 72s-33.5 30.5 -51.5 41.5
s-32.833 18 -44.5 21s-21.5 4.5 -29.5 4.5h-236v-543h227v-143h-706v143h243v1219h-243v143h575c56 0 100.833 -0.333008 134.5 -1s78.834 -3.66699 135.501 -9s102.667 -12.833 138 -22.5s74.5 -24.167 117.5 -43.5s76.833 -42.666 101.5 -69.999s45.5 -62.333 62.5 -105
s25.5 -91.334 25.5 -146.001c0 -58.667 -9.33301 -109.834 -28 -153.501s-45.834 -79.5 -81.501 -107.5s-74.334 -50.5 -116.001 -67.5s-90.834 -31.167 -147.501 -42.5c38 -8 70.167 -19 96.5 -33s48.333 -32.5 66 -55.5s31.667 -47 42 -72s20.833 -56.833 31.5 -95.5
c6 -22 12.5 -49.167 19.5 -81.5l17 -80.5c4.33301 -21.333 10.333 -44.166 18 -68.499s15.667 -43.5 24 -57.5s19.166 -25.833 32.499 -35.5s28.666 -14.5 45.999 -14.5c68.667 0 103 63 103 189v139h135v-147c0 -238 -99.667 -357 -299 -357zM512.004 835.999
l124.999 0.000976562c104 0 189.833 7.5 257.5 22.5s120.834 41.667 159.501 80s58 88.833 58 151.5c0 54 -9.66699 98.667 -29 134s-50 63.166 -92 83.499s-91.5 34.5 -148.5 42.5s-128.167 12 -213.5 12h-117v-526z" />
    <glyph glyph-name="S" unicode="S" horiz-adv-x="1337" 
d="M676 -27c-78.667 0 -153.833 7.33594 -225.5 22.0029s-137.167 36.334 -196.5 65.001s-106.666 66.834 -141.999 114.501s-53 101.5 -53 161.5c0 55.333 18.167 100.833 54.5 136.5s78.5 53.5 126.5 53.5c44.667 0 82.334 -17 113.001 -51s46 -72.333 46 -115
c0 -44 -12.667 -77.833 -38 -101.5s-59.666 -38.167 -102.999 -43.5c46 -32.667 98.5 -57.834 157.5 -75.501s134.833 -26.5 227.5 -26.5c70 0 132.667 8.33301 188 25s101 44.334 137 83.001s54 85.667 54 141c0 32.667 -5.5 61.5 -16.5 86.5s-26.167 46.667 -45.5 65
s-46.833 35.666 -82.5 51.999s-73.334 30.5 -113.001 42.5s-89.834 25.667 -150.501 41c-136.667 34 -244.667 73.167 -324 117.5s-134.5 93.666 -165.5 147.999s-46.5 120.166 -46.5 197.499c0 122.667 53.333 224 160 304s245 120 415 120
c44.667 0 91.167 -3.5 139.5 -10.5s98.166 -18.833 149.499 -35.5s97.166 -37.167 137.499 -61.5s73.333 -55.833 99 -94.5s38.5 -81.334 38.5 -128.001c0 -58.667 -14.833 -106.667 -44.5 -144s-71.5 -56 -125.5 -56c-44.667 0 -83.834 12.833 -117.501 38.5
s-50.5 59.834 -50.5 102.501c0 53.333 13.667 92.666 41 117.999s59.333 38 96 38c-79.333 62 -192 93 -338 93c-63.333 0 -122 -9.33301 -176 -28s-98.333 -46.834 -133 -84.501s-52 -81.167 -52 -130.5c0 -23.333 2 -43.833 6 -61.5s13.167 -36.5 27.5 -56.5
s33.833 -38 58.5 -54s58.834 -32.333 102.501 -49s95.834 -31.667 156.501 -45c98 -22 182.833 -46.167 254.5 -72.5s130.167 -54 175.5 -83s81.5 -61.667 108.5 -98s45.667 -73 56 -110s15.5 -79.167 15.5 -126.5c0 -132 -52 -235.667 -156 -311s-252.667 -113 -446 -113z
" />
    <glyph glyph-name="T" unicode="T" horiz-adv-x="1435" 
d="M1079 143v-143h-708v143h233v1219h-383v-465h-186v608h1366v-608h-187v465h-374v-1219h239z" />
    <glyph glyph-name="U" unicode="U" horiz-adv-x="1603" 
d="M799 -27c-99.333 0 -185.832 13.5 -259.499 40.5s-132.167 65.333 -175.5 115s-75.5 106.667 -96.5 171s-31.5 136.5 -31.5 216.5v846h-216v143h672v-143h-221v-860c0 -259.333 116.667 -389 350 -389c114 0 200.833 33 260.5 99s89.5 164.667 89.5 296v854h-227v143h639
v-143h-209v-815c0 -68.667 -5.33301 -130.5 -16 -185.5s-29.334 -107.333 -56.001 -157s-61.5 -91 -104.5 -124s-98 -59.167 -165 -78.5s-144.833 -29 -233.5 -29z" />
    <glyph glyph-name="V" unicode="V" horiz-adv-x="1640" 
d="M676 106l-451 1256h-229v143h717v-143h-211l364 -1069l353 1069h-265v143h678v-143h-243l-431 -1256c-18 -51.333 -36.333 -87.666 -55 -108.999s-46 -32 -82 -32c-35.333 0 -63.833 10.833 -85.5 32.5s-41.5 57.834 -59.5 108.501z" />
    <glyph glyph-name="W" unicode="W" horiz-adv-x="2238" 
d="M1550 -35c-34 0 -58.167 9.83105 -72.5 29.498s-29.5 56.834 -45.5 111.501l-265 906c0.666992 0 -20 -75.5 -62 -226.5l-127 -453.5l-63 -226c-14 -50 -31.167 -86 -51.5 -108s-48.833 -33 -85.5 -33c-34.667 0 -61.5 10.5 -80.5 31.5s-36.5 57.5 -52.5 109.5l-387 1256
h-229v143h696v-143h-211l291 -1055l289 1055h200l291 -1055l273 1055h-203v143h555v-143h-182l-349 -1256c-18.667 -53.333 -36 -90.166 -52 -110.499s-41.667 -30.5 -77 -30.5z" />
    <glyph glyph-name="X" unicode="X" horiz-adv-x="1699" 
d="M1464 143h219v-143h-714v143h221l-356 466l-381 -466h211v-143h-648v143h201l504 616l-455 603h-243v143h747v-143h-229l322 -427l345 427h-247v143h708v-143h-229l-465 -577z" />
    <glyph glyph-name="Y" unicode="Y" horiz-adv-x="1554" 
d="M659 595l-432 767h-204v143h669v-143h-229l338 -621l348 621h-223v143h606v-143h-189l-448 -772v-447h229v-143h-708v143h243v452z" />
    <glyph glyph-name="Z" unicode="Z" horiz-adv-x="1359" 
d="M1278 0h-1143l-24 166h2l870 1202h-668v-422h-186v559h1075l41 -170l-864 -1192h711v447h186v-590z" />
    <glyph glyph-name="bracketleft" unicode="[" horiz-adv-x="1040" 
d="M896 -246h-745v1848h745v-138h-510v-1573h510v-137z" />
    <glyph glyph-name="backslash" unicode="\" horiz-adv-x="819" 
d="M637 1597l119 -36l-574 -1731l-119 37z" />
    <glyph glyph-name="bracketright" unicode="]" horiz-adv-x="1040" 
d="M145 1602h745v-1848h-745v137h510v1573h-510v138z" />
    <glyph glyph-name="asciicircum" unicode="^" horiz-adv-x="1132" 
d="M482 1116h196l326 -801h-170l-262 660l-279 -660h-166z" />
    <glyph glyph-name="underscore" unicode="_" horiz-adv-x="739" 
d="M748 -127h-756v137h756v-137z" />
    <glyph glyph-name="grave" unicode="`" horiz-adv-x="1269" 
d="M395 1458l101.001 139.001c195.333 -138.667 353.666 -260 474.999 -364l-29 -39l-49 18.5c-20.667 7.66699 -58.5 22.667 -113.5 45s-105.167 43.666 -150.5 63.999s-91 43.333 -137 69s-78.333 48.167 -97 67.5z" />
    <glyph glyph-name="a" unicode="a" horiz-adv-x="1267" 
d="M291 229c0 -33.333 9.83398 -60.333 29.501 -81s48.834 -31 87.501 -31c44 0 89.5 13.167 136.5 39.5s85.833 59.5 116.5 99.5s46 78.333 46 115v213c-42.667 -42 -91.834 -79.667 -147.501 -113s-101.334 -58 -137.001 -74s-66.5 -38 -92.5 -66s-39 -62 -39 -102z
M1276 313c0 -66.667 -7.00488 -123.001 -21.0049 -169.001s-34.333 -81 -61 -105s-55.667 -41 -87 -51s-68 -15 -110 -15c-44.667 0 -86.334 8.66699 -125.001 26s-71.834 45.333 -99.501 84s-44.167 85.334 -49.5 140.001c-28.667 -72.667 -77.167 -132.5 -145.5 -179.5
s-142.166 -70.5 -221.499 -70.5c-82 0 -148.833 21.833 -200.5 65.5s-77.5 103.834 -77.5 180.501c0 40 9 76.5 27 109.5s41.833 60.5 71.5 82.5s63.334 43 101.001 63s76 37.167 115 51.5s77.333 30.166 115 47.499s71.334 34.666 101.001 51.999s53.5 38.5 71.5 63.5
s27 52.833 27 83.5c0 76 -18.667 132.5 -56 169.5s-89.666 55.5 -156.999 55.5c-47.333 0 -92.333 -7.5 -135 -22.5s-75.667 -35.5 -99 -61.5c42.667 0 76.5 -11.5 101.5 -34.5s37.5 -50.167 37.5 -81.5c0 -42 -13.667 -76.167 -41 -102.5s-60 -39.5 -98 -39.5
c-39.333 0 -73.666 13.833 -102.999 41.5s-44 67.834 -44 120.501c0 27.333 8.83301 56.833 26.5 88.5s43 62.5 76 92.5s77.833 54.833 134.5 74.5s119 29.5 187 29.5c54.667 0 104.334 -6.16699 149.001 -18.5s85.167 -32 121.5 -59s64.5 -64.333 84.5 -112
s30 -104.167 30 -169.5v-460c0 -26 3.16699 -50.833 9.5 -74.5s18.833 -45.167 37.5 -64.5s42.334 -29 71.001 -29c84.667 0 127 59.333 127 178v149h109v-129z" />
    <glyph glyph-name="b" unicode="b" horiz-adv-x="1185" 
d="M616 989c-44 0 -83.832 -13.168 -119.499 -39.501s-63.667 -60.166 -84 -101.499s-35.833 -84.666 -46.5 -129.999s-16 -90 -16 -134c0 -90.667 10.5 -172.834 31.5 -246.501s51.833 -132.667 92.5 -177s88 -66.5 142 -66.5c54.667 0 102.5 21.333 143.5 64
s71.167 96 90.5 160s29 132.667 29 206c0 58 -4.83301 113.333 -14.5 166s-24.334 102 -44.001 148s-47.167 82.667 -82.5 110s-76 41 -122 41zM657.001 -27.001c-73.333 0 -142.166 18.501 -206.499 55.501s-112.833 93.833 -145.5 170.5l-78 -199h-92v1382h-207v123h422
v-563c34 50 77.167 89.167 129.5 117.5s108.166 42.5 167.499 42.5c139.333 0 251 -52.667 335 -158s126 -241 126 -407c0 -105.333 -18.833 -200.833 -56.5 -286.5s-91 -153.334 -160 -203.001s-147.167 -74.5 -234.5 -74.5z" />
    <glyph glyph-name="c" unicode="c" horiz-adv-x="1118" 
d="M74 516c0 77.333 11.6631 150.663 34.9961 219.996s57 131.5 101 186.5s101 98.667 171 131s148.333 48.5 235 48.5c48.667 0 97.334 -7.16699 146.001 -21.5s94 -35.166 136 -62.499s76.167 -64.166 102.5 -110.499s39.5 -98.166 39.5 -155.499
c0 -40 -13.833 -77 -41.5 -111s-66.167 -51 -115.5 -51c-43.333 0 -79.833 12.833 -109.5 38.5s-44.5 59.834 -44.5 102.501c0 43.333 15.333 77 46 101s66.667 36 108 36c-22 35.333 -53.167 64.333 -93.5 87s-86.5 34 -138.5 34c-58 0 -110 -12.833 -156 -38.5
s-82.667 -59.667 -110 -102s-48.166 -89.166 -62.499 -140.499s-21.5 -104.333 -21.5 -159c0 -128.667 29.667 -229.834 89 -303.501s141.666 -110.5 246.999 -110.5c40.667 0 79.834 8.5 117.501 25.5s69.334 38.167 95.001 63.5s47.167 50.833 64.5 76.5
s29.333 49.167 36 70.5l113 -37c-25.333 -109.333 -79 -196.833 -161 -262.5s-185.333 -98.5 -310 -98.5c-71.333 0 -138.666 12.833 -201.999 38.5s-118.333 61.5 -165 107.5s-83.5 103.333 -110.5 172s-40.5 143.667 -40.5 225z" />
    <glyph glyph-name="d" unicode="d" horiz-adv-x="1236" 
d="M831 170c-34 -63.333 -79.833 -111.999 -137.5 -145.999s-115.5 -51 -173.5 -51c-132.667 0 -239.167 51.667 -319.5 155s-120.5 239.666 -120.5 408.999c0 170 40.833 306.667 122.5 410s192.5 155 332.5 155c55.333 0 109.833 -14.333 163.5 -43
s97.167 -67.667 130.5 -117v440h-235v123h450v-1393h181v-112h-355zM571 989.001c-45.333 0 -85.5 -13.3291 -120.5 -39.9961s-62.5 -62.5 -82.5 -107.5s-34.833 -93.667 -44.5 -146s-14.5 -106.833 -14.5 -163.5c0 -74.667 8.66699 -143.834 26 -207.501
s45.833 -117 85.5 -160s87.167 -64.5 142.5 -64.5c81.333 0 148.5 42.333 201.5 127s79.5 192 79.5 322c0 53.333 -5.33301 105.166 -16 155.499s-26.667 97.166 -48 140.499s-50 78.166 -86 104.499s-77 39.5 -123 39.5z" />
    <glyph glyph-name="e" unicode="e" horiz-adv-x="1150" 
d="M310 659h544c-2.66699 96.667 -29.167 174.834 -79.5 234.501s-111.833 89.5 -184.5 89.5c-73.333 0 -136.333 -29.833 -189 -89.5s-83 -137.834 -91 -234.501zM74 523c0 60 6.99902 118.328 20.999 174.995s35.333 109.334 64 158.001s63 91.334 103 128.001
s87.667 65.5 143 86.5s115 31.5 179 31.5c68 0 131.333 -12 190 -36s110 -58.833 154 -104.5s79 -103.667 105 -174s39.667 -149.166 41 -236.499h-771v-8c0 -57.333 6.16699 -110.666 18.5 -159.999s30.833 -93.666 55.5 -132.999s57.5 -70.333 98.5 -93
s88.167 -34 141.5 -34c69.333 0 134.5 21.667 195.5 65s102.167 104.333 123.5 183l117 -37c-26 -110 -79 -197.667 -159 -263s-179.333 -98 -298 -98c-81.333 0 -155.666 15.5 -222.999 46.5s-122.5 72.5 -165.5 124.5s-76 110.5 -99 175.5s-34.5 132.833 -34.5 203.5z" />
    <glyph glyph-name="f" unicode="f" horiz-adv-x="786" 
d="M711 112l0.00195312 -112.001h-660v112h195v849h-195v112h195c0 175.333 28.667 304.166 86 386.499s154.333 123.5 291 123.5c108 0 192 -21.667 252 -65s90 -93.333 90 -150c0 -52.667 -14.333 -94.5 -43 -125.5s-64.334 -46.5 -107.001 -46.5
c-36 0 -67.5 12.833 -94.5 38.5s-40.5 57.834 -40.5 96.501c0 24 10.167 48.333 30.5 73s47.166 41.334 80.499 50.001c-14.667 14 -35.167 25 -61.5 33s-51.833 12 -76.5 12c-62 0 -110.5 -20.667 -145.5 -62s-52.5 -106 -52.5 -194v-170h327l-8 -112h-313v-849h250z" />
    <glyph glyph-name="g" unicode="g" horiz-adv-x="1198" 
d="M551 -535c-66.667 0 -127.332 7.99902 -181.999 23.999s-100.5 42.667 -137.5 80s-55.5 82.666 -55.5 135.999c0 51.333 16.5 90.166 49.5 116.499s72.5 39.5 118.5 39.5c37.333 0 69.166 -13.167 95.499 -39.5s39.5 -59.833 39.5 -100.5c0 -26 -9 -52.167 -27 -78.5
s-37 -43.166 -57 -50.499c42.667 -14.667 83.667 -22 123 -22c104.667 0 182.667 39.833 234 119.5s77 190.834 77 333.501v178c-21.333 -64 -60.666 -118 -117.999 -162s-122.333 -66 -195 -66c-56.667 0 -108.834 10.333 -156.501 31s-88.334 48.834 -122.001 84.501
s-62.334 77.334 -86.001 125.001s-41.167 98.5 -52.5 152.5s-17 109.333 -17 166c0 72 9.33301 141.5 28 208.5s45.834 127.667 81.501 182s82 97.833 139 130.5s120.833 49 191.5 49c60.667 0 121.667 -19.833 183 -59.5s102.666 -93.5 123.999 -161.5l25 192h334v-119
h-144v-903c0 -62 -5.5 -120.833 -16.5 -176.5s-29 -108.834 -54 -159.501s-56.167 -94.167 -93.5 -130.5s-84.166 -65.333 -140.499 -87s-119.166 -32.5 -188.499 -32.5zM559.002 99.999c59.333 0 110.502 20.666 153.502 61.999s74.333 92.333 94 153
s29.5 126.334 29.5 197.001c0 136 -24.833 246.167 -74.5 330.5s-115.834 126.5 -198.501 126.5c-54.667 0 -102.334 -20.333 -143.001 -61s-70.667 -92 -90 -154s-29 -129.667 -29 -203c0 -57.333 4.5 -111.5 13.5 -162.5s23.167 -98.833 42.5 -143.5s46.333 -80 81 -106
s75 -39 121 -39z" />
    <glyph glyph-name="h" unicode="h" horiz-adv-x="1355" 
d="M1126 723l-0.000976562 -610.998h215v-112h-624v112h194v619c0 77.333 -14.667 135 -44 173s-67.666 57 -114.999 57c-34 0 -69.167 -9.5 -105.5 -28.5s-69.5 -44.333 -99.5 -76s-54.667 -70.334 -74 -116.001s-29 -93.167 -29 -142.5v-486h195v-112h-594v112h184v1270
h-196v123h411v-622c25.333 52 58.833 95 100.5 129s83.167 57.5 124.5 70.5s83.333 19.5 126 19.5c28 0 54.5 -2 79.5 -6s53.667 -13.667 86 -29s60 -35.833 83 -61.5s42.5 -62.834 58.5 -111.501s24 -105.667 24 -171z" />
    <glyph glyph-name="i" unicode="i" horiz-adv-x="665" 
d="M188 1409c0 41.333 14.5 76.668 43.5 106.001s63.833 44 104.5 44c40 0 74.833 -14.833 104.5 -44.5s44.5 -64.834 44.5 -105.501c0 -40 -14.833 -74.5 -44.5 -103.5s-64.5 -43.5 -104.5 -43.5c-40.667 0 -75.5 14.5 -104.5 43.5s-43.5 63.5 -43.5 103.5zM463 1073v-961
h196v-112h-604v112h193v849h-195v112h410z" />
    <glyph glyph-name="j" unicode="j" horiz-adv-x="665" 
d="M160 -471c-98.667 0 -173.833 19.167 -225.5 57.5s-77.5 91.5 -77.5 159.5c0 44 14.5 78.5 43.5 103.5s62.833 37.5 101.5 37.5c32 0 59.5 -9.66699 82.5 -29s34.5 -46.333 34.5 -81c0 -68 -19.333 -110.333 -58 -127c22 -8 46 -12 72 -12c20 0 38.5 3.16699 55.5 9.5
s34.333 17.5 52 33.5s31.5 40.833 41.5 74.5s15 74.834 15 123.501v1082h-244v112h459v-1163c0 -122.667 -32.333 -216.834 -97 -282.501s-149.667 -98.5 -255 -98.5zM227.001 1409c0 41.333 14.5 76.668 43.5 106.001s63.833 44 104.5 44c40 0 74.833 -14.833 104.5 -44.5
s44.5 -64.834 44.5 -105.501c0 -40 -14.833 -74.5 -44.5 -103.5s-64.5 -43.5 -104.5 -43.5c-40.667 0 -75.5 14.5 -104.5 43.5s-43.5 63.5 -43.5 103.5z" />
    <glyph glyph-name="k" unicode="k" horiz-adv-x="1300" 
d="M1176 137c38.667 0 73.334 7.00098 104.001 21.001l29 -135c-32.667 -18.667 -61.834 -30.5 -87.501 -35.5s-56.167 -7.5 -91.5 -7.5c-71.333 0 -132.5 18.667 -183.5 56s-97.5 91.666 -139.5 162.999l-201 346l-166 -127v-306h170v-112h-587v112h202v1270h-202v123h417
v-934l418 390h-188v112h600v-112h-191l-346 -332c20 -28 46.333 -68.333 79 -121l86 -135c24.667 -37.333 52.5 -75.5 83.5 -114.5s63 -69 96 -90s65.833 -31.5 98.5 -31.5z" />
    <glyph glyph-name="l" unicode="l" horiz-adv-x="708" 
d="M475 1505v-1393h215v-112h-653v112h223v1270h-223v123h438z" />
    <glyph glyph-name="m" unicode="m" horiz-adv-x="1929" 
d="M631 112l-0.000976562 -112.003h-582v112h195v849h-195v112l379 17l25 -218c13.333 40.667 32.833 76.334 58.5 107.001s54.167 54.667 85.5 72s63.333 30.166 96 38.499s65.334 12.5 98.001 12.5c23.333 0 44.166 -1 62.499 -3s39.833 -7.16699 64.5 -15.5
s46.167 -19.666 64.5 -33.999s36.333 -35.166 54 -62.499s31.834 -60 42.501 -98c32.667 74 77.334 128 134.001 162s118.667 51 186 51c20 0 39 -1 57 -3s38.5 -6.5 61.5 -13.5s44 -16 63 -27s38.167 -26.5 57.5 -46.5s35.5 -43.167 48.5 -69.5s23.667 -59.166 32 -98.499
s12.5 -83 12.5 -131v-601h184v-112h-561v112h162v599c0 86.667 -17 150.667 -51 192s-80.667 62 -140 62c-70 0 -125 -22 -165 -66s-60 -100 -60 -168v-619h172v-112h-559v112h172v599c0 86.667 -17 150.667 -51 192s-80.667 62 -140 62
c-38.667 0 -72.334 -7.33301 -101.001 -22s-51.334 -33.667 -68.001 -57s-30.167 -52.166 -40.5 -86.499s-17.166 -68.333 -20.499 -102s-5 -70.834 -5 -111.501v-474h172z" />
    <glyph glyph-name="n" unicode="n" horiz-adv-x="1359" 
d="M641 0l-592.001 -0.00195312v112h195v849h-195v112l379 17l25 -218c32.667 74.667 82.834 131.667 150.501 171s136.167 59 205.5 59c20 0 39 -1 57 -3s38.5 -6.5 61.5 -13.5s44 -16 63 -27s38.167 -26.5 57.5 -46.5s35.5 -43.167 48.5 -69.5s23.667 -59.166 32 -98.499
s12.5 -83 12.5 -131v-601h205v-112h-603v112h183v599c0 86.667 -17 150.667 -51 192s-80.667 62 -140 62c-38.667 0 -73.667 -7.16699 -105 -21.5s-57.5 -33.666 -78.5 -57.999s-38.5 -53 -52.5 -86s-24.167 -67.167 -30.5 -102.5s-9.5 -72.333 -9.5 -111v-474h182v-112z
" />
    <glyph glyph-name="o" unicode="o" 
d="M596 983c-66 0 -121.5 -20.501 -166.5 -61.501s-77.333 -95.167 -97 -162.5s-29.5 -145.666 -29.5 -234.999c0 -128 26.333 -230.667 79 -308s124.667 -116 216 -116c89.333 0 159.833 38.833 211.5 116.5s77.5 180.167 77.5 307.5c0 90 -9.66699 168.5 -29 235.5
s-51.333 121 -96 162s-100 61.5 -166 61.5zM598 -27.001c-160 0 -287.335 53.1689 -382.002 159.502s-142 241.166 -142 404.499c0 106.667 20.333 202.5 61 287.5s101 152.5 181 202.5s173.333 75 280 75c80 0 153 -14.5 219 -43.5s120.833 -68.833 164.5 -119.5
s77.334 -110.334 101.001 -179.001s35.5 -143 35.5 -223c0 -106 -20.167 -201.333 -60.5 -286s-100.166 -152.167 -179.499 -202.5s-172 -75.5 -278 -75.5z" />
    <glyph glyph-name="p" unicode="p" horiz-adv-x="1220" 
d="M918 551c0 73.333 -9.83203 141.5 -29.499 204.5s-50.167 115.333 -91.5 157s-89.333 62.5 -144 62.5c-80 0 -145 -41.5 -195 -124.5s-75 -189.167 -75 -318.5c0 -54 5.16699 -106.333 15.5 -157s25.666 -98.167 45.999 -142.5s48.5 -79.833 84.5 -106.5
s77.333 -40 124 -40c46 0 86.667 13.667 122 41s63 64 83 110s35 95.5 45 148.5s15 108.167 15 165.5zM391.001 901c36 65.333 81.833 115.166 137.5 149.499s118.5 51.5 188.5 51.5c83.333 0 158 -25.167 224 -75.5s116.833 -118.166 152.5 -203.499s53.5 -180 53.5 -284
c0 -166.667 -41 -302.667 -123 -408s-192.667 -158 -332 -158c-59.333 0 -114.833 14.167 -166.5 42.5s-94.5 67.5 -128.5 117.5v-412h221v-122h-671v120h235v1242h-194v112l403 29v-201z" />
    <glyph glyph-name="q" unicode="q" horiz-adv-x="1196" 
d="M565 86c44 0 83.832 13.167 119.499 39.5s63.667 60.333 84 102s35.833 85.167 46.5 130.5s16 90 16 134c0 90.667 -10.5 173 -31.5 247s-51.833 133.167 -92.5 177.5s-88 66.5 -142 66.5c-54.667 0 -102.5 -21.5 -143.5 -64.5s-71 -96.5 -90 -160.5
s-28.5 -133 -28.5 -207c0 -58 4.83301 -113.333 14.5 -166s24.334 -102 44.001 -148s47 -82.667 82 -110s75.5 -41 121.5 -41zM523.999 1102c73.333 0 142.331 -18.332 206.998 -54.999s113.334 -93.334 146.001 -170.001l77 196h93v-1349h206v-123h-639v124l217 -1v409
c-34 -50 -77 -89.167 -129 -117.5s-107.667 -42.5 -167 -42.5c-139.333 0 -251 52.667 -335 158s-126 241.333 -126 408c0 105.333 18.833 200.833 56.5 286.5s90.834 153.167 159.501 202.5s146.667 74 234 74z" />
    <glyph glyph-name="r" unicode="r" horiz-adv-x="954" 
d="M684 0l-635.002 -0.00195312v112h195v849h-195v112l379 17l27 -234c8 27.333 19.333 54.333 34 81s33.5 53 56.5 79s51.667 46.833 86 62.5s71.5 23.5 111.5 23.5c54 0 100.5 -15 139.5 -45s58.5 -72.333 58.5 -127c0 -52 -15.167 -92.333 -45.5 -121
s-66.166 -43 -107.499 -43c-38.667 0 -72 12 -100 36s-42 56.333 -42 97c0 14 3.33301 28.333 10 43s13.334 26 20.001 34l11 11c-40 0 -75.333 -12.5 -106 -37.5s-54.5 -58.167 -71.5 -99.5s-29.667 -85.166 -38 -131.499s-12.5 -94.166 -12.5 -143.499v-463h225v-112z" />
    <glyph glyph-name="s" unicode="s" horiz-adv-x="1040" 
d="M514 -27c-52 0 -102.495 5.00391 -151.495 15.0039s-95.333 25.167 -139 45.5s-78.667 48.666 -105 84.999s-39.5 77.833 -39.5 124.5c0 43.333 13.667 79 41 107s59.333 42 96 42c37.333 0 69.166 -10.333 95.499 -31s39.5 -50.667 39.5 -90
c0 -34 -10 -62.167 -30 -84.5s-42.667 -33.5 -68 -33.5c25.333 -18.667 59.833 -34.167 103.5 -46.5s87.5 -18.5 131.5 -18.5c51.333 0 97.166 5 137.499 15s74.833 28.667 103.5 56s43 62.333 43 105c0 32 -9.83301 60.5 -29.5 85.5s-45.5 44.833 -77.5 59.5
s-68.5 29.167 -109.5 43.5s-82.833 27 -125.5 38s-84.5 25.333 -125.5 43s-77.5 37.167 -109.5 58.5s-57.833 49.5 -77.5 84.5s-29.5 75.167 -29.5 120.5s9.83301 86 29.5 122s44.5 65.167 74.5 87.5s64.333 41 103 56s75.667 25.333 111 31s69.333 8.5 102 8.5
c48 0 96.5 -5.33301 145.5 -16s94.667 -25.834 137 -45.501s76.833 -45.5 103.5 -77.5s40 -67.333 40 -106c0 -44.667 -12.833 -80.834 -38.5 -108.501s-55.834 -41.5 -90.501 -41.5c-38 0 -70.333 11.5 -97 34.5s-40 54.5 -40 94.5c0 19.333 4.83301 37 14.5 53
s18.5 27.167 26.5 33.5s19.667 14.5 35 24.5c-66 32 -140.667 48 -224 48c-68.667 0 -126.667 -15 -174 -45s-71 -72.333 -71 -127c0 -26 9.83301 -49.167 29.5 -69.5s45.667 -36.666 78 -48.999s69 -25.333 110 -39s83.167 -26.334 126.5 -38.001
s85.5 -27.334 126.5 -47.001s77.667 -41.167 110 -64.5s58.333 -54 78 -92s29.5 -81 29.5 -129c0 -48.667 -8.83301 -92 -26.5 -130s-40.834 -68.833 -69.501 -92.5s-62.834 -43.167 -102.501 -58.5s-80 -26 -121 -32s-84.167 -9 -129.5 -9z" />
    <glyph glyph-name="t" unicode="t" horiz-adv-x="892" 
d="M-20 1008c51.333 15.333 97.834 42.832 139.501 82.499s75 82.334 100 128.001s47 90.334 66 134.001s35.667 80 50 109s26.833 43.5 37.5 43.5c7.33301 0 13.5 -3 18.5 -9s7.5 -14.667 7.5 -26v-397h394v-114h-394v-670c0 -58.667 13.333 -102.667 40 -132
s62 -44 106 -44c53.333 0 93.666 17.5 120.999 52.5s41 96.5 41 184.5v144h120v-123c0 -132 -23.5 -231.333 -70.5 -298s-129.833 -100 -248.5 -100c-41.333 0 -80.833 6.33301 -118.5 19s-72 31.667 -103 57s-55.833 59.166 -74.5 101.499s-28 90.5 -28 144.5v666h-204v47z
" />
    <glyph glyph-name="u" unicode="u" horiz-adv-x="1286" 
d="M881 -29l0.000976562 226c-84 -149.333 -204.333 -224 -361 -224c-23.333 0 -45.833 1.66699 -67.5 5s-46 9.33301 -73 18s-51.5 22.334 -73.5 41.001s-42.5 41.5 -61.5 68.5s-33.833 62.333 -44.5 106s-16 93.167 -16 148.5v601h-188v112h403v-711
c0 -88.667 14.167 -152.5 42.5 -191.5s72.166 -58.5 131.499 -58.5c42 0 86.5 12.667 133.5 38s86.667 58.666 119 99.999s48.5 83 48.5 125v586h-182v112h398v-960l194 -21v-92z" />
    <glyph glyph-name="v" unicode="v" horiz-adv-x="1255" 
d="M635 -39c-34.667 0.666992 -64 12.668 -88 36.001s-45.333 60.666 -64 111.999l-313 852h-184v112h604v-112h-182l264 -803l256 803h-170v112h512v-112h-172l-295 -846c-19.333 -54.667 -41.5 -94 -66.5 -118s-56.833 -36 -95.5 -36h-6z" />
    <glyph glyph-name="w" unicode="w" horiz-adv-x="1687" 
d="M1188 -39c-34 0 -60.834 10.668 -80.501 32.001s-36.5 57.666 -50.5 108.999l-176 646l-207 -637c-18 -56 -37.167 -95 -57.5 -117s-49.166 -33 -86.499 -33c-32 0 -57.667 10.833 -77 32.5s-36 58.5 -50 110.5l-227 857h-168v112h561v-112h-161l167 -742l234 739h182
l217 -745l187 748h-168v112h461v-112h-142l-227 -852c-14.667 -57.333 -31 -96.333 -49 -117s-45.333 -31 -82 -31z" />
    <glyph glyph-name="x" unicode="x" horiz-adv-x="1280" 
d="M571 1073v-112h-149l225 -302l227 302h-161v112h504v-112h-164l-316 -389l373 -460h166v-112h-594v112h178l-238 328l-260 -328h181v-112h-516v112h157l338 414l-354 435h-164v112h567z" />
    <glyph glyph-name="y" unicode="y" horiz-adv-x="1280" 
d="M360 -467c-92 0 -166.833 20.834 -224.5 62.501s-86.5 95.167 -86.5 160.5c0 46.667 15.333 85 46 115s72.667 45 126 45c41.333 0 72.5 -14 93.5 -42s31.5 -62.333 31.5 -103c0 -24.667 -8.16699 -46.5 -24.5 -65.5s-36.166 -34.167 -59.499 -45.5
c28 -14.667 50 -22 66 -22c58.667 0 108.167 26.167 148.5 78.5s71.166 139.166 92.499 260.499l-397 984h-199v112h617v-112h-182l290 -785l248 785h-166v112h514v-112h-172l-344 -965c-59.333 -171.333 -121.5 -291.333 -186.5 -360s-142.167 -103 -231.5 -103z" />
    <glyph glyph-name="z" unicode="z" horiz-adv-x="1093" 
d="M1010 0h-883l-18 158h2l637 803h-465v-275h-164v387h821l29 -149l-645 -812h522v306h164v-418z" />
    <glyph glyph-name="braceleft" unicode="{" horiz-adv-x="862" 
d="M376 625c22.667 -5.33301 41.667 -12.1689 57 -20.502s28.5 -20.166 39.5 -35.499s19.667 -31.833 26 -49.5s11.333 -41.667 15 -72s6 -61 7 -92s1.5 -70.833 1.5 -119.5c0 -41.333 0.166992 -75 0.5 -101s1.16602 -54.833 2.49902 -86.5s3.33301 -56.834 6 -75.501
s6.33398 -39.167 11.001 -61.5s10.5 -39.666 17.5 -51.999s15.5 -25.5 25.5 -39.5s21.5 -24.5 34.5 -31.5s28.167 -13.667 45.5 -20s36.5 -10.666 57.5 -12.999s44.833 -3.5 71.5 -3.5v-86c-71.333 0 -133.166 4.5 -185.499 13.5s-97 24.167 -134 45.5s-67 46.333 -90 75
s-41.167 65.667 -54.5 111s-22.333 93 -27 143s-7 110.667 -7 182c0 26.667 0.166992 58.667 0.5 96s0.5 62.333 0.5 75c0 66 -6.5 107.5 -19.5 124.5s-45.5 25.5 -97.5 25.5h-115v135h115c52 0 84.5 8.5 97.5 25.5s19.5 58.5 19.5 124.5c0 12 -0.166992 37 -0.5 75
s-0.5 70.333 -0.5 97c0 71.333 2.33301 132 7 182s13.667 97.667 27 143s31.5 82.166 54.5 110.499s53 53.166 90 74.499s81.667 36.5 134 45.5s114.166 13.5 185.499 13.5v-86c-52.667 0 -95.667 -6 -129 -18s-59.833 -27.5 -79.5 -46.5s-34 -51.167 -43 -96.5
s-14.667 -89.333 -17 -132s-3.5 -106 -3.5 -190c0 -48.667 -0.5 -88.5 -1.5 -119.5s-3.33301 -61.667 -7 -92s-8.66699 -54.333 -15 -72s-15 -34.167 -26 -49.5s-24.167 -27.166 -39.5 -35.499s-34.333 -15.166 -57 -20.499z" />
    <glyph glyph-name="bar" unicode="|" horiz-adv-x="487" 
d="M333 1606v-1852h-180v1852h180z" />
    <glyph glyph-name="braceright" unicode="}" horiz-adv-x="862" 
d="M534 625c-68.667 16 -117.667 52.5029 -147 109.503s-44 150.167 -44 279.5c0 84 -1.16699 147.333 -3.5 190s-8 86.667 -17 132s-23.333 77.5 -43 96.5s-46.167 34.5 -79.5 46.5s-76.333 18 -129 18v86c61.333 0 115.5 -3.66699 162.5 -11s88.167 -17.833 123.5 -31.5
s65.166 -32.334 89.499 -56.001s44.5 -49.667 60.5 -78s28.5 -63.333 37.5 -105s15.167 -84.834 18.5 -129.501s5 -97.334 5 -158.001c0 -42 0.166992 -74.667 0.5 -98s1.16602 -48.333 2.49902 -75s3.16602 -46.334 5.49902 -59.001s6.16602 -26.167 11.499 -40.5
s11.166 -24.166 17.499 -29.499s14.833 -10.833 25.5 -16.5s22.167 -9 34.5 -10s27.833 -1.5 46.5 -1.5h88v-119h-88c-18.667 0 -34.167 -0.5 -46.5 -1.5s-23.833 -4.16699 -34.5 -9.5s-19.167 -10.666 -25.5 -15.999s-12.166 -15.166 -17.499 -29.499
s-9.16602 -27.833 -11.499 -40.5s-4.16602 -32.334 -5.49902 -59.001s-2.16602 -51.667 -2.49902 -75s-0.5 -56 -0.5 -98c0 -71.333 -2.33301 -132 -7 -182s-13.5 -97.667 -26.5 -143s-31.167 -82.333 -54.5 -111s-53.333 -53.667 -90 -75s-81.167 -36.5 -133.5 -45.5
s-114.166 -13.5 -185.499 -13.5v86c26.667 0 50.5 1.16699 71.5 3.5s40.167 6.66602 57.5 12.999s32.5 13 45.5 20s24.5 17.5 34.5 31.5s18.5 27.167 25.5 39.5s12.833 29.666 17.5 51.999s8.33398 42.833 11.001 61.5s4.66699 43.834 6 75.501s2.16602 60.5 2.49902 86.5
s0.5 59.667 0.5 101c0 129.333 14.667 222.5 44 279.5s78.333 93.5 147 109.5z" />
    <glyph glyph-name="asciitilde" unicode="~" horiz-adv-x="1060" 
d="M788 928c44 0 72.165 10.668 84.498 32.001s18.5 58.333 18.5 111h125c0 -63.333 -5.16699 -115.833 -15.5 -157.5s-26.666 -74.334 -48.999 -98.001s-48.666 -40.167 -78.999 -49.5s-68.5 -14 -114.5 -14c-44.667 0 -101.5 11.333 -170.5 34s-133.333 45.167 -193 67.5
s-100.5 33.5 -122.5 33.5c-44 0 -72 -9.5 -84 -28.5s-18 -54.5 -18 -106.5h-125c0 63.333 5 115.833 15 157.5s26.167 74.5 48.5 98.5s48.833 40.833 79.5 50.5s69 14.5 115 14.5c43.333 0 99.333 -12.167 168 -36.5s133 -48.5 193 -72.5s101.333 -36 124 -36z" />
    <glyph glyph-name="exclamdown" unicode="&#xa1;" horiz-adv-x="856" 
d="M408 1028h72l94 -1028h-260zM588 1352c0 -41.333 -14.333 -76.5 -43 -105.5s-63.334 -43.5 -104.001 -43.5c-40 0 -75 14.667 -105 44s-45 64.333 -45 105c0 40 15 74.5 45 103.5s65 43.5 105 43.5c40.667 0 75.334 -14.5 104.001 -43.5s43 -63.5 43 -103.5z" />
    <glyph glyph-name="cent" unicode="&#xa2;" horiz-adv-x="1146" 
d="M559 143l0.000976562 834c-56.667 -16 -105 -46.833 -145 -92.5s-68.833 -97 -86.5 -154s-26.5 -117.5 -26.5 -181.5c0 -111.333 22.667 -202.5 68 -273.5s108.666 -115.167 189.999 -132.5zM559.001 1290l87.999 0.00195312v-187c47.333 -2.66699 93.5 -12 138.5 -28
s86.833 -37.833 125.5 -65.5s69.834 -63.834 93.501 -108.501s35.5 -94.334 35.5 -149.001c0 -40 -13.833 -77 -41.5 -111s-66.167 -51 -115.5 -51c-43.333 0 -79.833 12.833 -109.5 38.5s-44.5 59.834 -44.5 102.501c0 43.333 15.333 77 46 101s66.667 36 108 36
c-22 35.333 -53.167 64.333 -93.5 87s-86.5 34 -138.5 34h-4v-854c39.333 1.33301 77.166 10.666 113.499 27.999s67 38.666 92 63.999s45.833 50.333 62.5 75s28.334 47.667 35.001 69l113 -37c-23.333 -101.333 -71 -184.333 -143 -249s-163 -102 -273 -112v-186h-88v185
c-139.333 8 -255 61.5 -347 160.5s-138 226.833 -138 383.5c0 98.667 17.667 189.834 53 273.501s90.333 154.5 165 212.5s163.667 91.333 267 100v188z" />
    <glyph glyph-name="sterling" unicode="&#xa3;" horiz-adv-x="1234" 
d="M402 1182c0 -43.333 8.00195 -85.1699 24.002 -125.503s35.5 -84.833 58.5 -133.5s39.833 -96.334 50.5 -143.001h313l-27 -121l-272 3c0 -98.667 -20 -197.667 -60 -297s-88.333 -182 -145 -248h580v379h186v-496h-940l-64 135
c59.333 68.667 108.666 147.834 147.999 237.501s59 185.167 59 286.5h-172l23 121h135c-11.333 50.667 -28.5 100.334 -51.5 149.001s-42.333 92.5 -58 131.5s-23.5 79.5 -23.5 121.5c0 104.667 46.833 189.834 140.5 255.501s216.167 98.5 367.5 98.5
c120 0 222.333 -28.167 307 -84.5s127 -130.5 127 -222.5c0 -52.667 -15.5 -96.167 -46.5 -130.5s-72.167 -51.5 -123.5 -51.5c-44.667 0 -83.834 12.833 -117.501 38.5s-50.5 59.834 -50.5 102.501c0 36 14 68.5 42 97.5s55 45.833 81 50.5c-56 58.667 -126.333 88 -211 88
c-83.333 0 -150.833 -22.167 -202.5 -66.5s-77.5 -102.833 -77.5 -175.5z" />
    <glyph glyph-name="currency" unicode="&#xa4;" horiz-adv-x="1196" 
d="M991 578l-94.002 94c-79.333 -67.333 -177.666 -101 -294.999 -101c-114 0 -213.667 33 -299 99l-93 -92l-59 59l92 92c-66.667 84.667 -100 183 -100 295c0 115.333 34 215 102 299l-94 94l59 60l97 -97c78.667 64.667 176.334 97 293.001 97s214 -33 292 -99l99 99
l59 -60l-98 -98c66.667 -82.667 100 -182.334 100 -299.001c0 -109.333 -32 -205.666 -96 -288.999l94 -94zM599.998 1368c-93.333 0 -169.334 -31.5 -228.001 -94.5s-88 -147.5 -88 -253.5c0 -103.333 29.5 -184.833 88.5 -244.5s135.5 -89.5 229.5 -89.5
c92.667 0 168 30.167 226 90.5s87 141.5 87 243.5c0 106 -29.167 190.5 -87.5 253.5s-134.166 94.5 -227.499 94.5z" />
    <glyph glyph-name="yen" unicode="&#xa5;" horiz-adv-x="1601" 
d="M1143 735v-131c0 -0.666992 -64.333 -1 -193 -1h-47l-8 -13v-62h248v-131h-248v-260h229v-137h-708v137h243v260h-262v131h262v67l-5 8l-257 1v131h183l-353 627h-204v143h669v-143h-229l338 -621l348 621h-223v143h606v-143h-189l-364 -627h164z" />
    <glyph glyph-name="brokenbar" unicode="&#xa6;" horiz-adv-x="487" 
d="M333 1606v-695h-180v695h180zM333 449v-695h-180v695h180z" />
    <glyph glyph-name="section" unicode="&#xa7;" horiz-adv-x="1171" 
d="M588 -8c-51.333 0 -100 3.83594 -146 11.5029s-91.167 20.334 -135.5 38.001s-79.5 43.834 -105.5 78.501s-39 76 -39 124c0 43.333 12.833 79 38.5 107s55.834 42 90.501 42c39.333 0 72.666 -10 99.999 -30s41 -49 41 -87c0 -34.667 -9.16699 -61.834 -27.5 -81.501
s-44.5 -31.167 -78.5 -34.5c28.667 -20.667 65.5 -36.834 110.5 -48.501s91.5 -17.5 139.5 -17.5c70.667 0 129.167 13.167 175.5 39.5s69.5 66.5 69.5 120.5c0 26 -9.83301 49.167 -29.5 69.5s-45.667 36.666 -78 48.999s-69 25.333 -110 39s-83.167 26.334 -126.5 38.001
s-85.5 27.334 -126.5 47.001s-77.667 41.167 -110 64.5s-58.333 54 -78 92s-29.5 81 -29.5 129c0 100 36.333 179.333 109 238c-50.667 46.667 -76 106 -76 178c0 37.333 6.66699 71.333 20 102s31.666 56.167 54.999 76.5s49.166 38 77.499 53s58.833 26.5 91.5 34.5
s63.334 13.833 92.001 17.5s56.667 5.5 84 5.5c51.333 0 100 -3.83301 146 -11.5s91.167 -20.334 135.5 -38.001s79.5 -43.834 105.5 -78.501s39 -76 39 -124c0 -43.333 -12.833 -79.166 -38.5 -107.499s-55.834 -42.5 -90.501 -42.5c-39.333 0 -72.666 10 -99.999 30
s-41 49 -41 87c0 34.667 9.16699 62 27.5 82s44.5 31.667 78.5 35c-28 20 -64.5 35.833 -109.5 47.5s-91.833 17.5 -140.5 17.5c-70.667 0 -129.334 -13 -176.001 -39s-70 -66 -70 -120c0 -29.333 12.667 -54.833 38 -76.5s58.333 -39.834 99 -54.501
s85.334 -28.834 134.001 -42.501s97.5 -29.834 146.5 -48.501s93.833 -40.167 134.5 -64.5s73.667 -57.333 99 -99s38 -89.5 38 -143.5c0 -99.333 -36.333 -178.333 -109 -237c50.667 -46.667 76 -106 76 -178c0 -37.333 -6.66699 -71.333 -20 -102
s-31.666 -56.167 -54.999 -76.5s-49.166 -38 -77.499 -53s-58.833 -26.5 -91.5 -34.5s-63.334 -13.833 -92.001 -17.5s-56.667 -5.5 -84 -5.5zM793 543.003c38 28.667 57 69.667 57 123c0 32 -9.33301 60.167 -28 84.5s-45.667 44.833 -81 61.5s-70.833 30.667 -106.5 42
l-129.5 39.5c-50.667 15 -92 29.167 -124 42.5c-38 -30 -57 -71 -57 -123c0 -32 9.33301 -60.167 28 -84.5s45.667 -44.833 81 -61.5s70.833 -30.667 106.5 -42l129.5 -39.5c50.667 -15 92 -29.167 124 -42.5z" />
    <glyph glyph-name="dieresis" unicode="&#xa8;" horiz-adv-x="1056" 
d="M172 1317c0 38 13.333 70.667 40 98s59 41 97 41c37.333 0 69.5 -13.667 96.5 -41s40.5 -60 40.5 -98c0 -36.667 -13.667 -68.667 -41 -96s-59.333 -41 -96 -41c-38 0 -70.333 13.5 -97 40.5s-40 59.167 -40 96.5zM647 1317c0 38 13.333 70.667 40 98s59 41 97 41
c37.333 0 70 -13.667 98 -41s42 -60 42 -98c0 -36.667 -14 -68.667 -42 -96s-60.667 -41 -98 -41c-38 0 -70.333 13.5 -97 40.5s-40 59.167 -40 96.5z" />
    <glyph glyph-name="copyright" unicode="&#xa9;" horiz-adv-x="1703" 
d="M1270 614c-20.667 -86 -65.335 -154.332 -134.002 -204.999s-147 -76 -235 -76c-121.333 0 -223.166 43.667 -305.499 131s-123.5 193.666 -123.5 318.999c0 130.667 40.833 238.167 122.5 322.5s187.167 126.5 316.5 126.5c54 0 106 -11 156 -33
s91.833 -54.667 125.5 -98s50.5 -92.666 50.5 -147.999c0 -30 -11.833 -57.833 -35.5 -83.5s-54.834 -38.5 -93.501 -38.5c-30.667 0 -57.167 10 -79.5 30s-33.5 45 -33.5 75c0 33.333 13.833 59.666 41.5 78.999s54.167 29 79.5 29c-20 30 -48.167 55 -84.5 75
s-79.166 30 -128.499 30c-80 0 -144.833 -32.5 -194.5 -97.5s-74.5 -153.167 -74.5 -264.5c0 -57.333 10.5 -112 31.5 -164s53.5 -95.667 97.5 -131s94.667 -53 152 -53c67.333 0 125.333 21.833 174 65.5s80.334 93.5 95.001 149.5zM870.999 72.001
c93.333 0 182.499 18.332 267.499 54.999s158.333 85.667 220 147s110.834 134.5 147.501 219.5s55 173.833 55 266.5s-18.333 181.334 -55 266.001s-85.834 157.667 -147.501 219s-135 110.166 -220 146.499s-174.167 54.5 -267.5 54.5c-124 0 -238.833 -30.667 -344.5 -92
s-189.5 -144.666 -251.5 -249.999s-93 -220 -93 -344c0 -92.667 18.333 -181.5 55 -266.5s85.834 -158.167 147.501 -219.5s135 -110.333 220 -147s173.833 -55 266.5 -55zM868.998 -27c-105.333 0 -206.165 21 -302.498 63s-179.666 98 -249.999 168
s-126.333 153.5 -168 250.5s-62.5 198.167 -62.5 303.5c0 104.667 20.833 205 62.5 301s97.667 178.833 168 248.5s153.666 125.167 249.999 166.5s197.166 62 302.499 62c140.667 0 271.167 -35 391.5 -105s215.666 -164.667 285.999 -284s105.5 -249 105.5 -389
c0 -105.333 -20.833 -206.5 -62.5 -303.5s-97.5 -180.667 -167.5 -251s-153.333 -126.333 -250 -168s-197.667 -62.5 -303 -62.5z" />
    <glyph glyph-name="ordfeminine" unicode="&#xaa;" horiz-adv-x="1312" 
d="M323 756c0 -29.333 8.33301 -52.834 25 -70.501s41.667 -26.5 75 -26.5c58 0 115.5 24.333 172.5 73s85.5 97 85.5 145v180c-36.667 -36 -79 -68.167 -127 -96.5s-87.333 -49.166 -118 -62.499s-57.167 -31.833 -79.5 -55.5s-33.5 -52.5 -33.5 -86.5zM1171 826.999
c0 -56.667 -5.99512 -104.664 -17.9951 -143.997s-29.333 -69.333 -52 -90s-47.334 -35.334 -74.001 -44.001s-57.334 -13.334 -92.001 -14.001h-4c-60 0 -112.833 18.667 -158.5 56s-71.5 90.333 -77.5 159c-26 -62.667 -68.167 -114.167 -126.5 -154.5
s-121.833 -60.5 -190.5 -60.5c-70.667 0 -128.334 19 -173.001 57s-67 90 -67 156c0 38.667 10 73.334 30 104.001s46 56 78 76s67.333 38.5 106 55.5l115.5 48.5c38.333 15.333 73.5 31.166 105.5 47.499s58 36.333 78 60s30 50.167 30 79.5
c0 64.667 -16 112.834 -48 144.501s-77.333 47.5 -136 47.5c-40.667 0 -79.334 -6.5 -116.001 -19.5s-65 -30.5 -85 -52.5c37.333 0 66.833 -9.83301 88.5 -29.5s32.5 -43.167 32.5 -70.5c0 -36 -12 -65.167 -36 -87.5s-52.333 -33.5 -85 -33.5
c-33.333 0 -62.833 12 -88.5 36s-38.5 58.333 -38.5 103c0 23.333 7.66699 48.5 23 75.5s37.166 53.167 65.499 78.5s66.833 46.333 115.5 63s102.334 25 161.001 25c47.333 0 90.166 -5.33301 128.499 -16s73 -27.334 104 -50.001s55.167 -54.334 72.5 -95.001
s26 -88.667 26 -144v-393c0 -22 2.83301 -43.167 8.5 -63.5s16.667 -38.833 33 -55.5s36.833 -25 61.5 -25c72 0 108 50.667 108 152v127h95v-109z" />
    <glyph glyph-name="guillemotleft" unicode="&#xab;" horiz-adv-x="966" 
d="M502 258v227l240 187l-240 174v215l387 -330v-135zM84 258v227l240 187l-240 174v215l387 -330v-135z" />
    <glyph glyph-name="logicalnot" unicode="&#xac;" horiz-adv-x="1136" 
d="M814 289v360h-664v148h834v-508h-170z" />
    <glyph glyph-name="uni00AD" unicode="&#xad;" horiz-adv-x="970" 
d="M816 797v-148h-663v148h663z" />
    <glyph glyph-name="registered" unicode="&#xae;" horiz-adv-x="1703" 
d="M731 829h52c86 0 149 11.5 189 34.5s60 60.833 60 113.5c0 58 -19 97.667 -57 119s-103.333 32 -196 32h-48v-299zM1144 335c-35.333 0 -65.168 4.66406 -89.501 13.9971s-44.666 24.833 -60.999 46.5s-29.166 46.834 -38.499 75.501s-18 65 -26 109
c-6 35.333 -15.667 67.666 -29 96.999s-25.833 50.5 -37.5 63.5s-20.834 19.5 -27.501 19.5h-104v-330h104v-79h-388v79h127v698h-127v82h332c29.333 0 54.833 -0.5 76.5 -1.5s47.667 -3.16699 78 -6.5s56.5 -8 78.5 -14s44.833 -14.833 68.5 -26.5s43 -25.5 58 -41.5
s27.333 -36.167 37 -60.5s14.5 -51.833 14.5 -82.5c0 -31.333 -5.83301 -58.666 -17.5 -81.999s-28.667 -42.666 -51 -57.999s-46 -27.5 -71 -36.5s-54.167 -16.833 -87.5 -23.5c33.333 -7.33301 61 -21.166 83 -41.499s37 -43 45 -68s14.667 -51.5 20 -79.5
s8.83301 -53.5 10.5 -76.5s6.5 -42 14.5 -57s19.333 -22.5 34 -22.5c21.333 0 37.333 8.83301 48 26.5s16 47.5 16 89.5v72h105v-86c0 -32 -4.33301 -60.333 -13 -85s-19.5 -44 -32.5 -58s-28.5 -25.5 -46.5 -34.5s-35.167 -14.833 -51.5 -17.5s-33.5 -4 -51.5 -4z
M870.998 71.9971c93.333 0 182.666 18.333 267.999 55s158.666 85.667 219.999 147s110.333 134.5 147 219.5s55 173.833 55 266.5s-18.333 181.5 -55 266.5s-85.667 158.167 -147 219.5s-134.666 110 -219.999 146s-174.666 54 -267.999 54
c-92.667 0 -181.5 -18 -266.5 -54s-158.5 -84.667 -220.5 -146s-111.167 -134.5 -147.5 -219.5s-54.5 -173.833 -54.5 -266.5s18.167 -181.5 54.5 -266.5s85.5 -158.167 147.5 -219.5s135.5 -110.333 220.5 -147s173.833 -55 266.5 -55zM868.998 -27.0029
c-105.333 0 -206.333 21 -303 63s-180 98 -250 168s-125.833 153.5 -167.5 250.5s-62.5 198.167 -62.5 303.5c0 104.667 20.833 205 62.5 301s97.5 178.833 167.5 248.5s153.333 125.167 250 166.5s197.667 62 303 62c106 0 207.333 -20.667 304 -62s180 -96.833 250 -166.5
s125.667 -152.5 167 -248.5s62 -196.333 62 -301c0 -105.333 -20.667 -206.5 -62 -303.5s-97 -180.5 -167 -250.5s-153.5 -126 -250.5 -168s-198.167 -63 -303.5 -63z" />
    <glyph glyph-name="macron" unicode="&#xaf;" horiz-adv-x="889" 
d="M735 1341h-582v138h582v-138z" />
    <glyph glyph-name="degree" unicode="&#xb0;" horiz-adv-x="921" 
d="M461 1421c-46.667 0 -87.999 -18.167 -123.999 -54.5s-54 -86.166 -54 -149.499c0 -64.667 17.333 -114 52 -148s76 -51 124 -51c47.333 0 89.166 17.833 125.499 53.5s54.5 84.167 54.5 145.5c0 63.333 -18 113.166 -54 149.499s-77.333 54.5 -124 54.5zM145.001 1217
c0 84.667 28.167 154.5 84.5 209.5s133.5 82.5 231.5 82.5c96.667 0 173.334 -27.5 230.001 -82.5s85 -124.833 85 -209.5s-28.333 -155 -85 -211s-133.334 -84 -230.001 -84s-173.5 27.667 -230.5 83s-85.5 126 -85.5 212z" />
    <glyph glyph-name="plusminus" unicode="&#xb1;" horiz-adv-x="956" 
d="M102 147h752v-147h-752v147zM563 621v-295h-170v295h-291v147h291v285h170v-285h291v-147h-291z" />
    <glyph glyph-name="uni00B2" unicode="&#xb2;" horiz-adv-x="924" 
d="M155 795c14 10.667 44.4971 31.502 91.4971 62.502s89 60 126 87s76.333 58.667 118 95s74.334 73.666 98.001 111.999s35.5 75.166 35.5 110.499c0 50 -17.167 93.833 -51.5 131.5s-74.5 56.5 -120.5 56.5c-65.333 0 -118.666 -23.667 -159.999 -71
c18.667 -6 35.334 -16.833 50.001 -32.5s22 -35.5 22 -59.5c0 -34 -10.667 -61 -32 -81s-49 -30 -83 -30c-40 0 -70.167 12 -90.5 36s-31.166 52.333 -32.499 85v4c0 62 34.667 116.667 104 164s152 71 248 71c92 0 164.833 -25.167 218.5 -75.5s80.5 -120.5 80.5 -210.5
c0 -38 -15.833 -80.833 -47.5 -128.5s-81.834 -96.5 -150.501 -146.5l-201 -147h395l27 -225l-51 -9l-70 111h-510c-8 60 -12.667 90 -14 90z" />
    <glyph glyph-name="uni00B3" unicode="&#xb3;" horiz-adv-x="814" 
d="M343 682c-60 0 -110.832 11.3301 -152.499 33.9971s-62.5 53.667 -62.5 93c0 26 7.16699 47.167 21.5 63.5s35.833 24.5 64.5 24.5c25.333 0 46 -7.66699 62 -23s24 -33.666 24 -54.999c0 -23.333 -5.33301 -42.333 -16 -57c22.667 -4 43 -6 61 -6
c62.667 0 113.5 18.333 152.5 55s58.5 81 58.5 133c0 16.667 -1.16699 31.834 -3.5 45.501s-7 27.5 -14 41.5s-16.167 25.833 -27.5 35.5s-26.666 17.667 -45.999 24s-42 9.5 -68 9.5c-18 0 -38.667 -2 -62 -6l-14 76c65.333 10 114.666 29 147.999 57s50 63.333 50 106
c0 40.667 -14.333 73.5 -43 98.5s-64 37.5 -106 37.5c-52.667 0 -101 -20 -145 -60c22 -4 41 -12.667 57 -26s24 -33.333 24 -60c0 -25.333 -9.33301 -46.666 -28 -63.999s-41.334 -26 -68.001 -26c-32 0 -56.333 10.333 -73 31s-25 45 -25 73c0 50 26.667 95.667 80 137
s117.333 62 192 62c82.667 0 145.667 -19.167 189 -57.5s65 -83.833 65 -136.5c0 -43.333 -16.5 -81.833 -49.5 -115.5s-78.5 -56.167 -136.5 -67.5c82 0 144.5 -20 187.5 -60s64.5 -90.333 64.5 -151c0 -76 -33.333 -139.333 -100 -190s-153.667 -76 -261 -76z" />
    <glyph glyph-name="acute" unicode="&#xb4;" horiz-adv-x="1269" 
d="M971 1458c-29.333 -30 -89.667 -67 -181 -111s-175.333 -80.333 -252 -109l-114 -44l-29 39c54 46 120.5 99.333 199.5 160l197.5 147l78 57z" />
    <glyph glyph-name="paragraph" unicode="&#xb6;" horiz-adv-x="1210" 
d="M797 735l-0.000976562 -791.999h-170v792h-62c-68 0 -129.167 10.5 -183.5 31.5s-98.166 49.167 -131.499 84.5s-58.833 74.833 -76.5 118.5s-26.5 89.167 -26.5 136.5s8.83301 93 26.5 137s43 83.667 76 119s75.833 63.666 128.5 84.999s111.667 32 177 32h551v-1536
h-164v792h-145z" />
    <glyph glyph-name="periodcentered" unicode="&#xb7;" horiz-adv-x="669" 
d="M186 924c0 41.333 14.5 76.5 43.5 105.5s63.833 43.5 104.5 43.5c40 0 74.833 -14.667 104.5 -44s44.5 -64.333 44.5 -105c0 -40 -14.833 -74.667 -44.5 -104s-64.5 -44 -104.5 -44c-40.667 0 -75.5 14.667 -104.5 44s-43.5 64 -43.5 104z" />
    <glyph glyph-name="cedilla" unicode="&#xb8;" horiz-adv-x="337" 
d="M307 -276c0 -24 -9.33398 -46.1689 -28.001 -66.502s-41.167 -36.5 -67.5 -48.5s-52.666 -22.167 -78.999 -30.5s-48.833 -14.166 -67.5 -17.499l-28 -5l-29 71c38.667 6.66699 72.667 16 102 28s44 24.667 44 38c0 14 -15.833 36.5 -47.5 67.5s-47.5 54.833 -47.5 71.5
c0 38.667 20.5 76.334 61.5 113.001s90.167 55 147.5 55h39v-276z" />
    <glyph glyph-name="uni00B9" unicode="&#xb9;" horiz-adv-x="680" 
d="M143 725v86h133v575l-133 -35v107l279 78v-725h125v-86h-404z" />
    <glyph glyph-name="ordmasculine" unicode="&#xba;" horiz-adv-x="1177" 
d="M589 1434c-56 0 -103.168 -17.502 -141.501 -52.502s-66 -81.167 -83 -138.5s-25.5 -124 -25.5 -200c0 -110 22.5 -198 67.5 -264s106.5 -99 184.5 -99c76.667 0 136.834 33.333 180.501 100s65.5 154.334 65.5 263.001c0 76.667 -8.16699 143.334 -24.5 200.001
s-43.5 102.667 -81.5 138s-85.333 53 -142 53zM590.999 571.998c-137.333 0 -246.332 45.334 -326.999 136.001s-121 205.667 -121 345c0 91.333 17.333 173.166 52 245.499s86.167 130 154.5 173s148.166 64.5 239.499 64.5c136.667 0 244.834 -45.5 324.501 -136.5
s119.5 -206.5 119.5 -346.5c0 -90.667 -17.167 -172 -51.5 -244s-85.333 -129.5 -153 -172.5s-146.834 -64.5 -237.501 -64.5z" />
    <glyph glyph-name="guillemotright" unicode="&#xbb;" horiz-adv-x="966" 
d="M502 258v227l240 187l-240 174v215l387 -330v-135zM84 258v227l240 187l-240 174v215l387 -330v-135z" />
    <glyph glyph-name="questiondown" unicode="&#xbf;" horiz-adv-x="1009" 
d="M516 1103l65.999 -0.000976562c0 -69.333 -9.83301 -134 -29.5 -194s-43.334 -111.333 -71.001 -154l-83.5 -124c-28 -40 -51.833 -83.333 -71.5 -130s-29.5 -95 -29.5 -145c0 -46 7 -87.333 21 -124s32.833 -66 56.5 -88s49.834 -38.667 78.501 -50s58.667 -17 90 -17
c45.333 0 87.5 11.5 126.5 34.5s67.833 55.167 86.5 96.5c-12 0 -24.167 1.16699 -36.5 3.5s-25.5 6.5 -39.5 12.5s-26.167 13.667 -36.5 23s-19 21.833 -26 37.5s-10.5 33.167 -10.5 52.5c0 43.333 13.5 78.833 40.5 106.5s61.833 41.5 104.5 41.5c52 0 94 -16.5 126 -49.5
s48 -69.167 48 -108.5c0 -73.333 -21 -137.333 -63 -192s-96.333 -95.334 -163 -122.001s-140 -40 -220 -40c-30 0 -61.5 3.66699 -94.5 11s-68 21 -105 41s-69.833 44.833 -98.5 74.5s-52.5 69.334 -71.5 119.001s-28.5 105.5 -28.5 167.5c0 65.333 12.333 126.333 37 183
s55.834 106.334 93.501 149.001s76.167 83.167 115.5 121.5s77 80.333 113 126s61 91.5 75 137.5zM552.999 1529c40.667 0 75.5 -14.5 104.5 -43.5s43.5 -63.5 43.5 -103.5c0 -41.333 -14.5 -76.5 -43.5 -105.5s-63.833 -43.5 -104.5 -43.5c-40 0 -74.833 14.667 -104.5 44
s-44.5 64.333 -44.5 105c0 40 14.833 74.5 44.5 103.5s64.5 43.5 104.5 43.5z" />
    <glyph glyph-name="Agrave" unicode="&#xc0;" horiz-adv-x="1662" 
d="M635 143v-143h-627v143h180l527 1362h237l535 -1362h168v-143h-647v143h223l-139 361h-578l-131 -361h252zM1042 631l-247 678l-234 -678h481zM545 1902l101.001 139.001c195.333 -138.667 353.666 -260 474.999 -364l-29 -39l-49 18.5
c-20.667 7.66699 -58.5 22.667 -113.5 45s-105.167 43.666 -150.5 63.999s-91 43.333 -137 69s-78.333 48.167 -97 67.5z" />
    <glyph glyph-name="Aacute" unicode="&#xc1;" horiz-adv-x="1662" 
d="M635 143v-143h-627v143h180l527 1362h237l535 -1362h168v-143h-647v143h223l-139 361h-578l-131 -361h252zM1042 631l-247 678l-234 -678h481zM1121 1902c-29.333 -30 -89.667 -67 -181 -111s-175.333 -80.333 -252 -109l-114 -44l-29 39c54 46 120.5 99.333 199.5 160
l197.5 147l78 57z" />
    <glyph glyph-name="Acircumflex" unicode="&#xc2;" horiz-adv-x="1662" 
d="M830 1911c-23.333 -20.667 -53.833 -53.5 -91.5 -98.5l-96.5 -119.5l-39 -51l-99 92l326 351l328 -357l-99 -90c-100.667 135.333 -177 226.333 -229 273zM635 143v-143h-627v143h180l527 1362h237l535 -1362h168v-143h-647v143h223l-139 361h-578l-131 -361h252z
M1042 631l-247 678l-234 -678h481z" />
    <glyph glyph-name="Atilde" unicode="&#xc3;" horiz-adv-x="1662" 
d="M999 1732c-27.333 0 -81.666 -15.667 -162.999 -47s-141 -47 -179 -47c-61.333 0 -104.666 18.333 -129.999 55s-38 99.334 -38 188.001h88c0 -34 6.33301 -57.833 19 -71.5s35.667 -20.5 69 -20.5c27.333 0 81.666 15.667 162.999 47s141 47 179 47
c61.333 0 104.666 -18.333 129.999 -55s38 -99.334 38 -188.001h-88c0 34 -6.33301 57.833 -19 71.5s-35.667 20.5 -69 20.5zM635 143v-143h-627v143h180l527 1362h237l535 -1362h168v-143h-647v143h223l-139 361h-578l-131 -361h252zM1042 631l-247 678l-234 -678h481z" />
    <glyph glyph-name="Adieresis" unicode="&#xc4;" horiz-adv-x="1662" 
d="M456 1775c0 38 13.333 70.667 40 98s59 41 97 41c37.333 0 69.5 -13.667 96.5 -41s40.5 -60 40.5 -98c0 -36.667 -13.667 -68.667 -41 -96s-59.333 -41 -96 -41c-38 0 -70.333 13.5 -97 40.5s-40 59.167 -40 96.5zM931 1775c0 38 13.333 70.667 40 98s59 41 97 41
c37.333 0 70 -13.667 98 -41s42 -60 42 -98c0 -36.667 -14 -68.667 -42 -96s-60.667 -41 -98 -41c-38 0 -70.333 13.5 -97 40.5s-40 59.167 -40 96.5zM635 143v-143h-627v143h180l527 1362h237l535 -1362h168v-143h-647v143h223l-139 361h-578l-131 -361h252zM1042 631
l-247 678l-234 -678h481z" />
    <glyph glyph-name="Aring" unicode="&#xc5;" horiz-adv-x="1662" 
d="M833 1834c-30 0 -56.333 -11.333 -79 -34s-34 -53.667 -34 -93s11 -70 33 -92s48 -33 78 -33s56.333 11.167 79 33.5s34 52.833 34 91.5c0 39.333 -11 70.333 -33 93s-48 34 -78 34zM632 1707c0 52.667 17.999 96.1689 53.999 130.502s85 51.5 147 51.5
c60.667 0 109 -17.167 145 -51.5s54 -77.833 54 -130.5s-18 -96.334 -54 -131.001s-84.333 -52 -145 -52c-61.333 0 -110.166 17.167 -146.499 51.5s-54.5 78.166 -54.5 131.499zM634.999 143.002v-143h-627v143h180l527 1362h237l535 -1362h168v-143h-647v143h223l-139 361
h-578l-131 -361h252zM1042 631.002l-247 678l-234 -678h481z" />
    <glyph glyph-name="AE" unicode="&#xc6;" horiz-adv-x="2164" 
d="M618 137v-137h-618v137h180l694 1198h-266v144h1465v-580h-181v436h-616v-522h291v225h133v-614h-133v274h-291v-561h616v434h181v-571h-1199v137h185v367h-461l-197 -367h217zM668 631h391v704z" />
    <glyph glyph-name="Ccedilla" unicode="&#xc7;" horiz-adv-x="1447" 
d="M832 -288c0 -24 -9.33398 -46.1689 -28.001 -66.502s-41.167 -36.5 -67.5 -48.5s-52.666 -22.167 -78.999 -30.5s-48.833 -14.166 -67.5 -17.499l-28 -5l-29 71c38.667 6.66699 72.667 16 102 28s44 24.667 44 38c0 14 -15.833 36.5 -47.5 67.5s-47.5 54.833 -47.5 71.5
c0 38.667 20.5 76.334 61.5 113.001s90.167 55 147.5 55h39v-276zM816.999 1536c91.333 0 178.998 -19.1719 262.998 -57.5049s153.333 -93.5 208 -165.5s82 -152 82 -240c0 -45.333 -17.833 -87 -53.5 -125s-83.167 -57 -142.5 -57c-50.667 0 -91.667 14.833 -123 44.5
s-47 70.167 -47 121.5s19.667 90.833 59 118.5s79 41.5 119 41.5c-32.667 50 -81 92.333 -145 127s-138 52 -222 52c-136 0 -247.833 -57.333 -335.5 -172s-131.5 -268 -131.5 -460c0 -73.333 11.667 -145.666 35 -216.999s56 -136.166 98 -194.499
s95.833 -105.333 161.5 -141s137.5 -53.5 215.5 -53.5c58.667 0 113.834 11 165.501 33s95.167 50.833 130.5 86.5s65 74.334 89 116.001s41.667 84.5 53 128.5l134 -65c-35.333 -154 -107 -273.167 -215 -357.5s-248 -126.5 -420 -126.5
c-103.333 0 -199.666 21.333 -288.999 64s-164.666 100 -225.999 172s-109.333 156.5 -144 253.5s-52 198.833 -52 305.5c0 110 17.667 212.333 53 307s84.666 175.834 147.999 243.501s140.833 120.834 232.5 159.501s191.5 58 299.5 58z" />
    <glyph glyph-name="Egrave" unicode="&#xc8;" horiz-adv-x="1484" 
d="M33 0v143h246v1219h-246v143h1360v-579h-181v436h-698v-541h373v246h133v-621h-133v261h-373v-564h698v428h181v-571h-1360zM425 1902l101.001 139.001c195.333 -138.667 353.666 -260 474.999 -364l-29 -39l-49 18.5c-20.667 7.66699 -58.5 22.667 -113.5 45
s-105.167 43.666 -150.5 63.999s-91 43.333 -137 69s-78.333 48.167 -97 67.5z" />
    <glyph glyph-name="Eacute" unicode="&#xc9;" horiz-adv-x="1484" 
d="M33 0v143h246v1219h-246v143h1360v-579h-181v436h-698v-541h373v246h133v-621h-133v261h-373v-564h698v428h181v-571h-1360zM1001 1902c-29.333 -30 -89.667 -67 -181 -111s-175.333 -80.333 -252 -109l-114 -44l-29 39c54 46 120.5 99.333 199.5 160l197.5 147l78 57z
" />
    <glyph glyph-name="Ecircumflex" unicode="&#xca;" horiz-adv-x="1484" 
d="M712 1911c-23.333 -20.667 -53.833 -53.5 -91.5 -98.5l-96.5 -119.5l-39 -51l-99 92l326 351l328 -357l-99 -90c-100.667 135.333 -177 226.333 -229 273zM33 0v143h246v1219h-246v143h1360v-579h-181v436h-698v-541h373v246h133v-621h-133v261h-373v-564h698v428h181
v-571h-1360z" />
    <glyph glyph-name="Edieresis" unicode="&#xcb;" horiz-adv-x="1484" 
d="M403 1775c0 38 13.333 70.667 40 98s59 41 97 41c37.333 0 69.5 -13.667 96.5 -41s40.5 -60 40.5 -98c0 -36.667 -13.667 -68.667 -41 -96s-59.333 -41 -96 -41c-38 0 -70.333 13.5 -97 40.5s-40 59.167 -40 96.5zM878 1775c0 38 13.333 70.667 40 98s59 41 97 41
c37.333 0 70 -13.667 98 -41s42 -60 42 -98c0 -36.667 -14 -68.667 -42 -96s-60.667 -41 -98 -41c-38 0 -70.333 13.5 -97 40.5s-40 59.167 -40 96.5zM33 0v143h246v1219h-246v143h1360v-579h-181v436h-698v-541h373v246h133v-621h-133v261h-373v-564h698v428h181v-571
h-1360z" />
    <glyph glyph-name="Igrave" unicode="&#xcc;" horiz-adv-x="769" 
d="M509 143h230v-143h-709v143h244v1219h-244v143h709v-143h-230v-1219zM96 1902l101.001 139.001c195.333 -138.667 353.666 -260 474.999 -364l-29 -39l-49 18.5c-20.667 7.66699 -58.5 22.667 -113.5 45s-105.167 43.666 -150.5 63.999s-91 43.333 -137 69
s-78.333 48.167 -97 67.5z" />
    <glyph glyph-name="Iacute" unicode="&#xcd;" horiz-adv-x="769" 
d="M509 143h230v-143h-709v143h244v1219h-244v143h709v-143h-230v-1219zM672 1902c-29.333 -30 -89.667 -67 -181 -111s-175.333 -80.333 -252 -109l-114 -44l-29 39c54 46 120.5 99.333 199.5 160l197.5 147l78 57z" />
    <glyph glyph-name="Icircumflex" unicode="&#xce;" horiz-adv-x="769" 
d="M383 1911c-23.333 -20.667 -53.833 -53.5 -91.5 -98.5l-96.5 -119.5l-39 -51l-99 92l326 351l328 -357l-99 -90c-100.667 135.333 -177 226.333 -229 273zM509 143h230v-143h-709v143h244v1219h-244v143h709v-143h-230v-1219z" />
    <glyph glyph-name="Idieresis" unicode="&#xcf;" horiz-adv-x="769" 
d="M9 1775c0 38 13.333 70.667 40 98s59 41 97 41c37.333 0 69.5 -13.667 96.5 -41s40.5 -60 40.5 -98c0 -36.667 -13.667 -68.667 -41 -96s-59.333 -41 -96 -41c-38 0 -70.333 13.5 -97 40.5s-40 59.167 -40 96.5zM484 1775c0 38 13.333 70.667 40 98s59 41 97 41
c37.333 0 70 -13.667 98 -41s42 -60 42 -98c0 -36.667 -14 -68.667 -42 -96s-60.667 -41 -98 -41c-38 0 -70.333 13.5 -97 40.5s-40 59.167 -40 96.5zM509 143h230v-143h-709v143h244v1219h-244v143h709v-143h-230v-1219z" />
    <glyph glyph-name="Eth" unicode="&#xd0;" horiz-adv-x="1613" 
d="M33 1362l0.000976562 143.001h452c108 0 208.167 -6.83301 300.5 -20.5s182.5 -38 270.5 -73s162.833 -79.833 224.5 -134.5s111.167 -125.834 148.5 -213.501s56 -188.167 56 -301.5c0 -106.667 -15.333 -202.5 -46 -287.5s-73.834 -156.833 -129.501 -215.5
s-123.667 -107.5 -204 -146.5s-168.833 -67.5 -265.5 -85.5s-202.667 -27 -318 -27h-489v137h243v553h-221v144h221v528h-243zM512.001 137.001c84 0 160.17 5.83203 228.503 17.499s133.5 32.334 195.5 62.001s114 67.667 156 114s75.333 106 100 179s37 157.167 37 252.5
c0 70.667 -6.83301 134.834 -20.5 192.501s-32.334 107 -56.001 148s-53.334 77 -89.001 108s-73.334 55.833 -113.001 74.5s-84.5 33.667 -134.5 45s-99 19.166 -147 23.499s-100.333 6.5 -157 6.5v-526h252v-144h-252v-553z" />
    <glyph glyph-name="Ntilde" unicode="&#xd1;" horiz-adv-x="1720" 
d="M1035 1732c-27.333 0 -81.666 -15.667 -162.999 -47s-141 -47 -179 -47c-61.333 0 -104.666 18.333 -129.999 55s-38 99.334 -38 188.001h88c0 -34 6.33301 -57.833 19 -71.5s35.667 -20.5 69 -20.5c27.333 0 81.666 15.667 162.999 47s141 47 179 47
c61.333 0 104.666 -18.333 129.999 -55s38 -99.334 38 -188.001h-88c0 34 -6.33301 57.833 -19 71.5s-35.667 20.5 -69 20.5zM694 143v-143h-661v143h241v1219h-241v143h540l711 -1239v1096h-244v143h664v-143h-229v-1362h-267l-743 1292v-1149h229z" />
    <glyph glyph-name="Ograve" unicode="&#xd2;" horiz-adv-x="1589" 
d="M84 754c0 78 9.16699 154.167 27.5 228.5s46.833 145 85.5 212s85.5 125.833 140.5 176.5s121.833 90.834 200.5 120.501s164.334 44.5 257.001 44.5s178.167 -14.833 256.5 -44.5s145 -69.834 200 -120.501s101.833 -109.5 140.5 -176.5s67.167 -137.667 85.5 -212
s27.5 -150.5 27.5 -228.5s-9.16699 -154.333 -27.5 -229s-46.833 -145.5 -85.5 -212.5s-85.5 -125.5 -140.5 -175.5s-121.667 -89.833 -200 -119.5s-163.833 -44.5 -256.5 -44.5s-178.334 14.833 -257.001 44.5s-145.5 69.5 -200.5 119.5s-101.833 108.5 -140.5 175.5
s-67.167 137.833 -85.5 212.5s-27.5 151 -27.5 229zM340 756c0 -65.333 6.16504 -128.999 18.498 -190.999s31.333 -120.333 57 -175s56.167 -102.667 91.5 -144s77.833 -73.833 127.5 -97.5s103.167 -35.5 160.5 -35.5c71.333 0 136.333 18.167 195 54.5
s106.5 84.666 143.5 144.999s65.5 128.333 85.5 204s30 154.167 30 235.5c0 64 -6.16699 127 -18.5 189s-31.166 120.333 -56.499 175s-55.833 102.834 -91.5 144.501s-78.167 74.667 -127.5 99s-102.666 36.5 -159.999 36.5c-71.333 0 -136.333 -18.167 -195 -54.5
s-106.667 -84.833 -144 -145.5s-66 -128.834 -86 -204.501s-30 -154.167 -30 -235.5zM506.998 1902l101.001 139.001c195.333 -138.667 353.666 -260 474.999 -364l-29 -39l-49 18.5c-20.667 7.66699 -58.5 22.667 -113.5 45s-105.167 43.666 -150.5 63.999
s-91 43.333 -137 69s-78.333 48.167 -97 67.5z" />
    <glyph glyph-name="Oacute" unicode="&#xd3;" horiz-adv-x="1589" 
d="M84 754c0 78 9.16699 154.167 27.5 228.5s46.833 145 85.5 212s85.5 125.833 140.5 176.5s121.833 90.834 200.5 120.501s164.334 44.5 257.001 44.5s178.167 -14.833 256.5 -44.5s145 -69.834 200 -120.501s101.833 -109.5 140.5 -176.5s67.167 -137.667 85.5 -212
s27.5 -150.5 27.5 -228.5s-9.16699 -154.333 -27.5 -229s-46.833 -145.5 -85.5 -212.5s-85.5 -125.5 -140.5 -175.5s-121.667 -89.833 -200 -119.5s-163.833 -44.5 -256.5 -44.5s-178.334 14.833 -257.001 44.5s-145.5 69.5 -200.5 119.5s-101.833 108.5 -140.5 175.5
s-67.167 137.833 -85.5 212.5s-27.5 151 -27.5 229zM340 756c0 -65.333 6.16504 -128.999 18.498 -190.999s31.333 -120.333 57 -175s56.167 -102.667 91.5 -144s77.833 -73.833 127.5 -97.5s103.167 -35.5 160.5 -35.5c71.333 0 136.333 18.167 195 54.5
s106.5 84.666 143.5 144.999s65.5 128.333 85.5 204s30 154.167 30 235.5c0 64 -6.16699 127 -18.5 189s-31.166 120.333 -56.499 175s-55.833 102.834 -91.5 144.501s-78.167 74.667 -127.5 99s-102.666 36.5 -159.999 36.5c-71.333 0 -136.333 -18.167 -195 -54.5
s-106.667 -84.833 -144 -145.5s-66 -128.834 -86 -204.501s-30 -154.167 -30 -235.5zM1083 1902c-29.333 -30 -89.667 -67 -181 -111s-175.333 -80.333 -252 -109l-114 -44l-29 39c54 46 120.5 99.333 199.5 160l197.5 147l78 57z" />
    <glyph glyph-name="Ocircumflex" unicode="&#xd4;" horiz-adv-x="1589" 
d="M794 1911c-23.333 -20.667 -53.833 -53.5 -91.5 -98.5l-96.5 -119.5l-39 -51l-99 92l326 351l328 -357l-99 -90c-100.667 135.333 -177 226.333 -229 273zM84 754c0 78 9.16699 154.167 27.5 228.5s46.833 145 85.5 212s85.5 125.833 140.5 176.5
s121.833 90.834 200.5 120.501s164.334 44.5 257.001 44.5s178.167 -14.833 256.5 -44.5s145 -69.834 200 -120.501s101.833 -109.5 140.5 -176.5s67.167 -137.667 85.5 -212s27.5 -150.5 27.5 -228.5s-9.16699 -154.333 -27.5 -229s-46.833 -145.5 -85.5 -212.5
s-85.5 -125.5 -140.5 -175.5s-121.667 -89.833 -200 -119.5s-163.833 -44.5 -256.5 -44.5s-178.334 14.833 -257.001 44.5s-145.5 69.5 -200.5 119.5s-101.833 108.5 -140.5 175.5s-67.167 137.833 -85.5 212.5s-27.5 151 -27.5 229zM340 756
c0 -65.333 6.16504 -128.999 18.498 -190.999s31.333 -120.333 57 -175s56.167 -102.667 91.5 -144s77.833 -73.833 127.5 -97.5s103.167 -35.5 160.5 -35.5c71.333 0 136.333 18.167 195 54.5s106.5 84.666 143.5 144.999s65.5 128.333 85.5 204s30 154.167 30 235.5
c0 64 -6.16699 127 -18.5 189s-31.166 120.333 -56.499 175s-55.833 102.834 -91.5 144.501s-78.167 74.667 -127.5 99s-102.666 36.5 -159.999 36.5c-71.333 0 -136.333 -18.167 -195 -54.5s-106.667 -84.833 -144 -145.5s-66 -128.834 -86 -204.501
s-30 -154.167 -30 -235.5z" />
    <glyph glyph-name="Otilde" unicode="&#xd5;" horiz-adv-x="1589" 
d="M961 1732c-27.333 0 -81.666 -15.667 -162.999 -47s-141 -47 -179 -47c-61.333 0 -104.666 18.333 -129.999 55s-38 99.334 -38 188.001h88c0 -34 6.33301 -57.833 19 -71.5s35.667 -20.5 69 -20.5c27.333 0 81.666 15.667 162.999 47s141 47 179 47
c61.333 0 104.666 -18.333 129.999 -55s38 -99.334 38 -188.001h-88c0 34 -6.33301 57.833 -19 71.5s-35.667 20.5 -69 20.5zM84 754c0 78 9.16699 154.167 27.5 228.5s46.833 145 85.5 212s85.5 125.833 140.5 176.5s121.833 90.834 200.5 120.501
s164.334 44.5 257.001 44.5s178.167 -14.833 256.5 -44.5s145 -69.834 200 -120.501s101.833 -109.5 140.5 -176.5s67.167 -137.667 85.5 -212s27.5 -150.5 27.5 -228.5s-9.16699 -154.333 -27.5 -229s-46.833 -145.5 -85.5 -212.5s-85.5 -125.5 -140.5 -175.5
s-121.667 -89.833 -200 -119.5s-163.833 -44.5 -256.5 -44.5s-178.334 14.833 -257.001 44.5s-145.5 69.5 -200.5 119.5s-101.833 108.5 -140.5 175.5s-67.167 137.833 -85.5 212.5s-27.5 151 -27.5 229zM340 756c0 -65.333 6.16504 -128.999 18.498 -190.999
s31.333 -120.333 57 -175s56.167 -102.667 91.5 -144s77.833 -73.833 127.5 -97.5s103.167 -35.5 160.5 -35.5c71.333 0 136.333 18.167 195 54.5s106.5 84.666 143.5 144.999s65.5 128.333 85.5 204s30 154.167 30 235.5c0 64 -6.16699 127 -18.5 189
s-31.166 120.333 -56.499 175s-55.833 102.834 -91.5 144.501s-78.167 74.667 -127.5 99s-102.666 36.5 -159.999 36.5c-71.333 0 -136.333 -18.167 -195 -54.5s-106.667 -84.833 -144 -145.5s-66 -128.834 -86 -204.501s-30 -154.167 -30 -235.5z" />
    <glyph glyph-name="Odieresis" unicode="&#xd6;" horiz-adv-x="1589" 
d="M418 1775c0 38 13.333 70.667 40 98s59 41 97 41c37.333 0 69.5 -13.667 96.5 -41s40.5 -60 40.5 -98c0 -36.667 -13.667 -68.667 -41 -96s-59.333 -41 -96 -41c-38 0 -70.333 13.5 -97 40.5s-40 59.167 -40 96.5zM893 1775c0 38 13.333 70.667 40 98s59 41 97 41
c37.333 0 70 -13.667 98 -41s42 -60 42 -98c0 -36.667 -14 -68.667 -42 -96s-60.667 -41 -98 -41c-38 0 -70.333 13.5 -97 40.5s-40 59.167 -40 96.5zM84 754c0 78 9.16699 154.167 27.5 228.5s46.833 145 85.5 212s85.5 125.833 140.5 176.5s121.833 90.834 200.5 120.501
s164.334 44.5 257.001 44.5s178.167 -14.833 256.5 -44.5s145 -69.834 200 -120.501s101.833 -109.5 140.5 -176.5s67.167 -137.667 85.5 -212s27.5 -150.5 27.5 -228.5s-9.16699 -154.333 -27.5 -229s-46.833 -145.5 -85.5 -212.5s-85.5 -125.5 -140.5 -175.5
s-121.667 -89.833 -200 -119.5s-163.833 -44.5 -256.5 -44.5s-178.334 14.833 -257.001 44.5s-145.5 69.5 -200.5 119.5s-101.833 108.5 -140.5 175.5s-67.167 137.833 -85.5 212.5s-27.5 151 -27.5 229zM340 756c0 -65.333 6.16504 -128.999 18.498 -190.999
s31.333 -120.333 57 -175s56.167 -102.667 91.5 -144s77.833 -73.833 127.5 -97.5s103.167 -35.5 160.5 -35.5c71.333 0 136.333 18.167 195 54.5s106.5 84.666 143.5 144.999s65.5 128.333 85.5 204s30 154.167 30 235.5c0 64 -6.16699 127 -18.5 189
s-31.166 120.333 -56.499 175s-55.833 102.834 -91.5 144.501s-78.167 74.667 -127.5 99s-102.666 36.5 -159.999 36.5c-71.333 0 -136.333 -18.167 -195 -54.5s-106.667 -84.833 -144 -145.5s-66 -128.834 -86 -204.501s-30 -154.167 -30 -235.5z" />
    <glyph glyph-name="multiply" unicode="&#xd7;" horiz-adv-x="956" 
d="M476 666l263 264l103 -101l-265 -264l265 -264l-103 -104l-264 265l-264 -263l-102 100l264 265l-264 265l100 103z" />
    <glyph glyph-name="Oslash" unicode="&#xd8;" horiz-adv-x="1589" 
d="M1137 1188c-86 140.667 -200 211.001 -342 211.001c-71.333 0 -136.333 -18.333 -195 -55s-106.667 -85.334 -144 -146.001s-66 -129.167 -86 -205.5s-30 -155.166 -30 -236.499c0 -152.667 30.667 -286.334 92 -401.001zM1179 1107l-700 -826.999
c82.667 -111.333 188 -167 316 -167c71.333 0 136.333 18.167 195 54.5s106.5 84.666 143.5 144.999s65.5 128.333 85.5 204s30 154.167 30 235.5c0 128 -23.333 246.333 -70 355zM1432 1536l64.998 -53l-166 -197c57.333 -72 100.666 -154.167 129.999 -246.5
s44 -187.5 44 -285.5c0 -78 -9.16699 -154.333 -27.5 -229s-46.833 -145.5 -85.5 -212.5s-85.5 -125.5 -140.5 -175.5s-121.667 -89.833 -200 -119.5s-163.833 -44.5 -256.5 -44.5c-175.333 0 -323.666 51.333 -444.999 154l-184 -217l-66 53l189 223
c-66.667 73.333 -117.5 159.666 -152.5 258.999s-52.5 202.333 -52.5 309c0 78 9.16699 154.167 27.5 228.5s46.833 145 85.5 212s85.5 125.833 140.5 176.5s121.833 90.834 200.5 120.501s164.334 44.5 257.001 44.5c192.667 0 352.334 -62.333 479.001 -187z" />
    <glyph glyph-name="Ugrave" unicode="&#xd9;" horiz-adv-x="1603" 
d="M799 -27c-99.333 0 -185.832 13.5 -259.499 40.5s-132.167 65.333 -175.5 115s-75.5 106.667 -96.5 171s-31.5 136.5 -31.5 216.5v846h-216v143h672v-143h-221v-860c0 -259.333 116.667 -389 350 -389c114 0 200.833 33 260.5 99s89.5 164.667 89.5 296v854h-227v143h639
v-143h-209v-815c0 -68.667 -5.33301 -130.5 -16 -185.5s-29.334 -107.333 -56.001 -157s-61.5 -91 -104.5 -124s-98 -59.167 -165 -78.5s-144.833 -29 -233.5 -29zM513.001 1902l101.001 139.001c195.333 -138.667 353.666 -260 474.999 -364l-29 -39l-49 18.5
c-20.667 7.66699 -58.5 22.667 -113.5 45s-105.167 43.666 -150.5 63.999s-91 43.333 -137 69s-78.333 48.167 -97 67.5z" />
    <glyph glyph-name="Uacute" unicode="&#xda;" horiz-adv-x="1603" 
d="M799 -27c-99.333 0 -185.832 13.5 -259.499 40.5s-132.167 65.333 -175.5 115s-75.5 106.667 -96.5 171s-31.5 136.5 -31.5 216.5v846h-216v143h672v-143h-221v-860c0 -259.333 116.667 -389 350 -389c114 0 200.833 33 260.5 99s89.5 164.667 89.5 296v854h-227v143h639
v-143h-209v-815c0 -68.667 -5.33301 -130.5 -16 -185.5s-29.334 -107.333 -56.001 -157s-61.5 -91 -104.5 -124s-98 -59.167 -165 -78.5s-144.833 -29 -233.5 -29zM1089 1902c-29.333 -30 -89.667 -67 -181 -111s-175.333 -80.333 -252 -109l-114 -44l-29 39
c54 46 120.5 99.333 199.5 160l197.5 147l78 57z" />
    <glyph glyph-name="Ucircumflex" unicode="&#xdb;" horiz-adv-x="1603" 
d="M800 1911c-23.333 -20.667 -53.833 -53.5 -91.5 -98.5l-96.5 -119.5l-39 -51l-99 92l326 351l328 -357l-99 -90c-100.667 135.333 -177 226.333 -229 273zM799 -27c-99.333 0 -185.832 13.5 -259.499 40.5s-132.167 65.333 -175.5 115s-75.5 106.667 -96.5 171
s-31.5 136.5 -31.5 216.5v846h-216v143h672v-143h-221v-860c0 -259.333 116.667 -389 350 -389c114 0 200.833 33 260.5 99s89.5 164.667 89.5 296v854h-227v143h639v-143h-209v-815c0 -68.667 -5.33301 -130.5 -16 -185.5s-29.334 -107.333 -56.001 -157
s-61.5 -91 -104.5 -124s-98 -59.167 -165 -78.5s-144.833 -29 -233.5 -29z" />
    <glyph glyph-name="Udieresis" unicode="&#xdc;" horiz-adv-x="1603" 
d="M426 1775c0 38 13.333 70.667 40 98s59 41 97 41c37.333 0 69.5 -13.667 96.5 -41s40.5 -60 40.5 -98c0 -36.667 -13.667 -68.667 -41 -96s-59.333 -41 -96 -41c-38 0 -70.333 13.5 -97 40.5s-40 59.167 -40 96.5zM901 1775c0 38 13.333 70.667 40 98s59 41 97 41
c37.333 0 70 -13.667 98 -41s42 -60 42 -98c0 -36.667 -14 -68.667 -42 -96s-60.667 -41 -98 -41c-38 0 -70.333 13.5 -97 40.5s-40 59.167 -40 96.5zM799 -27c-99.333 0 -185.832 13.5 -259.499 40.5s-132.167 65.333 -175.5 115s-75.5 106.667 -96.5 171
s-31.5 136.5 -31.5 216.5v846h-216v143h672v-143h-221v-860c0 -259.333 116.667 -389 350 -389c114 0 200.833 33 260.5 99s89.5 164.667 89.5 296v854h-227v143h639v-143h-209v-815c0 -68.667 -5.33301 -130.5 -16 -185.5s-29.334 -107.333 -56.001 -157
s-61.5 -91 -104.5 -124s-98 -59.167 -165 -78.5s-144.833 -29 -233.5 -29z" />
    <glyph glyph-name="Yacute" unicode="&#xdd;" horiz-adv-x="1554" 
d="M659 595l-432 767h-204v143h669v-143h-229l338 -621l348 621h-223v143h606v-143h-189l-448 -772v-447h229v-143h-708v143h243v452zM1065 1902c-29.333 -30 -89.667 -67 -181 -111s-175.333 -80.333 -252 -109l-114 -44l-29 39c54 46 120.5 99.333 199.5 160l197.5 147
l78 57z" />
    <glyph glyph-name="Thorn" unicode="&#xde;" horiz-adv-x="1382" 
d="M1110 766c0 36 -4.16797 67.835 -12.501 95.502s-19.333 50.5 -33 68.5s-31.834 33.333 -54.501 46s-45.667 22.167 -69 28.5s-51.666 11.166 -84.999 14.499s-64.666 5.33301 -93.999 6s-64 1 -104 1h-42h-67v-520h139c48 0 90.167 1.5 126.5 4.5s74 9.83301 113 20.5
s71 25.167 96 43.5s45.667 43.666 62 75.999s24.5 70.833 24.5 115.5zM798.999 0.00195312l-729.003 -0.000976562v137h243v1198h-243v144h708v-144h-229v-166h135c35.333 0 64.333 -0.166992 87 -0.5s53.834 -1.83301 93.501 -4.5s73 -6.16699 100 -10.5
s59 -11.166 96 -20.499s68 -20.5 93 -33.5s51 -29.5 78 -49.5s48.5 -42.833 64.5 -68.5s29.333 -56.167 40 -91.5s16 -74 16 -116c0 -54.667 -8 -103.167 -24 -145.5s-35.333 -77.333 -58 -105s-55 -51.167 -97 -70.5s-80 -33.833 -114 -43.5s-80.167 -17.167 -138.5 -22.5
s-105.666 -8.33301 -141.999 -9s-86.166 -1 -149.499 -1h-80v-240h250v-137z" />
    <glyph glyph-name="germandbls" unicode="&#xdf;" horiz-adv-x="1314" 
d="M430 981l-0.000976562 -981h-362v119h147v862c0 166.667 39.5 293 118.5 379s191.833 129 338.5 129c122.667 0 220.5 -29.667 293.5 -89s109.5 -149.333 109.5 -270c0 -44 -8.83301 -85.333 -26.5 -124s-39 -70.334 -64 -95.001s-50 -46.334 -75 -65.001l-64 -47
c-17.667 -12.667 -26.5 -22.334 -26.5 -29.001c0 -8.66699 10.5 -18.667 31.5 -30s47 -23.166 78 -35.499s64.833 -29.166 101.5 -50.499s70.5 -44.666 101.5 -69.999s57 -58.5 78 -99.5s31.5 -85.833 31.5 -134.5c0 -44.667 -8.5 -85.167 -25.5 -121.5
s-38.667 -66.5 -65 -90.5s-59.5 -44.833 -99.5 -62.5s-79.167 -31.167 -117.5 -40.5s-81.666 -16.833 -129.999 -22.5s-90.333 -9.16699 -126 -10.5s-74.5 -2 -116.5 -2v119c161.333 0 279.166 18.667 353.499 56s111.5 95 111.5 173c0 36 -7.33301 68.5 -22 97.5
s-33.667 53.333 -57 73s-49.333 37.667 -78 54s-57.167 31.333 -85.5 45s-54.166 27.334 -77.499 41.001s-42.333 29.667 -57 48s-22 38.166 -22 59.499c0 25.333 6.5 50 19.5 74s29.333 44.5 49 61.5l63.5 55l63.5 55.5c19.667 17.333 36 38 49 62s19.5 49 19.5 75
c0 64.667 -19 115 -57 151s-89.333 54 -154 54c-84 0 -146.667 -32.5 -188 -97.5s-62 -156.833 -62 -275.5z" />
    <glyph glyph-name="agrave" unicode="&#xe0;" horiz-adv-x="1267" 
d="M291 229c0 -33.333 9.83398 -60.333 29.501 -81s48.834 -31 87.501 -31c44 0 89.5 13.167 136.5 39.5s85.833 59.5 116.5 99.5s46 78.333 46 115v213c-42.667 -42 -91.834 -79.667 -147.501 -113s-101.334 -58 -137.001 -74s-66.5 -38 -92.5 -66s-39 -62 -39 -102z
M1276 313c0 -66.667 -7.00488 -123.001 -21.0049 -169.001s-34.333 -81 -61 -105s-55.667 -41 -87 -51s-68 -15 -110 -15c-44.667 0 -86.334 8.66699 -125.001 26s-71.834 45.333 -99.501 84s-44.167 85.334 -49.5 140.001c-28.667 -72.667 -77.167 -132.5 -145.5 -179.5
s-142.166 -70.5 -221.499 -70.5c-82 0 -148.833 21.833 -200.5 65.5s-77.5 103.834 -77.5 180.501c0 40 9 76.5 27 109.5s41.833 60.5 71.5 82.5s63.334 43 101.001 63s76 37.167 115 51.5s77.333 30.166 115 47.499s71.334 34.666 101.001 51.999s53.5 38.5 71.5 63.5
s27 52.833 27 83.5c0 76 -18.667 132.5 -56 169.5s-89.666 55.5 -156.999 55.5c-47.333 0 -92.333 -7.5 -135 -22.5s-75.667 -35.5 -99 -61.5c42.667 0 76.5 -11.5 101.5 -34.5s37.5 -50.167 37.5 -81.5c0 -42 -13.667 -76.167 -41 -102.5s-60 -39.5 -98 -39.5
c-39.333 0 -73.666 13.833 -102.999 41.5s-44 67.834 -44 120.501c0 27.333 8.83301 56.833 26.5 88.5s43 62.5 76 92.5s77.833 54.833 134.5 74.5s119 29.5 187 29.5c54.667 0 104.334 -6.16699 149.001 -18.5s85.167 -32 121.5 -59s64.5 -64.333 84.5 -112
s30 -104.167 30 -169.5v-460c0 -26 3.16699 -50.833 9.5 -74.5s18.833 -45.167 37.5 -64.5s42.334 -29 71.001 -29c84.667 0 127 59.333 127 178v149h109v-129zM248.996 1468l101.001 139.001c195.333 -138.667 353.666 -260 474.999 -364l-29 -39l-49 18.5
c-20.667 7.66699 -58.5 22.667 -113.5 45s-105.167 43.666 -150.5 63.999s-91 43.333 -137 69s-78.333 48.167 -97 67.5z" />
    <glyph glyph-name="aacute" unicode="&#xe1;" horiz-adv-x="1267" 
d="M291 229c0 -33.333 9.83398 -60.333 29.501 -81s48.834 -31 87.501 -31c44 0 89.5 13.167 136.5 39.5s85.833 59.5 116.5 99.5s46 78.333 46 115v213c-42.667 -42 -91.834 -79.667 -147.501 -113s-101.334 -58 -137.001 -74s-66.5 -38 -92.5 -66s-39 -62 -39 -102z
M1276 313c0 -66.667 -7.00488 -123.001 -21.0049 -169.001s-34.333 -81 -61 -105s-55.667 -41 -87 -51s-68 -15 -110 -15c-44.667 0 -86.334 8.66699 -125.001 26s-71.834 45.333 -99.501 84s-44.167 85.334 -49.5 140.001c-28.667 -72.667 -77.167 -132.5 -145.5 -179.5
s-142.166 -70.5 -221.499 -70.5c-82 0 -148.833 21.833 -200.5 65.5s-77.5 103.834 -77.5 180.501c0 40 9 76.5 27 109.5s41.833 60.5 71.5 82.5s63.334 43 101.001 63s76 37.167 115 51.5s77.333 30.166 115 47.499s71.334 34.666 101.001 51.999s53.5 38.5 71.5 63.5
s27 52.833 27 83.5c0 76 -18.667 132.5 -56 169.5s-89.666 55.5 -156.999 55.5c-47.333 0 -92.333 -7.5 -135 -22.5s-75.667 -35.5 -99 -61.5c42.667 0 76.5 -11.5 101.5 -34.5s37.5 -50.167 37.5 -81.5c0 -42 -13.667 -76.167 -41 -102.5s-60 -39.5 -98 -39.5
c-39.333 0 -73.666 13.833 -102.999 41.5s-44 67.834 -44 120.501c0 27.333 8.83301 56.833 26.5 88.5s43 62.5 76 92.5s77.833 54.833 134.5 74.5s119 29.5 187 29.5c54.667 0 104.334 -6.16699 149.001 -18.5s85.167 -32 121.5 -59s64.5 -64.333 84.5 -112
s30 -104.167 30 -169.5v-460c0 -26 3.16699 -50.833 9.5 -74.5s18.833 -45.167 37.5 -64.5s42.334 -29 71.001 -29c84.667 0 127 59.333 127 178v149h109v-129zM824.996 1468c-29.333 -30 -89.667 -67 -181 -111s-175.333 -80.333 -252 -109l-114 -44l-29 39
c54 46 120.5 99.333 199.5 160l197.5 147l78 57z" />
    <glyph glyph-name="acircumflex" unicode="&#xe2;" horiz-adv-x="1267" 
d="M291 229c0 -33.333 9.83398 -60.333 29.501 -81s48.834 -31 87.501 -31c44 0 89.5 13.167 136.5 39.5s85.833 59.5 116.5 99.5s46 78.333 46 115v213c-42.667 -42 -91.834 -79.667 -147.501 -113s-101.334 -58 -137.001 -74s-66.5 -38 -92.5 -66s-39 -62 -39 -102z
M1276 313c0 -66.667 -7.00488 -123.001 -21.0049 -169.001s-34.333 -81 -61 -105s-55.667 -41 -87 -51s-68 -15 -110 -15c-44.667 0 -86.334 8.66699 -125.001 26s-71.834 45.333 -99.501 84s-44.167 85.334 -49.5 140.001c-28.667 -72.667 -77.167 -132.5 -145.5 -179.5
s-142.166 -70.5 -221.499 -70.5c-82 0 -148.833 21.833 -200.5 65.5s-77.5 103.834 -77.5 180.501c0 40 9 76.5 27 109.5s41.833 60.5 71.5 82.5s63.334 43 101.001 63s76 37.167 115 51.5s77.333 30.166 115 47.499s71.334 34.666 101.001 51.999s53.5 38.5 71.5 63.5
s27 52.833 27 83.5c0 76 -18.667 132.5 -56 169.5s-89.666 55.5 -156.999 55.5c-47.333 0 -92.333 -7.5 -135 -22.5s-75.667 -35.5 -99 -61.5c42.667 0 76.5 -11.5 101.5 -34.5s37.5 -50.167 37.5 -81.5c0 -42 -13.667 -76.167 -41 -102.5s-60 -39.5 -98 -39.5
c-39.333 0 -73.666 13.833 -102.999 41.5s-44 67.834 -44 120.501c0 27.333 8.83301 56.833 26.5 88.5s43 62.5 76 92.5s77.833 54.833 134.5 74.5s119 29.5 187 29.5c54.667 0 104.334 -6.16699 149.001 -18.5s85.167 -32 121.5 -59s64.5 -64.333 84.5 -112
s30 -104.167 30 -169.5v-460c0 -26 3.16699 -50.833 9.5 -74.5s18.833 -45.167 37.5 -64.5s42.334 -29 71.001 -29c84.667 0 127 59.333 127 178v149h109v-129zM535.996 1477c-23.333 -20.667 -53.833 -53.5 -91.5 -98.5l-96.5 -119.5l-39 -51l-99 92l326 351l328 -357
l-99 -90c-100.667 135.333 -177 226.333 -229 273z" />
    <glyph glyph-name="atilde" unicode="&#xe3;" horiz-adv-x="1267" 
d="M291 229c0 -33.333 9.83398 -60.333 29.501 -81s48.834 -31 87.501 -31c44 0 89.5 13.167 136.5 39.5s85.833 59.5 116.5 99.5s46 78.333 46 115v213c-42.667 -42 -91.834 -79.667 -147.501 -113s-101.334 -58 -137.001 -74s-66.5 -38 -92.5 -66s-39 -62 -39 -102z
M1276 313c0 -66.667 -7.00488 -123.001 -21.0049 -169.001s-34.333 -81 -61 -105s-55.667 -41 -87 -51s-68 -15 -110 -15c-44.667 0 -86.334 8.66699 -125.001 26s-71.834 45.333 -99.501 84s-44.167 85.334 -49.5 140.001c-28.667 -72.667 -77.167 -132.5 -145.5 -179.5
s-142.166 -70.5 -221.499 -70.5c-82 0 -148.833 21.833 -200.5 65.5s-77.5 103.834 -77.5 180.501c0 40 9 76.5 27 109.5s41.833 60.5 71.5 82.5s63.334 43 101.001 63s76 37.167 115 51.5s77.333 30.166 115 47.499s71.334 34.666 101.001 51.999s53.5 38.5 71.5 63.5
s27 52.833 27 83.5c0 76 -18.667 132.5 -56 169.5s-89.666 55.5 -156.999 55.5c-47.333 0 -92.333 -7.5 -135 -22.5s-75.667 -35.5 -99 -61.5c42.667 0 76.5 -11.5 101.5 -34.5s37.5 -50.167 37.5 -81.5c0 -42 -13.667 -76.167 -41 -102.5s-60 -39.5 -98 -39.5
c-39.333 0 -73.666 13.833 -102.999 41.5s-44 67.834 -44 120.501c0 27.333 8.83301 56.833 26.5 88.5s43 62.5 76 92.5s77.833 54.833 134.5 74.5s119 29.5 187 29.5c54.667 0 104.334 -6.16699 149.001 -18.5s85.167 -32 121.5 -59s64.5 -64.333 84.5 -112
s30 -104.167 30 -169.5v-460c0 -26 3.16699 -50.833 9.5 -74.5s18.833 -45.167 37.5 -64.5s42.334 -29 71.001 -29c84.667 0 127 59.333 127 178v149h109v-129zM703.996 1298c-27.333 0 -81.666 -15.667 -162.999 -47s-141 -47 -179 -47
c-61.333 0 -104.666 18.333 -129.999 55s-38 99.334 -38 188.001h88c0 -34 6.33301 -57.833 19 -71.5s35.667 -20.5 69 -20.5c27.333 0 81.666 15.667 162.999 47s141 47 179 47c61.333 0 104.666 -18.333 129.999 -55s38 -99.334 38 -188.001h-88
c0 34 -6.33301 57.833 -19 71.5s-35.667 20.5 -69 20.5z" />
    <glyph glyph-name="adieresis" unicode="&#xe4;" horiz-adv-x="1267" 
d="M291 229c0 -33.333 9.83398 -60.333 29.501 -81s48.834 -31 87.501 -31c44 0 89.5 13.167 136.5 39.5s85.833 59.5 116.5 99.5s46 78.333 46 115v213c-42.667 -42 -91.834 -79.667 -147.501 -113s-101.334 -58 -137.001 -74s-66.5 -38 -92.5 -66s-39 -62 -39 -102z
M1276 313c0 -66.667 -7.00488 -123.001 -21.0049 -169.001s-34.333 -81 -61 -105s-55.667 -41 -87 -51s-68 -15 -110 -15c-44.667 0 -86.334 8.66699 -125.001 26s-71.834 45.333 -99.501 84s-44.167 85.334 -49.5 140.001c-28.667 -72.667 -77.167 -132.5 -145.5 -179.5
s-142.166 -70.5 -221.499 -70.5c-82 0 -148.833 21.833 -200.5 65.5s-77.5 103.834 -77.5 180.501c0 40 9 76.5 27 109.5s41.833 60.5 71.5 82.5s63.334 43 101.001 63s76 37.167 115 51.5s77.333 30.166 115 47.499s71.334 34.666 101.001 51.999s53.5 38.5 71.5 63.5
s27 52.833 27 83.5c0 76 -18.667 132.5 -56 169.5s-89.666 55.5 -156.999 55.5c-47.333 0 -92.333 -7.5 -135 -22.5s-75.667 -35.5 -99 -61.5c42.667 0 76.5 -11.5 101.5 -34.5s37.5 -50.167 37.5 -81.5c0 -42 -13.667 -76.167 -41 -102.5s-60 -39.5 -98 -39.5
c-39.333 0 -73.666 13.833 -102.999 41.5s-44 67.834 -44 120.501c0 27.333 8.83301 56.833 26.5 88.5s43 62.5 76 92.5s77.833 54.833 134.5 74.5s119 29.5 187 29.5c54.667 0 104.334 -6.16699 149.001 -18.5s85.167 -32 121.5 -59s64.5 -64.333 84.5 -112
s30 -104.167 30 -169.5v-460c0 -26 3.16699 -50.833 9.5 -74.5s18.833 -45.167 37.5 -64.5s42.334 -29 71.001 -29c84.667 0 127 59.333 127 178v149h109v-129zM160.996 1341c0 38 13.333 70.667 40 98s59 41 97 41c37.333 0 69.5 -13.667 96.5 -41s40.5 -60 40.5 -98
c0 -36.667 -13.667 -68.667 -41 -96s-59.333 -41 -96 -41c-38 0 -70.333 13.5 -97 40.5s-40 59.167 -40 96.5zM635.996 1341c0 38 13.333 70.667 40 98s59 41 97 41c37.333 0 70 -13.667 98 -41s42 -60 42 -98c0 -36.667 -14 -68.667 -42 -96s-60.667 -41 -98 -41
c-38 0 -70.333 13.5 -97 40.5s-40 59.167 -40 96.5z" />
    <glyph glyph-name="aring" unicode="&#xe5;" horiz-adv-x="1267" 
d="M291 229c0 -33.333 9.83398 -60.333 29.501 -81s48.834 -31 87.501 -31c44 0 89.5 13.167 136.5 39.5s85.833 59.5 116.5 99.5s46 78.333 46 115v213c-42.667 -42 -91.834 -79.667 -147.501 -113s-101.334 -58 -137.001 -74s-66.5 -38 -92.5 -66s-39 -62 -39 -102z
M1276 313c0 -66.667 -7.00488 -123.001 -21.0049 -169.001s-34.333 -81 -61 -105s-55.667 -41 -87 -51s-68 -15 -110 -15c-44.667 0 -86.334 8.66699 -125.001 26s-71.834 45.333 -99.501 84s-44.167 85.334 -49.5 140.001c-28.667 -72.667 -77.167 -132.5 -145.5 -179.5
s-142.166 -70.5 -221.499 -70.5c-82 0 -148.833 21.833 -200.5 65.5s-77.5 103.834 -77.5 180.501c0 40 9 76.5 27 109.5s41.833 60.5 71.5 82.5s63.334 43 101.001 63s76 37.167 115 51.5s77.333 30.166 115 47.499s71.334 34.666 101.001 51.999s53.5 38.5 71.5 63.5
s27 52.833 27 83.5c0 76 -18.667 132.5 -56 169.5s-89.666 55.5 -156.999 55.5c-47.333 0 -92.333 -7.5 -135 -22.5s-75.667 -35.5 -99 -61.5c42.667 0 76.5 -11.5 101.5 -34.5s37.5 -50.167 37.5 -81.5c0 -42 -13.667 -76.167 -41 -102.5s-60 -39.5 -98 -39.5
c-39.333 0 -73.666 13.833 -102.999 41.5s-44 67.834 -44 120.501c0 27.333 8.83301 56.833 26.5 88.5s43 62.5 76 92.5s77.833 54.833 134.5 74.5s119 29.5 187 29.5c54.667 0 104.334 -6.16699 149.001 -18.5s85.167 -32 121.5 -59s64.5 -64.333 84.5 -112
s30 -104.167 30 -169.5v-460c0 -26 3.16699 -50.833 9.5 -74.5s18.833 -45.167 37.5 -64.5s42.334 -29 71.001 -29c84.667 0 127 59.333 127 178v149h109v-129zM537.996 1514c-30 0 -56.333 -11.333 -79 -34s-34 -53.667 -34 -93s11 -70 33 -92s48 -33 78 -33
s56.333 11.167 79 33.5s34 52.833 34 91.5c0 39.333 -11 70.333 -33 93s-48 34 -78 34zM336.996 1387c0 52.667 17.999 96.1689 53.999 130.502s85 51.5 147 51.5c60.667 0 109 -17.167 145 -51.5s54 -77.833 54 -130.5s-18 -96.334 -54 -131.001s-84.333 -52 -145 -52
c-61.333 0 -110.166 17.167 -146.499 51.5s-54.5 78.166 -54.5 131.499z" />
    <glyph glyph-name="ae" unicode="&#xe6;" horiz-adv-x="1728" 
d="M273 245c0 -36.667 11 -67.1689 33 -91.502s51.667 -36.5 89 -36.5c48 0 93.5 10.167 136.5 30.5s78.167 45.5 105.5 75.5s49.5 59.5 66.5 88.5s28.167 54.833 33.5 77.5l-4 119c-160 -37.333 -276.667 -76.166 -350 -116.499s-110 -89.166 -110 -146.499zM963 650.998
l476.999 78c0 68.667 -18.667 128.5 -56 179.5s-85.666 76.5 -144.999 76.5c-74 0 -136.5 -31 -187.5 -93s-80.5 -142.333 -88.5 -241zM1673 333.998c-26 -111.333 -77.5 -199.67 -154.5 -265.003s-171.833 -98 -284.5 -98c-96 0 -182 30.667 -258 92s-125.667 129 -149 203
c-41.333 -86.667 -102 -157.5 -182 -212.5s-172 -82.5 -276 -82.5c-82.667 0 -151.167 22.167 -205.5 66.5s-81.5 104.833 -81.5 181.5c0 28 4 54.5 12 79.5s18.667 47.333 32 67s30.5 38.334 51.5 56.001s42.167 33 63.5 46s46.833 25.833 76.5 38.5s56.834 23 81.501 31
s53.667 16.667 87 26s61.833 16.666 85.5 21.999l85 19.5c33 7.66699 58.5 13.834 76.5 18.501v149c0 74.667 -21.833 130.834 -65.5 168.501s-100.167 56.5 -169.5 56.5c-46.667 0 -90.5 -7.5 -131.5 -22.5s-73.167 -35.5 -96.5 -61.5c43.333 0 78.166 -11.5 104.499 -34.5
s39.5 -50.167 39.5 -81.5c0 -41.333 -15.167 -75.333 -45.5 -102s-65.166 -40 -104.499 -40c-40.667 0 -75.334 15.167 -104.001 45.5s-43 74.833 -43 133.5c0 74 39.5 137.167 118.5 189.5s172.5 78.5 280.5 78.5c190 0 315 -63 375 -189
c42.667 66.667 92.5 115.167 149.5 145.5s125.167 45.5 204.5 45.5c54 0 103.167 -10.833 147.5 -32.5s80.5 -49.167 108.5 -82.5s51.5 -71 70.5 -113s32.5 -82.5 40.5 -121.5s12 -76.167 12 -111.5l-661 -96c0 -24.667 2.83301 -53.667 8.5 -87s15.667 -70 30 -110
s31.833 -76.667 52.5 -110s48.167 -61.166 82.5 -83.499s72.5 -33.5 114.5 -33.5c68 0 130.5 21.5 187.5 64.5s96.167 104.167 117.5 183.5z" />
    <glyph glyph-name="ccedilla" unicode="&#xe7;" horiz-adv-x="1118" 
d="M643 -290c0 -24 -9.33398 -46.1689 -28.001 -66.502s-41.167 -36.5 -67.5 -48.5s-52.666 -22.167 -78.999 -30.5s-48.833 -14.166 -67.5 -17.499l-28 -5l-29 71c38.667 6.66699 72.667 16 102 28s44 24.667 44 38c0 14 -15.833 36.5 -47.5 67.5s-47.5 54.833 -47.5 71.5
c0 38.667 20.5 76.334 61.5 113.001s90.167 55 147.5 55h39v-276zM73.999 515.998c0 77.333 11.6631 150.663 34.9961 219.996s57 131.5 101 186.5s101 98.667 171 131s148.333 48.5 235 48.5c48.667 0 97.334 -7.16699 146.001 -21.5s94 -35.166 136 -62.499
s76.167 -64.166 102.5 -110.499s39.5 -98.166 39.5 -155.499c0 -40 -13.833 -77 -41.5 -111s-66.167 -51 -115.5 -51c-43.333 0 -79.833 12.833 -109.5 38.5s-44.5 59.834 -44.5 102.501c0 43.333 15.333 77 46 101s66.667 36 108 36c-22 35.333 -53.167 64.333 -93.5 87
s-86.5 34 -138.5 34c-58 0 -110 -12.833 -156 -38.5s-82.667 -59.667 -110 -102s-48.166 -89.166 -62.499 -140.499s-21.5 -104.333 -21.5 -159c0 -128.667 29.667 -229.834 89 -303.501s141.666 -110.5 246.999 -110.5c40.667 0 79.834 8.5 117.501 25.5
s69.334 38.167 95.001 63.5s47.167 50.833 64.5 76.5s29.333 49.167 36 70.5l113 -37c-25.333 -109.333 -79 -196.833 -161 -262.5s-185.333 -98.5 -310 -98.5c-71.333 0 -138.666 12.833 -201.999 38.5s-118.333 61.5 -165 107.5s-83.5 103.333 -110.5 172
s-40.5 143.667 -40.5 225z" />
    <glyph glyph-name="egrave" unicode="&#xe8;" horiz-adv-x="1150" 
d="M310 659h544c-2.66699 96.667 -29.167 174.834 -79.5 234.501s-111.833 89.5 -184.5 89.5c-73.333 0 -136.333 -29.833 -189 -89.5s-83 -137.834 -91 -234.501zM74 523c0 60 6.99902 118.328 20.999 174.995s35.333 109.334 64 158.001s63 91.334 103 128.001
s87.667 65.5 143 86.5s115 31.5 179 31.5c68 0 131.333 -12 190 -36s110 -58.833 154 -104.5s79 -103.667 105 -174s39.667 -149.166 41 -236.499h-771v-8c0 -57.333 6.16699 -110.666 18.5 -159.999s30.833 -93.666 55.5 -132.999s57.5 -70.333 98.5 -93
s88.167 -34 141.5 -34c69.333 0 134.5 21.667 195.5 65s102.167 104.333 123.5 183l117 -37c-26 -110 -79 -197.667 -159 -263s-179.333 -98 -298 -98c-81.333 0 -155.666 15.5 -222.999 46.5s-122.5 72.5 -165.5 124.5s-76 110.5 -99 175.5s-34.5 132.833 -34.5 203.5z
M295.999 1470l101.001 139.001c195.333 -138.667 353.666 -260 474.999 -364l-29 -39l-49 18.5c-20.667 7.66699 -58.5 22.667 -113.5 45s-105.167 43.666 -150.5 63.999s-91 43.333 -137 69s-78.333 48.167 -97 67.5z" />
    <glyph glyph-name="eacute" unicode="&#xe9;" horiz-adv-x="1150" 
d="M310 659h544c-2.66699 96.667 -29.167 174.834 -79.5 234.501s-111.833 89.5 -184.5 89.5c-73.333 0 -136.333 -29.833 -189 -89.5s-83 -137.834 -91 -234.501zM74 523c0 60 6.99902 118.328 20.999 174.995s35.333 109.334 64 158.001s63 91.334 103 128.001
s87.667 65.5 143 86.5s115 31.5 179 31.5c68 0 131.333 -12 190 -36s110 -58.833 154 -104.5s79 -103.667 105 -174s39.667 -149.166 41 -236.499h-771v-8c0 -57.333 6.16699 -110.666 18.5 -159.999s30.833 -93.666 55.5 -132.999s57.5 -70.333 98.5 -93
s88.167 -34 141.5 -34c69.333 0 134.5 21.667 195.5 65s102.167 104.333 123.5 183l117 -37c-26 -110 -79 -197.667 -159 -263s-179.333 -98 -298 -98c-81.333 0 -155.666 15.5 -222.999 46.5s-122.5 72.5 -165.5 124.5s-76 110.5 -99 175.5s-34.5 132.833 -34.5 203.5z
M871.999 1470c-29.333 -30 -89.667 -67 -181 -111s-175.333 -80.333 -252 -109l-114 -44l-29 39c54 46 120.5 99.333 199.5 160l197.5 147l78 57z" />
    <glyph glyph-name="ecircumflex" unicode="&#xea;" horiz-adv-x="1150" 
d="M573 1479c-23.333 -20.667 -53.833 -53.5 -91.5 -98.5l-96.5 -119.5l-39 -51l-99 92l326 351l328 -357l-99 -90c-100.667 135.333 -177 226.333 -229 273zM310 659h544c-2.66699 96.667 -29.167 174.834 -79.5 234.501s-111.833 89.5 -184.5 89.5
c-73.333 0 -136.333 -29.833 -189 -89.5s-83 -137.834 -91 -234.501zM74 523c0 60 6.99902 118.328 20.999 174.995s35.333 109.334 64 158.001s63 91.334 103 128.001s87.667 65.5 143 86.5s115 31.5 179 31.5c68 0 131.333 -12 190 -36s110 -58.833 154 -104.5
s79 -103.667 105 -174s39.667 -149.166 41 -236.499h-771v-8c0 -57.333 6.16699 -110.666 18.5 -159.999s30.833 -93.666 55.5 -132.999s57.5 -70.333 98.5 -93s88.167 -34 141.5 -34c69.333 0 134.5 21.667 195.5 65s102.167 104.333 123.5 183l117 -37
c-26 -110 -79 -197.667 -159 -263s-179.333 -98 -298 -98c-81.333 0 -155.666 15.5 -222.999 46.5s-122.5 72.5 -165.5 124.5s-76 110.5 -99 175.5s-34.5 132.833 -34.5 203.5z" />
    <glyph glyph-name="edieresis" unicode="&#xeb;" horiz-adv-x="1150" 
d="M198 1343c0 38 13.333 70.667 40 98s59 41 97 41c37.333 0 69.5 -13.667 96.5 -41s40.5 -60 40.5 -98c0 -36.667 -13.667 -68.667 -41 -96s-59.333 -41 -96 -41c-38 0 -70.333 13.5 -97 40.5s-40 59.167 -40 96.5zM673 1343c0 38 13.333 70.667 40 98s59 41 97 41
c37.333 0 70 -13.667 98 -41s42 -60 42 -98c0 -36.667 -14 -68.667 -42 -96s-60.667 -41 -98 -41c-38 0 -70.333 13.5 -97 40.5s-40 59.167 -40 96.5zM310 659h544c-2.66699 96.667 -29.167 174.834 -79.5 234.501s-111.833 89.5 -184.5 89.5
c-73.333 0 -136.333 -29.833 -189 -89.5s-83 -137.834 -91 -234.501zM74 523c0 60 6.99902 118.328 20.999 174.995s35.333 109.334 64 158.001s63 91.334 103 128.001s87.667 65.5 143 86.5s115 31.5 179 31.5c68 0 131.333 -12 190 -36s110 -58.833 154 -104.5
s79 -103.667 105 -174s39.667 -149.166 41 -236.499h-771v-8c0 -57.333 6.16699 -110.666 18.5 -159.999s30.833 -93.666 55.5 -132.999s57.5 -70.333 98.5 -93s88.167 -34 141.5 -34c69.333 0 134.5 21.667 195.5 65s102.167 104.333 123.5 183l117 -37
c-26 -110 -79 -197.667 -159 -263s-179.333 -98 -298 -98c-81.333 0 -155.666 15.5 -222.999 46.5s-122.5 72.5 -165.5 124.5s-76 110.5 -99 175.5s-34.5 132.833 -34.5 203.5z" />
    <glyph glyph-name="igrave" unicode="&#xec;" horiz-adv-x="671" 
d="M461 1073v-956h196v-117h-604v117h193v844h-195v112h410zM-32 1468l101.001 139.001c195.333 -138.667 353.666 -260 474.999 -364l-29 -39l-49 18.5c-20.667 7.66699 -58.5 22.667 -113.5 45s-105.167 43.666 -150.5 63.999s-91 43.333 -137 69s-78.333 48.167 -97 67.5
z" />
    <glyph glyph-name="iacute" unicode="&#xed;" horiz-adv-x="671" 
d="M661 1468c-29.333 -30 -89.667 -67 -181 -111s-175.333 -80.333 -252 -109l-114 -44l-29 39c54 46 120.5 99.333 199.5 160l197.5 147l78 57zM460.999 1073v-956h196v-117h-604v117h193v844h-195v112h410z" />
    <glyph glyph-name="icircumflex" unicode="&#xee;" horiz-adv-x="671" 
d="M353 1477c-23.333 -20.667 -53.833 -53.5 -91.5 -98.5l-96.5 -119.5l-39 -51l-99 92l326 351l328 -357l-99 -90c-100.667 135.333 -177 226.333 -229 273zM461 1073v-956h196v-117h-604v117h193v844h-195v112h410z" />
    <glyph glyph-name="idieresis" unicode="&#xef;" horiz-adv-x="671" 
d="M-22 1341c0 38 13.333 70.667 40 98s59 41 97 41c37.333 0 69.5 -13.667 96.5 -41s40.5 -60 40.5 -98c0 -36.667 -13.667 -68.667 -41 -96s-59.333 -41 -96 -41c-38 0 -70.333 13.5 -97 40.5s-40 59.167 -40 96.5zM453 1341c0 38 13.333 70.667 40 98s59 41 97 41
c37.333 0 70 -13.667 98 -41s42 -60 42 -98c0 -36.667 -14 -68.667 -42 -96s-60.667 -41 -98 -41c-38 0 -70.333 13.5 -97 40.5s-40 59.167 -40 96.5zM461 1073v-956h196v-117h-604v117h193v844h-195v112h410z" />
    <glyph glyph-name="eth" unicode="&#xf0;" horiz-adv-x="1245" 
d="M246 1495c74.667 16.667 143.003 24.998 205.003 24.998c164.667 0 304.334 -51 419.001 -153l256 120l35 -84l-224 -106c65.333 -78.667 115 -173.834 149 -285.501s51 -233.167 51 -364.5c0 -97.333 -8.66699 -184.333 -26 -261s-41.333 -140.167 -72 -190.5
s-67.834 -91.833 -111.501 -124.5s-90.5 -56 -140.5 -70s-104.667 -21 -164 -21c-70.667 0 -134.667 10.333 -192 31s-104.666 48 -141.999 82s-68.833 74 -94.5 120s-44 93 -55 141s-16.5 97.333 -16.5 148c0 66 10.333 129.167 31 189.5s50.5 115 89.5 164
s90.333 88 154 117s135.167 43.5 214.5 43.5c32 0 61.667 -2.83301 89 -8.5s51.166 -14 71.499 -25s36.666 -20.667 48.999 -29s26.166 -19.166 41.499 -32.499s24.666 -21.333 27.999 -24c-2 12.667 -5.5 29.834 -10.5 51.501s-19.167 60.334 -42.5 116.001
s-51.333 104.5 -84 146.5l-207 -97l-35 84l177 83c-86.667 77.333 -190.667 116 -312 116c-26 0 -63 -3.66699 -111 -11zM913.003 597.998c0 91.333 -25.5 160.999 -76.5 208.999s-122.167 72 -213.5 72c-78 0 -142.667 -38.667 -194 -116s-77 -168.666 -77 -273.999
c0 -72.667 9 -137 27 -193s48.333 -102 91 -138s95.667 -54 159 -54c99.333 0 171.5 40.667 216.5 122s67.5 205.333 67.5 372z" />
    <glyph glyph-name="ntilde" unicode="&#xf1;" horiz-adv-x="1359" 
d="M865 1298c-27.333 0 -81.666 -15.667 -162.999 -47s-141 -47 -179 -47c-61.333 0 -104.666 18.333 -129.999 55s-38 99.334 -38 188.001h88c0 -34 6.33301 -57.833 19 -71.5s35.667 -20.5 69 -20.5c27.333 0 81.666 15.667 162.999 47s141 47 179 47
c61.333 0 104.666 -18.333 129.999 -55s38 -99.334 38 -188.001h-88c0 34 -6.33301 57.833 -19 71.5s-35.667 20.5 -69 20.5zM641 0l-592.001 -0.00195312v112h195v849h-195v112l379 17l25 -218c32.667 74.667 82.834 131.667 150.501 171s136.167 59 205.5 59
c20 0 39 -1 57 -3s38.5 -6.5 61.5 -13.5s44 -16 63 -27s38.167 -26.5 57.5 -46.5s35.5 -43.167 48.5 -69.5s23.667 -59.166 32 -98.499s12.5 -83 12.5 -131v-601h205v-112h-603v112h183v599c0 86.667 -17 150.667 -51 192s-80.667 62 -140 62
c-38.667 0 -73.667 -7.16699 -105 -21.5s-57.5 -33.666 -78.5 -57.999s-38.5 -53 -52.5 -86s-24.167 -67.167 -30.5 -102.5s-9.5 -72.333 -9.5 -111v-474h182v-112z" />
    <glyph glyph-name="ograve" unicode="&#xf2;" 
d="M596 983c-66 0 -121.5 -20.501 -166.5 -61.501s-77.333 -95.167 -97 -162.5s-29.5 -145.666 -29.5 -234.999c0 -128 26.333 -230.667 79 -308s124.667 -116 216 -116c89.333 0 159.833 38.833 211.5 116.5s77.5 180.167 77.5 307.5c0 90 -9.66699 168.5 -29 235.5
s-51.333 121 -96 162s-100 61.5 -166 61.5zM598 -27.001c-160 0 -287.335 53.1689 -382.002 159.502s-142 241.166 -142 404.499c0 106.667 20.333 202.5 61 287.5s101 152.5 181 202.5s173.333 75 280 75c80 0 153 -14.5 219 -43.5s120.833 -68.833 164.5 -119.5
s77.334 -110.334 101.001 -179.001s35.5 -143 35.5 -223c0 -106 -20.167 -201.333 -60.5 -286s-100.166 -152.167 -179.499 -202.5s-172 -75.5 -278 -75.5zM307.998 1468l101.001 139.001c195.333 -138.667 353.666 -260 474.999 -364l-29 -39l-49 18.5
c-20.667 7.66699 -58.5 22.667 -113.5 45s-105.167 43.666 -150.5 63.999s-91 43.333 -137 69s-78.333 48.167 -97 67.5z" />
    <glyph glyph-name="oacute" unicode="&#xf3;" 
d="M596 983c-66 0 -121.5 -20.501 -166.5 -61.501s-77.333 -95.167 -97 -162.5s-29.5 -145.666 -29.5 -234.999c0 -128 26.333 -230.667 79 -308s124.667 -116 216 -116c89.333 0 159.833 38.833 211.5 116.5s77.5 180.167 77.5 307.5c0 90 -9.66699 168.5 -29 235.5
s-51.333 121 -96 162s-100 61.5 -166 61.5zM598 -27.001c-160 0 -287.335 53.1689 -382.002 159.502s-142 241.166 -142 404.499c0 106.667 20.333 202.5 61 287.5s101 152.5 181 202.5s173.333 75 280 75c80 0 153 -14.5 219 -43.5s120.833 -68.833 164.5 -119.5
s77.334 -110.334 101.001 -179.001s35.5 -143 35.5 -223c0 -106 -20.167 -201.333 -60.5 -286s-100.166 -152.167 -179.499 -202.5s-172 -75.5 -278 -75.5zM883.998 1468c-29.333 -30 -89.667 -67 -181 -111s-175.333 -80.333 -252 -109l-114 -44l-29 39
c54 46 120.5 99.333 199.5 160l197.5 147l78 57z" />
    <glyph glyph-name="ocircumflex" unicode="&#xf4;" 
d="M594 1477c-23.333 -20.667 -53.833 -53.5 -91.5 -98.5l-96.5 -119.5l-39 -51l-99 92l326 351l328 -357l-99 -90c-100.667 135.333 -177 226.333 -229 273zM596 983c-66 0 -121.5 -20.501 -166.5 -61.501s-77.333 -95.167 -97 -162.5s-29.5 -145.666 -29.5 -234.999
c0 -128 26.333 -230.667 79 -308s124.667 -116 216 -116c89.333 0 159.833 38.833 211.5 116.5s77.5 180.167 77.5 307.5c0 90 -9.66699 168.5 -29 235.5s-51.333 121 -96 162s-100 61.5 -166 61.5zM598 -27.001c-160 0 -287.335 53.1689 -382.002 159.502
s-142 241.166 -142 404.499c0 106.667 20.333 202.5 61 287.5s101 152.5 181 202.5s173.333 75 280 75c80 0 153 -14.5 219 -43.5s120.833 -68.833 164.5 -119.5s77.334 -110.334 101.001 -179.001s35.5 -143 35.5 -223c0 -106 -20.167 -201.333 -60.5 -286
s-100.166 -152.167 -179.499 -202.5s-172 -75.5 -278 -75.5z" />
    <glyph glyph-name="otilde" unicode="&#xf5;" 
d="M762 1298c-27.333 0 -81.666 -15.667 -162.999 -47s-141 -47 -179 -47c-61.333 0 -104.666 18.333 -129.999 55s-38 99.334 -38 188.001h88c0 -34 6.33301 -57.833 19 -71.5s35.667 -20.5 69 -20.5c27.333 0 81.666 15.667 162.999 47s141 47 179 47
c61.333 0 104.666 -18.333 129.999 -55s38 -99.334 38 -188.001h-88c0 34 -6.33301 57.833 -19 71.5s-35.667 20.5 -69 20.5zM596 983c-66 0 -121.5 -20.501 -166.5 -61.501s-77.333 -95.167 -97 -162.5s-29.5 -145.666 -29.5 -234.999c0 -128 26.333 -230.667 79 -308
s124.667 -116 216 -116c89.333 0 159.833 38.833 211.5 116.5s77.5 180.167 77.5 307.5c0 90 -9.66699 168.5 -29 235.5s-51.333 121 -96 162s-100 61.5 -166 61.5zM598 -27.001c-160 0 -287.335 53.1689 -382.002 159.502s-142 241.166 -142 404.499
c0 106.667 20.333 202.5 61 287.5s101 152.5 181 202.5s173.333 75 280 75c80 0 153 -14.5 219 -43.5s120.833 -68.833 164.5 -119.5s77.334 -110.334 101.001 -179.001s35.5 -143 35.5 -223c0 -106 -20.167 -201.333 -60.5 -286s-100.166 -152.167 -179.499 -202.5
s-172 -75.5 -278 -75.5z" />
    <glyph glyph-name="odieresis" unicode="&#xf6;" 
d="M219 1341c0 38 13.333 70.667 40 98s59 41 97 41c37.333 0 69.5 -13.667 96.5 -41s40.5 -60 40.5 -98c0 -36.667 -13.667 -68.667 -41 -96s-59.333 -41 -96 -41c-38 0 -70.333 13.5 -97 40.5s-40 59.167 -40 96.5zM694 1341c0 38 13.333 70.667 40 98s59 41 97 41
c37.333 0 70 -13.667 98 -41s42 -60 42 -98c0 -36.667 -14 -68.667 -42 -96s-60.667 -41 -98 -41c-38 0 -70.333 13.5 -97 40.5s-40 59.167 -40 96.5zM596 983c-66 0 -121.5 -20.501 -166.5 -61.501s-77.333 -95.167 -97 -162.5s-29.5 -145.666 -29.5 -234.999
c0 -128 26.333 -230.667 79 -308s124.667 -116 216 -116c89.333 0 159.833 38.833 211.5 116.5s77.5 180.167 77.5 307.5c0 90 -9.66699 168.5 -29 235.5s-51.333 121 -96 162s-100 61.5 -166 61.5zM598 -27.001c-160 0 -287.335 53.1689 -382.002 159.502
s-142 241.166 -142 404.499c0 106.667 20.333 202.5 61 287.5s101 152.5 181 202.5s173.333 75 280 75c80 0 153 -14.5 219 -43.5s120.833 -68.833 164.5 -119.5s77.334 -110.334 101.001 -179.001s35.5 -143 35.5 -223c0 -106 -20.167 -201.333 -60.5 -286
s-100.166 -152.167 -179.499 -202.5s-172 -75.5 -278 -75.5z" />
    <glyph glyph-name="divide" unicode="&#xf7;" horiz-adv-x="913" 
d="M338 942c0 36 12.5 66.835 37.5 92.502s55.5 38.5 91.5 38.5c35.333 0 66 -12.833 92 -38.5s39 -56.5 39 -92.5c0 -34.667 -13 -64.834 -39 -90.501s-56.667 -38.5 -92 -38.5c-36 0 -66.5 12.667 -91.5 38s-37.5 55.666 -37.5 90.999zM338 268.002
c0 36 12.5 66.835 37.5 92.502s55.5 38.5 91.5 38.5c35.333 0 66 -12.833 92 -38.5s39 -56.5 39 -92.5c0 -34.667 -13 -64.834 -39 -90.501s-56.667 -38.5 -92 -38.5c-36 0 -66.5 12.667 -91.5 38s-37.5 55.666 -37.5 90.999zM788 528.004h-663v156h663v-156z" />
    <glyph glyph-name="oslash" unicode="&#xf8;" 
d="M857 760l-469.999 -550.001c53.333 -73.333 123.666 -110 210.999 -110c89.333 0 159.833 38.833 211.5 116.5s77.5 180.167 77.5 307.5c0 92.667 -10 171.334 -30 236.001zM596.001 982.999c-66 0 -121.499 -20.501 -166.499 -61.501s-77.333 -95.167 -97 -162.5
s-29.5 -145.666 -29.5 -234.999s13.333 -167.333 40 -234l477 558c-50.667 90 -125.334 135 -224.001 135zM1112 1190l65.999 -53.001l-184 -216c81.333 -102.667 122 -230.667 122 -384c0 -106 -20.167 -201.333 -60.5 -286s-100.166 -152.167 -179.499 -202.5
s-172 -75.5 -278 -75.5c-126 0 -234 35 -324 105l-161 -189l-66 54l165 193c-92 104.667 -138 238.334 -138 401.001c0 106.667 20.333 202.5 61 287.5s101 152.5 181 202.5s173.333 75 280 75c135.333 0 248.333 -39.667 339 -119z" />
    <glyph glyph-name="ugrave" unicode="&#xf9;" horiz-adv-x="1286" 
d="M881 -29l0.000976562 226c-84 -149.333 -204.333 -224 -361 -224c-23.333 0 -45.833 1.66699 -67.5 5s-46 9.33301 -73 18s-51.5 22.334 -73.5 41.001s-42.5 41.5 -61.5 68.5s-33.833 62.333 -44.5 106s-16 93.167 -16 148.5v601h-188v112h403v-711
c0 -88.667 14.167 -152.5 42.5 -191.5s72.166 -58.5 131.499 -58.5c42 0 86.5 12.667 133.5 38s86.667 58.666 119 99.999s48.5 83 48.5 125v586h-182v112h398v-960l194 -21v-92zM255.001 1468l101.001 139.001c195.333 -138.667 353.666 -260 474.999 -364l-29 -39
l-49 18.5c-20.667 7.66699 -58.5 22.667 -113.5 45s-105.167 43.666 -150.5 63.999s-91 43.333 -137 69s-78.333 48.167 -97 67.5z" />
    <glyph glyph-name="uacute" unicode="&#xfa;" horiz-adv-x="1286" 
d="M881 -29l0.000976562 226c-84 -149.333 -204.333 -224 -361 -224c-23.333 0 -45.833 1.66699 -67.5 5s-46 9.33301 -73 18s-51.5 22.334 -73.5 41.001s-42.5 41.5 -61.5 68.5s-33.833 62.333 -44.5 106s-16 93.167 -16 148.5v601h-188v112h403v-711
c0 -88.667 14.167 -152.5 42.5 -191.5s72.166 -58.5 131.499 -58.5c42 0 86.5 12.667 133.5 38s86.667 58.666 119 99.999s48.5 83 48.5 125v586h-182v112h398v-960l194 -21v-92zM831.001 1468c-29.333 -30 -89.667 -67 -181 -111s-175.333 -80.333 -252 -109l-114 -44
l-29 39c54 46 120.5 99.333 199.5 160l197.5 147l78 57z" />
    <glyph glyph-name="ucircumflex" unicode="&#xfb;" horiz-adv-x="1286" 
d="M639 1477c-23.333 -20.667 -53.833 -53.5 -91.5 -98.5l-96.5 -119.5l-39 -51l-99 92l326 351l328 -357l-99 -90c-100.667 135.333 -177 226.333 -229 273zM881 -29l0.000976562 226c-84 -149.333 -204.333 -224 -361 -224c-23.333 0 -45.833 1.66699 -67.5 5
s-46 9.33301 -73 18s-51.5 22.334 -73.5 41.001s-42.5 41.5 -61.5 68.5s-33.833 62.333 -44.5 106s-16 93.167 -16 148.5v601h-188v112h403v-711c0 -88.667 14.167 -152.5 42.5 -191.5s72.166 -58.5 131.499 -58.5c42 0 86.5 12.667 133.5 38s86.667 58.666 119 99.999
s48.5 83 48.5 125v586h-182v112h398v-960l194 -21v-92z" />
    <glyph glyph-name="udieresis" unicode="&#xfc;" horiz-adv-x="1286" 
d="M264 1341c0 38 13.333 70.667 40 98s59 41 97 41c37.333 0 69.5 -13.667 96.5 -41s40.5 -60 40.5 -98c0 -36.667 -13.667 -68.667 -41 -96s-59.333 -41 -96 -41c-38 0 -70.333 13.5 -97 40.5s-40 59.167 -40 96.5zM739 1341c0 38 13.333 70.667 40 98s59 41 97 41
c37.333 0 70 -13.667 98 -41s42 -60 42 -98c0 -36.667 -14 -68.667 -42 -96s-60.667 -41 -98 -41c-38 0 -70.333 13.5 -97 40.5s-40 59.167 -40 96.5zM881 -29l0.000976562 226c-84 -149.333 -204.333 -224 -361 -224c-23.333 0 -45.833 1.66699 -67.5 5s-46 9.33301 -73 18
s-51.5 22.334 -73.5 41.001s-42.5 41.5 -61.5 68.5s-33.833 62.333 -44.5 106s-16 93.167 -16 148.5v601h-188v112h403v-711c0 -88.667 14.167 -152.5 42.5 -191.5s72.166 -58.5 131.499 -58.5c42 0 86.5 12.667 133.5 38s86.667 58.666 119 99.999s48.5 83 48.5 125v586
h-182v112h398v-960l194 -21v-92z" />
    <glyph glyph-name="yacute" unicode="&#xfd;" horiz-adv-x="1280" 
d="M360 -467c-92 0 -166.833 20.834 -224.5 62.501s-86.5 95.167 -86.5 160.5c0 46.667 15.333 85 46 115s72.667 45 126 45c41.333 0 72.5 -14 93.5 -42s31.5 -62.333 31.5 -103c0 -24.667 -8.16699 -46.5 -24.5 -65.5s-36.166 -34.167 -59.499 -45.5
c28 -14.667 50 -22 66 -22c58.667 0 108.167 26.167 148.5 78.5s71.166 139.166 92.499 260.499l-397 984h-199v112h617v-112h-182l290 -785l248 785h-166v112h514v-112h-172l-344 -965c-59.333 -171.333 -121.5 -291.333 -186.5 -360s-142.167 -103 -231.5 -103zM921 1468
c-29.333 -30 -89.667 -67 -181 -111s-175.333 -80.333 -252 -109l-114 -44l-29 39c54 46 120.5 99.333 199.5 160l197.5 147l78 57z" />
    <glyph glyph-name="thorn" unicode="&#xfe;" horiz-adv-x="1275" 
d="M956 551c0 73.333 -9.83203 141.5 -29.499 204.5s-50 115.333 -91 157s-88.833 62.5 -143.5 62.5c-80 0 -145 -41.5 -195 -124.5s-75 -189.167 -75 -318.5c0 -54 5.16699 -106.333 15.5 -157s25.666 -98.167 45.999 -142.5s48.5 -79.833 84.5 -106.5s77.333 -40 124 -40
c46 0 86.667 13.667 122 41s63 64 83 110s34.833 95.5 44.5 148.5s14.5 108.167 14.5 165.5zM430.001 901c36 65.333 81.833 115.166 137.5 149.499s118.5 51.5 188.5 51.5c83.333 0 158 -25.167 224 -75.5s116.833 -118.166 152.5 -203.499s53.5 -180 53.5 -284
c0 -166.667 -41 -302.667 -123 -408s-192.667 -158 -332 -158c-59.333 0 -114.833 14.167 -166.5 42.5s-94.5 67.5 -128.5 117.5v-412h221v-122h-671v120h235v1704h-194v113h403v-635z" />
    <glyph glyph-name="ydieresis" unicode="&#xff;" horiz-adv-x="1280" 
d="M258 1341c0 38 13.333 70.667 40 98s59 41 97 41c37.333 0 69.5 -13.667 96.5 -41s40.5 -60 40.5 -98c0 -36.667 -13.667 -68.667 -41 -96s-59.333 -41 -96 -41c-38 0 -70.333 13.5 -97 40.5s-40 59.167 -40 96.5zM733 1341c0 38 13.333 70.667 40 98s59 41 97 41
c37.333 0 70 -13.667 98 -41s42 -60 42 -98c0 -36.667 -14 -68.667 -42 -96s-60.667 -41 -98 -41c-38 0 -70.333 13.5 -97 40.5s-40 59.167 -40 96.5zM360 -467c-92 0 -166.833 20.834 -224.5 62.501s-86.5 95.167 -86.5 160.5c0 46.667 15.333 85 46 115s72.667 45 126 45
c41.333 0 72.5 -14 93.5 -42s31.5 -62.333 31.5 -103c0 -24.667 -8.16699 -46.5 -24.5 -65.5s-36.166 -34.167 -59.499 -45.5c28 -14.667 50 -22 66 -22c58.667 0 108.167 26.167 148.5 78.5s71.166 139.166 92.499 260.499l-397 984h-199v112h617v-112h-182l290 -785
l248 785h-166v112h514v-112h-172l-344 -965c-59.333 -171.333 -121.5 -291.333 -186.5 -360s-142.167 -103 -231.5 -103z" />
    <glyph glyph-name="Amacron" unicode="&#x100;" horiz-adv-x="1662" 
d="M1151 1638h-582v138h582v-138zM635 143v-143h-627v143h180l527 1362h237l535 -1362h168v-143h-647v143h223l-139 361h-578l-131 -361h252zM1042 631l-247 678l-234 -678h481z" />
    <glyph glyph-name="amacron" unicode="&#x101;" horiz-adv-x="1267" 
d="M828 1204h-582v138h582v-138zM291 229c0 -33.333 9.83398 -60.333 29.501 -81s48.834 -31 87.501 -31c44 0 89.5 13.167 136.5 39.5s85.833 59.5 116.5 99.5s46 78.333 46 115v213c-42.667 -42 -91.834 -79.667 -147.501 -113s-101.334 -58 -137.001 -74
s-66.5 -38 -92.5 -66s-39 -62 -39 -102zM1276 313c0 -66.667 -7.00488 -123.001 -21.0049 -169.001s-34.333 -81 -61 -105s-55.667 -41 -87 -51s-68 -15 -110 -15c-44.667 0 -86.334 8.66699 -125.001 26s-71.834 45.333 -99.501 84s-44.167 85.334 -49.5 140.001
c-28.667 -72.667 -77.167 -132.5 -145.5 -179.5s-142.166 -70.5 -221.499 -70.5c-82 0 -148.833 21.833 -200.5 65.5s-77.5 103.834 -77.5 180.501c0 40 9 76.5 27 109.5s41.833 60.5 71.5 82.5s63.334 43 101.001 63s76 37.167 115 51.5s77.333 30.166 115 47.499
s71.334 34.666 101.001 51.999s53.5 38.5 71.5 63.5s27 52.833 27 83.5c0 76 -18.667 132.5 -56 169.5s-89.666 55.5 -156.999 55.5c-47.333 0 -92.333 -7.5 -135 -22.5s-75.667 -35.5 -99 -61.5c42.667 0 76.5 -11.5 101.5 -34.5s37.5 -50.167 37.5 -81.5
c0 -42 -13.667 -76.167 -41 -102.5s-60 -39.5 -98 -39.5c-39.333 0 -73.666 13.833 -102.999 41.5s-44 67.834 -44 120.501c0 27.333 8.83301 56.833 26.5 88.5s43 62.5 76 92.5s77.833 54.833 134.5 74.5s119 29.5 187 29.5c54.667 0 104.334 -6.16699 149.001 -18.5
s85.167 -32 121.5 -59s64.5 -64.333 84.5 -112s30 -104.167 30 -169.5v-460c0 -26 3.16699 -50.833 9.5 -74.5s18.833 -45.167 37.5 -64.5s42.334 -29 71.001 -29c84.667 0 127 59.333 127 178v149h109v-129z" />
    <glyph glyph-name="Abreve" unicode="&#x102;" horiz-adv-x="1662" 
d="M1072 1880c-1.33301 -25.333 -7 -51.502 -17 -78.502s-24.167 -53 -42.5 -78s-43.166 -45.5 -74.499 -61.5s-66.333 -24 -105 -24s-73.834 7.83301 -105.501 23.5s-57 36.167 -76 61.5s-33.5 51.833 -43.5 79.5s-15.667 54.834 -17 81.501h129
c0.666992 -38 12 -68.667 34 -92s47.667 -35 77 -35c28 0 53.167 11.333 75.5 34s34.5 52.334 36.5 89.001h129zM635 142.998v-143h-627v143h180l527 1362h237l535 -1362h168v-143h-647v143h223l-139 361h-578l-131 -361h252zM1042 630.998l-247 678l-234 -678h481z" />
    <glyph glyph-name="abreve" unicode="&#x103;" horiz-adv-x="1267" 
d="M777 1446c-1.33301 -25.333 -7 -51.502 -17 -78.502s-24.167 -53 -42.5 -78s-43.166 -45.5 -74.499 -61.5s-66.333 -24 -105 -24s-73.834 7.83301 -105.501 23.5s-57 36.167 -76 61.5s-33.5 51.833 -43.5 79.5s-15.667 54.834 -17 81.501h129
c0.666992 -38 12 -68.667 34 -92s47.667 -35 77 -35c28 0 53.167 11.333 75.5 34s34.5 52.334 36.5 89.001h129zM291 228.998c0 -33.333 9.83398 -60.333 29.501 -81s48.834 -31 87.501 -31c44 0 89.5 13.167 136.5 39.5s85.833 59.5 116.5 99.5s46 78.333 46 115v213
c-42.667 -42 -91.834 -79.667 -147.501 -113s-101.334 -58 -137.001 -74s-66.5 -38 -92.5 -66s-39 -62 -39 -102zM1276 312.998c0 -66.667 -7.00488 -123.001 -21.0049 -169.001s-34.333 -81 -61 -105s-55.667 -41 -87 -51s-68 -15 -110 -15
c-44.667 0 -86.334 8.66699 -125.001 26s-71.834 45.333 -99.501 84s-44.167 85.334 -49.5 140.001c-28.667 -72.667 -77.167 -132.5 -145.5 -179.5s-142.166 -70.5 -221.499 -70.5c-82 0 -148.833 21.833 -200.5 65.5s-77.5 103.834 -77.5 180.501c0 40 9 76.5 27 109.5
s41.833 60.5 71.5 82.5s63.334 43 101.001 63s76 37.167 115 51.5s77.333 30.166 115 47.499s71.334 34.666 101.001 51.999s53.5 38.5 71.5 63.5s27 52.833 27 83.5c0 76 -18.667 132.5 -56 169.5s-89.666 55.5 -156.999 55.5c-47.333 0 -92.333 -7.5 -135 -22.5
s-75.667 -35.5 -99 -61.5c42.667 0 76.5 -11.5 101.5 -34.5s37.5 -50.167 37.5 -81.5c0 -42 -13.667 -76.167 -41 -102.5s-60 -39.5 -98 -39.5c-39.333 0 -73.666 13.833 -102.999 41.5s-44 67.834 -44 120.501c0 27.333 8.83301 56.833 26.5 88.5s43 62.5 76 92.5
s77.833 54.833 134.5 74.5s119 29.5 187 29.5c54.667 0 104.334 -6.16699 149.001 -18.5s85.167 -32 121.5 -59s64.5 -64.333 84.5 -112s30 -104.167 30 -169.5v-460c0 -26 3.16699 -50.833 9.5 -74.5s18.833 -45.167 37.5 -64.5s42.334 -29 71.001 -29
c84.667 0 127 59.333 127 178v149h109v-129z" />
    <glyph glyph-name="Aogonek" unicode="&#x104;" horiz-adv-x="1662" 
d="M1198 -174c0 34 9.83301 64.668 29.5 92.001s45.334 48.833 77.001 64.5s65.667 27.667 102 36s72.833 12.5 109.5 12.5v-31c-52.667 -9.33301 -92.167 -25.333 -118.5 -48s-39.5 -47.667 -39.5 -75c0 -30.667 11.167 -56.834 33.5 -78.501s63.166 -36.5 122.499 -44.5
l-27 -139c-85.333 0 -154.833 21.333 -208.5 64s-80.5 91.667 -80.5 147zM635 143.001v-143h-627v143h180l527 1362h237l535 -1362h168v-143h-647v143h223l-139 361h-578l-131 -361h252zM1042 631.001l-247 678l-234 -678h481z" />
    <glyph glyph-name="aogonek" unicode="&#x105;" horiz-adv-x="1267" 
d="M705 -202c0 34 9.83301 64.668 29.5 92.001s45.334 48.833 77.001 64.5s65.667 27.667 102 36s72.833 12.5 109.5 12.5v-31c-52.667 -9.33301 -92.167 -25.333 -118.5 -48s-39.5 -47.667 -39.5 -75c0 -30.667 11.167 -56.834 33.5 -78.501s63.166 -36.5 122.499 -44.5
l-27 -139c-85.333 0 -154.833 21.333 -208.5 64s-80.5 91.667 -80.5 147zM291 229.001c0 -33.333 9.83398 -60.333 29.501 -81s48.834 -31 87.501 -31c44 0 89.5 13.167 136.5 39.5s85.833 59.5 116.5 99.5s46 78.333 46 115v213c-42.667 -42 -91.834 -79.667 -147.501 -113
s-101.334 -58 -137.001 -74s-66.5 -38 -92.5 -66s-39 -62 -39 -102zM1276 313.001c0 -66.667 -7.00488 -123.001 -21.0049 -169.001s-34.333 -81 -61 -105s-55.667 -41 -87 -51s-68 -15 -110 -15c-44.667 0 -86.334 8.66699 -125.001 26s-71.834 45.333 -99.501 84
s-44.167 85.334 -49.5 140.001c-28.667 -72.667 -77.167 -132.5 -145.5 -179.5s-142.166 -70.5 -221.499 -70.5c-82 0 -148.833 21.833 -200.5 65.5s-77.5 103.834 -77.5 180.501c0 40 9 76.5 27 109.5s41.833 60.5 71.5 82.5s63.334 43 101.001 63s76 37.167 115 51.5
s77.333 30.166 115 47.499s71.334 34.666 101.001 51.999s53.5 38.5 71.5 63.5s27 52.833 27 83.5c0 76 -18.667 132.5 -56 169.5s-89.666 55.5 -156.999 55.5c-47.333 0 -92.333 -7.5 -135 -22.5s-75.667 -35.5 -99 -61.5c42.667 0 76.5 -11.5 101.5 -34.5
s37.5 -50.167 37.5 -81.5c0 -42 -13.667 -76.167 -41 -102.5s-60 -39.5 -98 -39.5c-39.333 0 -73.666 13.833 -102.999 41.5s-44 67.834 -44 120.501c0 27.333 8.83301 56.833 26.5 88.5s43 62.5 76 92.5s77.833 54.833 134.5 74.5s119 29.5 187 29.5
c54.667 0 104.334 -6.16699 149.001 -18.5s85.167 -32 121.5 -59s64.5 -64.333 84.5 -112s30 -104.167 30 -169.5v-460c0 -26 3.16699 -50.833 9.5 -74.5s18.833 -45.167 37.5 -64.5s42.334 -29 71.001 -29c84.667 0 127 59.333 127 178v149h109v-129z" />
    <glyph glyph-name="Cacute" unicode="&#x106;" horiz-adv-x="1447" 
d="M817 1536c91.333 0 178.998 -19.1719 262.998 -57.5049s153.333 -93.5 208 -165.5s82 -152 82 -240c0 -45.333 -17.833 -87 -53.5 -125s-83.167 -57 -142.5 -57c-50.667 0 -91.667 14.833 -123 44.5s-47 70.167 -47 121.5s19.667 90.833 59 118.5s79 41.5 119 41.5
c-32.667 50 -81 92.333 -145 127s-138 52 -222 52c-136 0 -247.833 -57.333 -335.5 -172s-131.5 -268 -131.5 -460c0 -73.333 11.667 -145.666 35 -216.999s56 -136.166 98 -194.499s95.833 -105.333 161.5 -141s137.5 -53.5 215.5 -53.5c58.667 0 113.834 11 165.501 33
s95.167 50.833 130.5 86.5s65 74.334 89 116.001s41.667 84.5 53 128.5l134 -65c-35.333 -154 -107 -273.167 -215 -357.5s-248 -126.5 -420 -126.5c-103.333 0 -199.666 21.333 -288.999 64s-164.666 100 -225.999 172s-109.333 156.5 -144 253.5s-52 198.833 -52 305.5
c0 110 17.667 212.333 53 307s84.666 175.834 147.999 243.501s140.833 120.834 232.5 159.501s191.5 58 299.5 58zM1105 1902c-29.333 -30 -89.667 -67 -181 -111s-175.333 -80.333 -252 -109l-114 -44l-29 39c54 46 120.5 99.333 199.5 160l197.5 147l78 57z" />
    <glyph glyph-name="cacute" unicode="&#x107;" horiz-adv-x="1118" 
d="M74 516c0 77.333 11.6631 150.663 34.9961 219.996s57 131.5 101 186.5s101 98.667 171 131s148.333 48.5 235 48.5c48.667 0 97.334 -7.16699 146.001 -21.5s94 -35.166 136 -62.499s76.167 -64.166 102.5 -110.499s39.5 -98.166 39.5 -155.499
c0 -40 -13.833 -77 -41.5 -111s-66.167 -51 -115.5 -51c-43.333 0 -79.833 12.833 -109.5 38.5s-44.5 59.834 -44.5 102.501c0 43.333 15.333 77 46 101s66.667 36 108 36c-22 35.333 -53.167 64.333 -93.5 87s-86.5 34 -138.5 34c-58 0 -110 -12.833 -156 -38.5
s-82.667 -59.667 -110 -102s-48.166 -89.166 -62.499 -140.499s-21.5 -104.333 -21.5 -159c0 -128.667 29.667 -229.834 89 -303.501s141.666 -110.5 246.999 -110.5c40.667 0 79.834 8.5 117.501 25.5s69.334 38.167 95.001 63.5s47.167 50.833 64.5 76.5
s29.333 49.167 36 70.5l113 -37c-25.333 -109.333 -79 -196.833 -161 -262.5s-185.333 -98.5 -310 -98.5c-71.333 0 -138.666 12.833 -201.999 38.5s-118.333 61.5 -165 107.5s-83.5 103.333 -110.5 172s-40.5 143.667 -40.5 225zM903.996 1470
c-29.333 -30 -89.667 -67 -181 -111s-175.333 -80.333 -252 -109l-114 -44l-29 39c54 46 120.5 99.333 199.5 160l197.5 147l78 57z" />
    <glyph glyph-name="Ccircumflex" unicode="&#x108;" horiz-adv-x="1447" 
d="M804 1911c-23.333 -20.667 -53.833 -53.5 -91.5 -98.5l-96.5 -119.5l-39 -51l-99 92l326 351l328 -357l-99 -90c-100.667 135.333 -177 226.333 -229 273zM817 1536c91.333 0 178.998 -19.1719 262.998 -57.5049s153.333 -93.5 208 -165.5s82 -152 82 -240
c0 -45.333 -17.833 -87 -53.5 -125s-83.167 -57 -142.5 -57c-50.667 0 -91.667 14.833 -123 44.5s-47 70.167 -47 121.5s19.667 90.833 59 118.5s79 41.5 119 41.5c-32.667 50 -81 92.333 -145 127s-138 52 -222 52c-136 0 -247.833 -57.333 -335.5 -172
s-131.5 -268 -131.5 -460c0 -73.333 11.667 -145.666 35 -216.999s56 -136.166 98 -194.499s95.833 -105.333 161.5 -141s137.5 -53.5 215.5 -53.5c58.667 0 113.834 11 165.501 33s95.167 50.833 130.5 86.5s65 74.334 89 116.001s41.667 84.5 53 128.5l134 -65
c-35.333 -154 -107 -273.167 -215 -357.5s-248 -126.5 -420 -126.5c-103.333 0 -199.666 21.333 -288.999 64s-164.666 100 -225.999 172s-109.333 156.5 -144 253.5s-52 198.833 -52 305.5c0 110 17.667 212.333 53 307s84.666 175.834 147.999 243.501
s140.833 120.834 232.5 159.501s191.5 58 299.5 58z" />
    <glyph glyph-name="ccircumflex" unicode="&#x109;" horiz-adv-x="1118" 
d="M628 1479c-23.333 -20.667 -53.833 -53.5 -91.5 -98.5l-96.5 -119.5l-39 -51l-99 92l326 351l328 -357l-99 -90c-100.667 135.333 -177 226.333 -229 273zM74 516c0 77.333 11.6631 150.663 34.9961 219.996s57 131.5 101 186.5s101 98.667 171 131
s148.333 48.5 235 48.5c48.667 0 97.334 -7.16699 146.001 -21.5s94 -35.166 136 -62.499s76.167 -64.166 102.5 -110.499s39.5 -98.166 39.5 -155.499c0 -40 -13.833 -77 -41.5 -111s-66.167 -51 -115.5 -51c-43.333 0 -79.833 12.833 -109.5 38.5
s-44.5 59.834 -44.5 102.501c0 43.333 15.333 77 46 101s66.667 36 108 36c-22 35.333 -53.167 64.333 -93.5 87s-86.5 34 -138.5 34c-58 0 -110 -12.833 -156 -38.5s-82.667 -59.667 -110 -102s-48.166 -89.166 -62.499 -140.499s-21.5 -104.333 -21.5 -159
c0 -128.667 29.667 -229.834 89 -303.501s141.666 -110.5 246.999 -110.5c40.667 0 79.834 8.5 117.501 25.5s69.334 38.167 95.001 63.5s47.167 50.833 64.5 76.5s29.333 49.167 36 70.5l113 -37c-25.333 -109.333 -79 -196.833 -161 -262.5s-185.333 -98.5 -310 -98.5
c-71.333 0 -138.666 12.833 -201.999 38.5s-118.333 61.5 -165 107.5s-83.5 103.333 -110.5 172s-40.5 143.667 -40.5 225z" />
    <glyph glyph-name="Cdotaccent" unicode="&#x10a;" horiz-adv-x="1447" 
d="M668 1786c0 41.333 14.5 76.5 43.5 105.5s63.833 43.5 104.5 43.5c40 0 74.833 -14.667 104.5 -44s44.5 -64.333 44.5 -105c0 -40 -14.833 -74.667 -44.5 -104s-64.5 -44 -104.5 -44c-40.667 0 -75.5 14.667 -104.5 44s-43.5 64 -43.5 104zM817 1536
c91.333 0 178.998 -19.1719 262.998 -57.5049s153.333 -93.5 208 -165.5s82 -152 82 -240c0 -45.333 -17.833 -87 -53.5 -125s-83.167 -57 -142.5 -57c-50.667 0 -91.667 14.833 -123 44.5s-47 70.167 -47 121.5s19.667 90.833 59 118.5s79 41.5 119 41.5
c-32.667 50 -81 92.333 -145 127s-138 52 -222 52c-136 0 -247.833 -57.333 -335.5 -172s-131.5 -268 -131.5 -460c0 -73.333 11.667 -145.666 35 -216.999s56 -136.166 98 -194.499s95.833 -105.333 161.5 -141s137.5 -53.5 215.5 -53.5c58.667 0 113.834 11 165.501 33
s95.167 50.833 130.5 86.5s65 74.334 89 116.001s41.667 84.5 53 128.5l134 -65c-35.333 -154 -107 -273.167 -215 -357.5s-248 -126.5 -420 -126.5c-103.333 0 -199.666 21.333 -288.999 64s-164.666 100 -225.999 172s-109.333 156.5 -144 253.5s-52 198.833 -52 305.5
c0 110 17.667 212.333 53 307s84.666 175.834 147.999 243.501s140.833 120.834 232.5 159.501s191.5 58 299.5 58z" />
    <glyph glyph-name="cdotaccent" unicode="&#x10b;" horiz-adv-x="1118" 
d="M468 1354c0 41.333 14.5 76.5 43.5 105.5s63.833 43.5 104.5 43.5c40 0 74.833 -14.667 104.5 -44s44.5 -64.333 44.5 -105c0 -40 -14.833 -74.667 -44.5 -104s-64.5 -44 -104.5 -44c-40.667 0 -75.5 14.667 -104.5 44s-43.5 64 -43.5 104zM74 516
c0 77.333 11.6631 150.663 34.9961 219.996s57 131.5 101 186.5s101 98.667 171 131s148.333 48.5 235 48.5c48.667 0 97.334 -7.16699 146.001 -21.5s94 -35.166 136 -62.499s76.167 -64.166 102.5 -110.499s39.5 -98.166 39.5 -155.499c0 -40 -13.833 -77 -41.5 -111
s-66.167 -51 -115.5 -51c-43.333 0 -79.833 12.833 -109.5 38.5s-44.5 59.834 -44.5 102.501c0 43.333 15.333 77 46 101s66.667 36 108 36c-22 35.333 -53.167 64.333 -93.5 87s-86.5 34 -138.5 34c-58 0 -110 -12.833 -156 -38.5s-82.667 -59.667 -110 -102
s-48.166 -89.166 -62.499 -140.499s-21.5 -104.333 -21.5 -159c0 -128.667 29.667 -229.834 89 -303.501s141.666 -110.5 246.999 -110.5c40.667 0 79.834 8.5 117.501 25.5s69.334 38.167 95.001 63.5s47.167 50.833 64.5 76.5s29.333 49.167 36 70.5l113 -37
c-25.333 -109.333 -79 -196.833 -161 -262.5s-185.333 -98.5 -310 -98.5c-71.333 0 -138.666 12.833 -201.999 38.5s-118.333 61.5 -165 107.5s-83.5 103.333 -110.5 172s-40.5 143.667 -40.5 225z" />
    <glyph glyph-name="Ccaron" unicode="&#x10c;" horiz-adv-x="1447" 
d="M818 1812c23.333 20.667 53.833 53.5 91.5 98.5l96.5 118.5l39 52l99 -93l-326 -350l-328 357l99 90c100.667 -135.333 177 -226.333 229 -273zM817 1536c91.333 0 178.998 -19.1719 262.998 -57.5049s153.333 -93.5 208 -165.5s82 -152 82 -240
c0 -45.333 -17.833 -87 -53.5 -125s-83.167 -57 -142.5 -57c-50.667 0 -91.667 14.833 -123 44.5s-47 70.167 -47 121.5s19.667 90.833 59 118.5s79 41.5 119 41.5c-32.667 50 -81 92.333 -145 127s-138 52 -222 52c-136 0 -247.833 -57.333 -335.5 -172
s-131.5 -268 -131.5 -460c0 -73.333 11.667 -145.666 35 -216.999s56 -136.166 98 -194.499s95.833 -105.333 161.5 -141s137.5 -53.5 215.5 -53.5c58.667 0 113.834 11 165.501 33s95.167 50.833 130.5 86.5s65 74.334 89 116.001s41.667 84.5 53 128.5l134 -65
c-35.333 -154 -107 -273.167 -215 -357.5s-248 -126.5 -420 -126.5c-103.333 0 -199.666 21.333 -288.999 64s-164.666 100 -225.999 172s-109.333 156.5 -144 253.5s-52 198.833 -52 305.5c0 110 17.667 212.333 53 307s84.666 175.834 147.999 243.501
s140.833 120.834 232.5 159.501s191.5 58 299.5 58z" />
    <glyph glyph-name="ccaron" unicode="&#x10d;" horiz-adv-x="1118" 
d="M617 1380c23.333 20.667 53.833 53.5 91.5 98.5l96.5 118.5l39 52l99 -93l-326 -350l-328 357l99 90c100.667 -135.333 177 -226.333 229 -273zM74 516c0 77.333 11.6631 150.663 34.9961 219.996s57 131.5 101 186.5s101 98.667 171 131s148.333 48.5 235 48.5
c48.667 0 97.334 -7.16699 146.001 -21.5s94 -35.166 136 -62.499s76.167 -64.166 102.5 -110.499s39.5 -98.166 39.5 -155.499c0 -40 -13.833 -77 -41.5 -111s-66.167 -51 -115.5 -51c-43.333 0 -79.833 12.833 -109.5 38.5s-44.5 59.834 -44.5 102.501
c0 43.333 15.333 77 46 101s66.667 36 108 36c-22 35.333 -53.167 64.333 -93.5 87s-86.5 34 -138.5 34c-58 0 -110 -12.833 -156 -38.5s-82.667 -59.667 -110 -102s-48.166 -89.166 -62.499 -140.499s-21.5 -104.333 -21.5 -159c0 -128.667 29.667 -229.834 89 -303.501
s141.666 -110.5 246.999 -110.5c40.667 0 79.834 8.5 117.501 25.5s69.334 38.167 95.001 63.5s47.167 50.833 64.5 76.5s29.333 49.167 36 70.5l113 -37c-25.333 -109.333 -79 -196.833 -161 -262.5s-185.333 -98.5 -310 -98.5c-71.333 0 -138.666 12.833 -201.999 38.5
s-118.333 61.5 -165 107.5s-83.5 103.333 -110.5 172s-40.5 143.667 -40.5 225z" />
    <glyph glyph-name="Dcaron" unicode="&#x10e;" horiz-adv-x="1568" 
d="M760 1812c23.333 20.667 53.833 53.5 91.5 98.5l96.5 118.5l39 52l99 -93l-326 -350l-328 357l99 90c100.667 -135.333 177 -226.333 229 -273zM512 143c84 0 160.17 5.83301 228.503 17.5s133.5 32 195.5 61s114 66.667 156 113s75.333 105.5 100 177.5
s37 155.333 37 250c0 70.667 -6.83301 134.834 -20.5 192.501s-32.334 107 -56.001 148s-53.334 77 -89.001 108s-73.334 55.833 -113.001 74.5s-84.5 33.667 -134.5 45s-99 19.166 -147 23.499s-100.333 6.5 -157 6.5v-1217zM33.0029 1362l0.000976562 143.001h452
c108 0 208.167 -6.83301 300.5 -20.5s182.5 -38 270.5 -73s162.833 -79.833 224.5 -134.5s111.167 -125.834 148.5 -213.501s56 -188.167 56 -301.5c0 -106.667 -15.333 -202.5 -46 -287.5s-73.834 -156.833 -129.501 -215.5s-123.667 -107.5 -204 -146.5
s-168.833 -67.5 -265.5 -85.5s-202.667 -27 -318 -27h-489v143h243v1219h-243z" />
    <glyph glyph-name="dcaron" unicode="&#x10f;" horiz-adv-x="1236" 
d="M1249 1067c32 19.333 61.498 44.001 88.498 74.001s40.5 58 40.5 84c0 11.333 -2.66699 20.666 -8 27.999c-26 -16 -54 -24 -84 -24c-34.667 0 -65.5 13.667 -92.5 41s-40.5 58 -40.5 92c0 37.333 15.833 70.5 47.5 99.5s65.834 43.5 102.501 43.5
c47.333 0 90.5 -18.167 129.5 -54.5s58.5 -87.833 58.5 -154.5c0 -51.333 -14.667 -103.5 -44 -156.5s-74.666 -100.5 -135.999 -142.5c-4 -1.33301 -8 -4 -12 -8zM830.998 170.001c-34 -63.333 -79.833 -111.999 -137.5 -145.999s-115.5 -51 -173.5 -51
c-132.667 0 -239.167 51.667 -319.5 155s-120.5 239.666 -120.5 408.999c0 170 40.833 306.667 122.5 410s192.5 155 332.5 155c55.333 0 109.833 -14.333 163.5 -43s97.167 -67.667 130.5 -117v440h-235v123h450v-1393h181v-112h-355zM570.998 989.002
c-45.333 0 -85.5 -13.3291 -120.5 -39.9961s-62.5 -62.5 -82.5 -107.5s-34.833 -93.667 -44.5 -146s-14.5 -106.833 -14.5 -163.5c0 -74.667 8.66699 -143.834 26 -207.501s45.833 -117 85.5 -160s87.167 -64.5 142.5 -64.5c81.333 0 148.5 42.333 201.5 127
s79.5 192 79.5 322c0 53.333 -5.33301 105.166 -16 155.499s-26.667 97.166 -48 140.499s-50 78.166 -86 104.499s-77 39.5 -123 39.5z" />
    <glyph glyph-name="Dcroat" unicode="&#x110;" horiz-adv-x="1613" 
d="M522 0l-488.999 0.000976562v137h243v553h-221v144h221v528h-243v143h452c108 0 208.167 -6.83301 300.5 -20.5s182.5 -38 270.5 -73s162.833 -79.833 224.5 -134.5s111.167 -125.834 148.5 -213.501s56 -188.167 56 -301.5c0 -106.667 -15.333 -202.5 -46 -287.5
s-73.834 -156.833 -129.501 -215.5s-123.667 -107.5 -204 -146.5s-168.833 -67.5 -265.5 -85.5s-202.667 -27 -318 -27zM512.001 137.001c84 0 160.17 5.83203 228.503 17.499s133.5 32.334 195.5 62.001s114 67.667 156 114s75.333 106 100 179s37 157.167 37 252.5
c0 70.667 -6.83301 134.834 -20.5 192.501s-32.334 107 -56.001 148s-53.334 77 -89.001 108s-73.334 55.833 -113.001 74.5s-84.5 33.667 -134.5 45s-99 19.166 -147 23.499s-100.333 6.5 -157 6.5v-526h252v-144h-252v-553z" />
    <glyph glyph-name="dcroat" unicode="&#x111;" horiz-adv-x="1236" 
d="M571 989c-45.333 0 -85.5 -13.3291 -120.5 -39.9961s-62.5 -62.5 -82.5 -107.5s-34.833 -93.667 -44.5 -146s-14.5 -106.833 -14.5 -163.5c0 -74.667 8.66699 -143.834 26 -207.501s45.833 -117 85.5 -160s87.167 -64.5 142.5 -64.5c81.333 0 148.5 42.333 201.5 127
s79.5 192 79.5 322c0 53.333 -5.33301 105.166 -16 155.499s-26.667 97.166 -48 140.499s-50 78.166 -86 104.499s-77 39.5 -123 39.5zM831 170.004c-34 -63.333 -79.833 -111.999 -137.5 -145.999s-115.5 -51 -173.5 -51c-132.667 0 -239.167 51.667 -319.5 155
s-120.5 239.666 -120.5 408.999c0 170 40.833 306.667 122.5 410s192.5 155 332.5 155c55.333 0 109.833 -14.333 163.5 -43s97.167 -67.667 130.5 -117v240h-288v97h288v103h-235v123h450v-226h160v-97h-160v-1067h181v-115h-355z" />
    <glyph glyph-name="Emacron" unicode="&#x112;" horiz-adv-x="1484" 
d="M1032 1638h-582v138h582v-138zM33 0v143h246v1219h-246v143h1360v-579h-181v436h-698v-541h373v246h133v-621h-133v261h-373v-564h698v428h181v-571h-1360z" />
    <glyph glyph-name="emacron" unicode="&#x113;" horiz-adv-x="1150" 
d="M875 1206h-582v138h582v-138zM310 659h544c-2.66699 96.667 -29.167 174.834 -79.5 234.501s-111.833 89.5 -184.5 89.5c-73.333 0 -136.333 -29.833 -189 -89.5s-83 -137.834 -91 -234.501zM74 523c0 60 6.99902 118.328 20.999 174.995s35.333 109.334 64 158.001
s63 91.334 103 128.001s87.667 65.5 143 86.5s115 31.5 179 31.5c68 0 131.333 -12 190 -36s110 -58.833 154 -104.5s79 -103.667 105 -174s39.667 -149.166 41 -236.499h-771v-8c0 -57.333 6.16699 -110.666 18.5 -159.999s30.833 -93.666 55.5 -132.999
s57.5 -70.333 98.5 -93s88.167 -34 141.5 -34c69.333 0 134.5 21.667 195.5 65s102.167 104.333 123.5 183l117 -37c-26 -110 -79 -197.667 -159 -263s-179.333 -98 -298 -98c-81.333 0 -155.666 15.5 -222.999 46.5s-122.5 72.5 -165.5 124.5s-76 110.5 -99 175.5
s-34.5 132.833 -34.5 203.5z" />
    <glyph glyph-name="ebreve" unicode="&#x115;" horiz-adv-x="1150" 
d="M825 1448c-1.33301 -25.333 -7 -51.502 -17 -78.502s-24.167 -53 -42.5 -78s-43.166 -45.5 -74.499 -61.5s-66.333 -24 -105 -24s-73.834 7.83301 -105.501 23.5s-57 36.167 -76 61.5s-33.5 51.833 -43.5 79.5s-15.667 54.834 -17 81.501h129
c0.666992 -38 12 -68.667 34 -92s47.667 -35 77 -35c28 0 53.167 11.333 75.5 34s34.5 52.334 36.5 89.001h129zM310 658.998h544c-2.66699 96.667 -29.167 174.834 -79.5 234.501s-111.833 89.5 -184.5 89.5c-73.333 0 -136.333 -29.833 -189 -89.5
s-83 -137.834 -91 -234.501zM74 522.998c0 60 6.99902 118.328 20.999 174.995s35.333 109.334 64 158.001s63 91.334 103 128.001s87.667 65.5 143 86.5s115 31.5 179 31.5c68 0 131.333 -12 190 -36s110 -58.833 154 -104.5s79 -103.667 105 -174
s39.667 -149.166 41 -236.499h-771v-8c0 -57.333 6.16699 -110.666 18.5 -159.999s30.833 -93.666 55.5 -132.999s57.5 -70.333 98.5 -93s88.167 -34 141.5 -34c69.333 0 134.5 21.667 195.5 65s102.167 104.333 123.5 183l117 -37c-26 -110 -79 -197.667 -159 -263
s-179.333 -98 -298 -98c-81.333 0 -155.666 15.5 -222.999 46.5s-122.5 72.5 -165.5 124.5s-76 110.5 -99 175.5s-34.5 132.833 -34.5 203.5z" />
    <glyph glyph-name="Edotaccent" unicode="&#x116;" horiz-adv-x="1484" 
d="M564 1786c0 41.333 14.5 76.5 43.5 105.5s63.833 43.5 104.5 43.5c40 0 74.833 -14.667 104.5 -44s44.5 -64.333 44.5 -105c0 -40 -14.833 -74.667 -44.5 -104s-64.5 -44 -104.5 -44c-40.667 0 -75.5 14.667 -104.5 44s-43.5 64 -43.5 104zM33 0v143h246v1219h-246v143
h1360v-579h-181v436h-698v-541h373v246h133v-621h-133v261h-373v-564h698v428h181v-571h-1360z" />
    <glyph glyph-name="edotaccent" unicode="&#x117;" horiz-adv-x="1150" 
d="M436 1354c0 41.333 14.5 76.5 43.5 105.5s63.833 43.5 104.5 43.5c40 0 74.833 -14.667 104.5 -44s44.5 -64.333 44.5 -105c0 -40 -14.833 -74.667 -44.5 -104s-64.5 -44 -104.5 -44c-40.667 0 -75.5 14.667 -104.5 44s-43.5 64 -43.5 104zM310 659h544
c-2.66699 96.667 -29.167 174.834 -79.5 234.501s-111.833 89.5 -184.5 89.5c-73.333 0 -136.333 -29.833 -189 -89.5s-83 -137.834 -91 -234.501zM74 523c0 60 6.99902 118.328 20.999 174.995s35.333 109.334 64 158.001s63 91.334 103 128.001s87.667 65.5 143 86.5
s115 31.5 179 31.5c68 0 131.333 -12 190 -36s110 -58.833 154 -104.5s79 -103.667 105 -174s39.667 -149.166 41 -236.499h-771v-8c0 -57.333 6.16699 -110.666 18.5 -159.999s30.833 -93.666 55.5 -132.999s57.5 -70.333 98.5 -93s88.167 -34 141.5 -34
c69.333 0 134.5 21.667 195.5 65s102.167 104.333 123.5 183l117 -37c-26 -110 -79 -197.667 -159 -263s-179.333 -98 -298 -98c-81.333 0 -155.666 15.5 -222.999 46.5s-122.5 72.5 -165.5 124.5s-76 110.5 -99 175.5s-34.5 132.833 -34.5 203.5z" />
    <glyph glyph-name="Eogonek" unicode="&#x118;" horiz-adv-x="1484" 
d="M980 -170c0 34 9.83301 64.668 29.5 92.001s45.334 48.833 77.001 64.5s65.667 27.667 102 36s72.833 12.5 109.5 12.5v-31c-52.667 -9.33301 -92.167 -25.333 -118.5 -48s-39.5 -47.667 -39.5 -75c0 -30.667 11.167 -56.834 33.5 -78.501s63.166 -36.5 122.499 -44.5
l-27 -139c-85.333 0 -154.833 21.333 -208.5 64s-80.5 91.667 -80.5 147zM33 0.000976562v143h246v1219h-246v143h1360v-579h-181v436h-698v-541h373v246h133v-621h-133v261h-373v-564h698v428h181v-571h-1360z" />
    <glyph glyph-name="eogonek" unicode="&#x119;" horiz-adv-x="1150" 
d="M343 -199c0 34 9.83301 64.668 29.5 92.001s45.334 48.833 77.001 64.5s65.667 27.667 102 36s72.833 12.5 109.5 12.5v-31c-52.667 -9.33301 -92.167 -25.333 -118.5 -48s-39.5 -47.667 -39.5 -75c0 -30.667 11.167 -56.834 33.5 -78.501s63.166 -36.5 122.499 -44.5
l-27 -139c-85.333 0 -154.833 21.333 -208.5 64s-80.5 91.667 -80.5 147zM310 659.001h544c-2.66699 96.667 -29.167 174.834 -79.5 234.501s-111.833 89.5 -184.5 89.5c-73.333 0 -136.333 -29.833 -189 -89.5s-83 -137.834 -91 -234.501zM74 523.001
c0 60 6.99902 118.328 20.999 174.995s35.333 109.334 64 158.001s63 91.334 103 128.001s87.667 65.5 143 86.5s115 31.5 179 31.5c68 0 131.333 -12 190 -36s110 -58.833 154 -104.5s79 -103.667 105 -174s39.667 -149.166 41 -236.499h-771v-8
c0 -57.333 6.16699 -110.666 18.5 -159.999s30.833 -93.666 55.5 -132.999s57.5 -70.333 98.5 -93s88.167 -34 141.5 -34c69.333 0 134.5 21.667 195.5 65s102.167 104.333 123.5 183l117 -37c-26 -110 -79 -197.667 -159 -263s-179.333 -98 -298 -98
c-81.333 0 -155.666 15.5 -222.999 46.5s-122.5 72.5 -165.5 124.5s-76 110.5 -99 175.5s-34.5 132.833 -34.5 203.5z" />
    <glyph glyph-name="Ecaron" unicode="&#x11a;" horiz-adv-x="1484" 
d="M714 1812c23.333 20.667 53.833 53.5 91.5 98.5l96.5 118.5l39 52l99 -93l-326 -350l-328 357l99 90c100.667 -135.333 177 -226.333 229 -273zM33 0v143h246v1219h-246v143h1360v-579h-181v436h-698v-541h373v246h133v-621h-133v261h-373v-564h698v428h181v-571h-1360z
" />
    <glyph glyph-name="ecaron" unicode="&#x11b;" horiz-adv-x="1150" 
d="M575 1380c23.333 20.667 53.833 53.5 91.5 98.5l96.5 118.5l39 52l99 -93l-326 -350l-328 357l99 90c100.667 -135.333 177 -226.333 229 -273zM310 659h544c-2.66699 96.667 -29.167 174.834 -79.5 234.501s-111.833 89.5 -184.5 89.5
c-73.333 0 -136.333 -29.833 -189 -89.5s-83 -137.834 -91 -234.501zM74 523c0 60 6.99902 118.328 20.999 174.995s35.333 109.334 64 158.001s63 91.334 103 128.001s87.667 65.5 143 86.5s115 31.5 179 31.5c68 0 131.333 -12 190 -36s110 -58.833 154 -104.5
s79 -103.667 105 -174s39.667 -149.166 41 -236.499h-771v-8c0 -57.333 6.16699 -110.666 18.5 -159.999s30.833 -93.666 55.5 -132.999s57.5 -70.333 98.5 -93s88.167 -34 141.5 -34c69.333 0 134.5 21.667 195.5 65s102.167 104.333 123.5 183l117 -37
c-26 -110 -79 -197.667 -159 -263s-179.333 -98 -298 -98c-81.333 0 -155.666 15.5 -222.999 46.5s-122.5 72.5 -165.5 124.5s-76 110.5 -99 175.5s-34.5 132.833 -34.5 203.5z" />
    <glyph glyph-name="Gcircumflex" unicode="&#x11c;" horiz-adv-x="1599" 
d="M838 1911c-23.333 -20.667 -53.833 -53.5 -91.5 -98.5l-96.5 -119.5l-39 -51l-99 92l326 351l328 -357l-99 -90c-100.667 135.333 -177 226.333 -229 273zM855 1536c110.667 0 210.501 -20.498 299.501 -61.498s157.833 -95.667 206.5 -164s73 -143.5 73 -225.5
c0 -41.333 -15.667 -79.166 -47 -113.499s-73 -51.5 -125 -51.5c-48 0 -88 16.167 -120 48.5s-48 68.5 -48 108.5c0 46.667 14.667 85 44 115s57 45 83 45h4c-28.667 39.333 -65.5 71.666 -110.5 96.999s-86.667 42 -125 50s-76.833 12 -115.5 12
c-107.333 0 -201.5 -28.5 -282.5 -85.5s-142.167 -133 -183.5 -228s-62 -201.833 -62 -320.5c0 -79.333 12.667 -156 38 -230s59.833 -139 103.5 -195s97.334 -100.833 161.001 -134.5s131.5 -50.5 203.5 -50.5c51.333 0 100.833 9.66699 148.5 29s87.667 43.833 120 73.5
s58.166 61.5 77.499 95.5s29 66 29 96v140h-283v151h651v-151h-163v-586h-121l-49 211c-22.667 -44.667 -52.5 -83.167 -89.5 -115.5s-77.5 -57 -121.5 -74s-87.667 -29.333 -131 -37s-87.333 -11.5 -132 -11.5c-92 0 -177 15.167 -255 45.5s-144.167 71.166 -198.5 122.499
s-100.666 110.833 -138.999 178.5s-66.5 138.667 -84.5 213s-27 150.166 -27 227.499c0 101.333 17.833 198.5 53.5 291.5s85.667 175.5 150 247.5s145.666 129.5 243.999 172.5s206.166 64.5 323.499 64.5z" />
    <glyph glyph-name="gcircumflex" unicode="&#x11d;" horiz-adv-x="1198" 
d="M634 1477c-23.333 -20.667 -53.833 -53.5 -91.5 -98.5l-96.5 -119.5l-39 -51l-99 92l326 351l328 -357l-99 -90c-100.667 135.333 -177 226.333 -229 273zM551 -535c-66.667 0 -127.332 7.99902 -181.999 23.999s-100.5 42.667 -137.5 80s-55.5 82.666 -55.5 135.999
c0 51.333 16.5 90.166 49.5 116.499s72.5 39.5 118.5 39.5c37.333 0 69.166 -13.167 95.499 -39.5s39.5 -59.833 39.5 -100.5c0 -26 -9 -52.167 -27 -78.5s-37 -43.166 -57 -50.499c42.667 -14.667 83.667 -22 123 -22c104.667 0 182.667 39.833 234 119.5
s77 190.834 77 333.501v178c-21.333 -64 -60.666 -118 -117.999 -162s-122.333 -66 -195 -66c-56.667 0 -108.834 10.333 -156.501 31s-88.334 48.834 -122.001 84.501s-62.334 77.334 -86.001 125.001s-41.167 98.5 -52.5 152.5s-17 109.333 -17 166
c0 72 9.33301 141.5 28 208.5s45.834 127.667 81.501 182s82 97.833 139 130.5s120.833 49 191.5 49c60.667 0 121.667 -19.833 183 -59.5s102.666 -93.5 123.999 -161.5l25 192h334v-119h-144v-903c0 -62 -5.5 -120.833 -16.5 -176.5s-29 -108.834 -54 -159.501
s-56.167 -94.167 -93.5 -130.5s-84.166 -65.333 -140.499 -87s-119.166 -32.5 -188.499 -32.5zM559.002 99.999c59.333 0 110.502 20.666 153.502 61.999s74.333 92.333 94 153s29.5 126.334 29.5 197.001c0 136 -24.833 246.167 -74.5 330.5s-115.834 126.5 -198.501 126.5
c-54.667 0 -102.334 -20.333 -143.001 -61s-70.667 -92 -90 -154s-29 -129.667 -29 -203c0 -57.333 4.5 -111.5 13.5 -162.5s23.167 -98.833 42.5 -143.5s46.333 -80 81 -106s75 -39 121 -39z" />
    <glyph glyph-name="Gbreve" unicode="&#x11e;" horiz-adv-x="1599" 
d="M1095 1880c-1.33301 -25.333 -7 -51.502 -17 -78.502s-24.167 -53 -42.5 -78s-43.166 -45.5 -74.499 -61.5s-66.333 -24 -105 -24s-73.834 7.83301 -105.501 23.5s-57 36.167 -76 61.5s-33.5 51.833 -43.5 79.5s-15.667 54.834 -17 81.501h129
c0.666992 -38 12 -68.667 34 -92s47.667 -35 77 -35c28 0 53.167 11.333 75.5 34s34.5 52.334 36.5 89.001h129zM855 1536c110.667 0 210.501 -20.498 299.501 -61.498s157.833 -95.667 206.5 -164s73 -143.5 73 -225.5c0 -41.333 -15.667 -79.166 -47 -113.499
s-73 -51.5 -125 -51.5c-48 0 -88 16.167 -120 48.5s-48 68.5 -48 108.5c0 46.667 14.667 85 44 115s57 45 83 45h4c-28.667 39.333 -65.5 71.666 -110.5 96.999s-86.667 42 -125 50s-76.833 12 -115.5 12c-107.333 0 -201.5 -28.5 -282.5 -85.5s-142.167 -133 -183.5 -228
s-62 -201.833 -62 -320.5c0 -79.333 12.667 -156 38 -230s59.833 -139 103.5 -195s97.334 -100.833 161.001 -134.5s131.5 -50.5 203.5 -50.5c51.333 0 100.833 9.66699 148.5 29s87.667 43.833 120 73.5s58.166 61.5 77.499 95.5s29 66 29 96v140h-283v151h651v-151h-163
v-586h-121l-49 211c-22.667 -44.667 -52.5 -83.167 -89.5 -115.5s-77.5 -57 -121.5 -74s-87.667 -29.333 -131 -37s-87.333 -11.5 -132 -11.5c-92 0 -177 15.167 -255 45.5s-144.167 71.166 -198.5 122.499s-100.666 110.833 -138.999 178.5s-66.5 138.667 -84.5 213
s-27 150.166 -27 227.499c0 101.333 17.833 198.5 53.5 291.5s85.667 175.5 150 247.5s145.666 129.5 243.999 172.5s206.166 64.5 323.499 64.5z" />
    <glyph glyph-name="gbreve" unicode="&#x11f;" horiz-adv-x="1198" 
d="M875 1446c-1.33301 -25.333 -7 -51.502 -17 -78.502s-24.167 -53 -42.5 -78s-43.166 -45.5 -74.499 -61.5s-66.333 -24 -105 -24s-73.834 7.83301 -105.501 23.5s-57 36.167 -76 61.5s-33.5 51.833 -43.5 79.5s-15.667 54.834 -17 81.501h129
c0.666992 -38 12 -68.667 34 -92s47.667 -35 77 -35c28 0 53.167 11.333 75.5 34s34.5 52.334 36.5 89.001h129zM551 -535.002c-66.667 0 -127.332 7.99902 -181.999 23.999s-100.5 42.667 -137.5 80s-55.5 82.666 -55.5 135.999c0 51.333 16.5 90.166 49.5 116.499
s72.5 39.5 118.5 39.5c37.333 0 69.166 -13.167 95.499 -39.5s39.5 -59.833 39.5 -100.5c0 -26 -9 -52.167 -27 -78.5s-37 -43.166 -57 -50.499c42.667 -14.667 83.667 -22 123 -22c104.667 0 182.667 39.833 234 119.5s77 190.834 77 333.501v178
c-21.333 -64 -60.666 -118 -117.999 -162s-122.333 -66 -195 -66c-56.667 0 -108.834 10.333 -156.501 31s-88.334 48.834 -122.001 84.501s-62.334 77.334 -86.001 125.001s-41.167 98.5 -52.5 152.5s-17 109.333 -17 166c0 72 9.33301 141.5 28 208.5
s45.834 127.667 81.501 182s82 97.833 139 130.5s120.833 49 191.5 49c60.667 0 121.667 -19.833 183 -59.5s102.666 -93.5 123.999 -161.5l25 192h334v-119h-144v-903c0 -62 -5.5 -120.833 -16.5 -176.5s-29 -108.834 -54 -159.501s-56.167 -94.167 -93.5 -130.5
s-84.166 -65.333 -140.499 -87s-119.166 -32.5 -188.499 -32.5zM559.002 99.9971c59.333 0 110.502 20.666 153.502 61.999s74.333 92.333 94 153s29.5 126.334 29.5 197.001c0 136 -24.833 246.167 -74.5 330.5s-115.834 126.5 -198.501 126.5
c-54.667 0 -102.334 -20.333 -143.001 -61s-70.667 -92 -90 -154s-29 -129.667 -29 -203c0 -57.333 4.5 -111.5 13.5 -162.5s23.167 -98.833 42.5 -143.5s46.333 -80 81 -106s75 -39 121 -39z" />
    <glyph glyph-name="Gdotaccent" unicode="&#x120;" horiz-adv-x="1599" 
d="M706 1786c0 41.333 14.5 76.5 43.5 105.5s63.833 43.5 104.5 43.5c40 0 74.833 -14.667 104.5 -44s44.5 -64.333 44.5 -105c0 -40 -14.833 -74.667 -44.5 -104s-64.5 -44 -104.5 -44c-40.667 0 -75.5 14.667 -104.5 44s-43.5 64 -43.5 104zM855 1536
c110.667 0 210.501 -20.498 299.501 -61.498s157.833 -95.667 206.5 -164s73 -143.5 73 -225.5c0 -41.333 -15.667 -79.166 -47 -113.499s-73 -51.5 -125 -51.5c-48 0 -88 16.167 -120 48.5s-48 68.5 -48 108.5c0 46.667 14.667 85 44 115s57 45 83 45h4
c-28.667 39.333 -65.5 71.666 -110.5 96.999s-86.667 42 -125 50s-76.833 12 -115.5 12c-107.333 0 -201.5 -28.5 -282.5 -85.5s-142.167 -133 -183.5 -228s-62 -201.833 -62 -320.5c0 -79.333 12.667 -156 38 -230s59.833 -139 103.5 -195s97.334 -100.833 161.001 -134.5
s131.5 -50.5 203.5 -50.5c51.333 0 100.833 9.66699 148.5 29s87.667 43.833 120 73.5s58.166 61.5 77.499 95.5s29 66 29 96v140h-283v151h651v-151h-163v-586h-121l-49 211c-22.667 -44.667 -52.5 -83.167 -89.5 -115.5s-77.5 -57 -121.5 -74s-87.667 -29.333 -131 -37
s-87.333 -11.5 -132 -11.5c-92 0 -177 15.167 -255 45.5s-144.167 71.166 -198.5 122.499s-100.666 110.833 -138.999 178.5s-66.5 138.667 -84.5 213s-27 150.166 -27 227.499c0 101.333 17.833 198.5 53.5 291.5s85.667 175.5 150 247.5s145.666 129.5 243.999 172.5
s206.166 64.5 323.499 64.5z" />
    <glyph glyph-name="gdotaccent" unicode="&#x121;" horiz-adv-x="1198" 
d="M486 1352c0 41.333 14.5 76.5 43.5 105.5s63.833 43.5 104.5 43.5c40 0 74.833 -14.667 104.5 -44s44.5 -64.333 44.5 -105c0 -40 -14.833 -74.667 -44.5 -104s-64.5 -44 -104.5 -44c-40.667 0 -75.5 14.667 -104.5 44s-43.5 64 -43.5 104zM551 -535
c-66.667 0 -127.332 7.99902 -181.999 23.999s-100.5 42.667 -137.5 80s-55.5 82.666 -55.5 135.999c0 51.333 16.5 90.166 49.5 116.499s72.5 39.5 118.5 39.5c37.333 0 69.166 -13.167 95.499 -39.5s39.5 -59.833 39.5 -100.5c0 -26 -9 -52.167 -27 -78.5
s-37 -43.166 -57 -50.499c42.667 -14.667 83.667 -22 123 -22c104.667 0 182.667 39.833 234 119.5s77 190.834 77 333.501v178c-21.333 -64 -60.666 -118 -117.999 -162s-122.333 -66 -195 -66c-56.667 0 -108.834 10.333 -156.501 31s-88.334 48.834 -122.001 84.501
s-62.334 77.334 -86.001 125.001s-41.167 98.5 -52.5 152.5s-17 109.333 -17 166c0 72 9.33301 141.5 28 208.5s45.834 127.667 81.501 182s82 97.833 139 130.5s120.833 49 191.5 49c60.667 0 121.667 -19.833 183 -59.5s102.666 -93.5 123.999 -161.5l25 192h334v-119
h-144v-903c0 -62 -5.5 -120.833 -16.5 -176.5s-29 -108.834 -54 -159.501s-56.167 -94.167 -93.5 -130.5s-84.166 -65.333 -140.499 -87s-119.166 -32.5 -188.499 -32.5zM559.002 99.999c59.333 0 110.502 20.666 153.502 61.999s74.333 92.333 94 153
s29.5 126.334 29.5 197.001c0 136 -24.833 246.167 -74.5 330.5s-115.834 126.5 -198.501 126.5c-54.667 0 -102.334 -20.333 -143.001 -61s-70.667 -92 -90 -154s-29 -129.667 -29 -203c0 -57.333 4.5 -111.5 13.5 -162.5s23.167 -98.833 42.5 -143.5s46.333 -80 81 -106
s75 -39 121 -39z" />
    <glyph glyph-name="Gcommaaccent" unicode="&#x122;" horiz-adv-x="1599" 
d="M925 -129c2 -32 -7 -84.834 -27 -158.501s-40.667 -139.167 -62 -196.5l-32 -86l-49 6c2.66699 52 4 114.333 4 187s-0.666992 132.334 -2 179.001l-2 69h170zM855 1536c110.667 0 210.501 -20.498 299.501 -61.498s157.833 -95.667 206.5 -164s73 -143.5 73 -225.5
c0 -41.333 -15.667 -79.166 -47 -113.499s-73 -51.5 -125 -51.5c-48 0 -88 16.167 -120 48.5s-48 68.5 -48 108.5c0 46.667 14.667 85 44 115s57 45 83 45h4c-28.667 39.333 -65.5 71.666 -110.5 96.999s-86.667 42 -125 50s-76.833 12 -115.5 12
c-107.333 0 -201.5 -28.5 -282.5 -85.5s-142.167 -133 -183.5 -228s-62 -201.833 -62 -320.5c0 -79.333 12.667 -156 38 -230s59.833 -139 103.5 -195s97.334 -100.833 161.001 -134.5s131.5 -50.5 203.5 -50.5c51.333 0 100.833 9.66699 148.5 29s87.667 43.833 120 73.5
s58.166 61.5 77.499 95.5s29 66 29 96v140h-283v151h651v-151h-163v-586h-121l-49 211c-22.667 -44.667 -52.5 -83.167 -89.5 -115.5s-77.5 -57 -121.5 -74s-87.667 -29.333 -131 -37s-87.333 -11.5 -132 -11.5c-92 0 -177 15.167 -255 45.5s-144.167 71.166 -198.5 122.499
s-100.666 110.833 -138.999 178.5s-66.5 138.667 -84.5 213s-27 150.166 -27 227.499c0 101.333 17.833 198.5 53.5 291.5s85.667 175.5 150 247.5s145.666 129.5 243.999 172.5s206.166 64.5 323.499 64.5z" />
    <glyph glyph-name="gcommaaccent" unicode="&#x123;" horiz-adv-x="1198" 
d="M551 -535c-66.667 0 -127.332 7.99902 -181.999 23.999s-100.5 42.667 -137.5 80s-55.5 82.666 -55.5 135.999c0 51.333 16.5 90.166 49.5 116.499s72.5 39.5 118.5 39.5c37.333 0 69.166 -13.167 95.499 -39.5s39.5 -59.833 39.5 -100.5c0 -26 -9 -52.167 -27 -78.5
s-37 -43.166 -57 -50.499c42.667 -14.667 83.667 -22 123 -22c104.667 0 182.667 39.833 234 119.5s77 190.834 77 333.501v178c-21.333 -64 -60.666 -118 -117.999 -162s-122.333 -66 -195 -66c-56.667 0 -108.834 10.333 -156.501 31s-88.334 48.834 -122.001 84.501
s-62.334 77.334 -86.001 125.001s-41.167 98.5 -52.5 152.5s-17 109.333 -17 166c0 72 9.33301 141.5 28 208.5s45.834 127.667 81.501 182s82 97.833 139 130.5s120.833 49 191.5 49c60.667 0 121.667 -19.833 183 -59.5s102.666 -93.5 123.999 -161.5l25 192h334v-119
h-144v-903c0 -62 -5.5 -120.833 -16.5 -176.5s-29 -108.834 -54 -159.501s-56.167 -94.167 -93.5 -130.5s-84.166 -65.333 -140.499 -87s-119.166 -32.5 -188.499 -32.5zM559.002 99.999c59.333 0 110.502 20.666 153.502 61.999s74.333 92.333 94 153
s29.5 126.334 29.5 197.001c0 136 -24.833 246.167 -74.5 330.5s-115.834 126.5 -198.501 126.5c-54.667 0 -102.334 -20.333 -143.001 -61s-70.667 -92 -90 -154s-29 -129.667 -29 -203c0 -57.333 4.5 -111.5 13.5 -162.5s23.167 -98.833 42.5 -143.5s46.333 -80 81 -106
s75 -39 121 -39zM651.004 1670c-32 -19.333 -61.498 -44.001 -88.498 -74.001s-40.5 -58 -40.5 -84c0 -11.333 2.66699 -20.666 8 -27.999c26 16 54 24 84 24c34.667 0 65.5 -13.667 92.5 -41s40.5 -58 40.5 -92c0 -37.333 -15.833 -70.5 -47.5 -99.5
s-65.834 -43.5 -102.501 -43.5c-47.333 0 -90.5 18.167 -129.5 54.5s-58.5 87.833 -58.5 154.5c0 51.333 14.667 103.5 44 156.5s74.666 100.5 135.999 142.5c4 1.33301 8 4 12 8z" />
    <glyph glyph-name="Hcircumflex" unicode="&#x124;" horiz-adv-x="1654" 
d="M826 1911c-23.333 -20.667 -53.833 -53.5 -91.5 -98.5l-96.5 -119.5l-39 -51l-99 92l326 351l328 -357l-99 -90c-100.667 135.333 -177 226.333 -229 273zM1622 143v-143h-711v143h232v582h-631v-582h229v-143h-708v143h243v1219h-243v143h708v-143h-229v-510h631v510
h-232v143h711v-143h-244v-1219h244z" />
    <glyph glyph-name="hcircumflex" unicode="&#x125;" horiz-adv-x="1355" 
d="M1126 723l-0.000976562 -610.998h215v-112h-624v112h194v619c0 77.333 -14.667 135 -44 173s-67.666 57 -114.999 57c-34 0 -69.167 -9.5 -105.5 -28.5s-69.5 -44.333 -99.5 -76s-54.667 -70.334 -74 -116.001s-29 -93.167 -29 -142.5v-486h195v-112h-594v112h184v1270
h-196v123h411v-622c25.333 52 58.833 95 100.5 129s83.167 57.5 124.5 70.5s83.333 19.5 126 19.5c28 0 54.5 -2 79.5 -6s53.667 -13.667 86 -29s60 -35.833 83 -61.5s42.5 -62.834 58.5 -111.501s24 -105.667 24 -171zM685.999 1880
c-23.333 -20.667 -53.833 -53.5 -91.5 -98.5l-96.5 -119.5l-39 -51l-99 92l326 351l328 -357l-99 -90c-100.667 135.333 -177 226.333 -229 273z" />
    <glyph glyph-name="Hbar" unicode="&#x126;" horiz-adv-x="1654" 
d="M1143 1048h-631v-196h631v196zM741 0h-708v137h243v911h-103v118h103v196h-243v143h708v-143h-229v-196h631v196h-232v143h711v-143h-244v-196h106v-118h-106v-911h244v-137h-711v137h232v588h-631v-588h229v-137z" />
    <glyph glyph-name="hbar" unicode="&#x127;" horiz-adv-x="1355" 
d="M1126 723l-0.00195312 -605.999h215v-117h-624v117h194v614c0 77.333 -14.667 134.833 -44 172.5s-67.666 56.5 -114.999 56.5c-45.333 0 -91.666 -15.667 -138.999 -47s-87.333 -75.5 -120 -132.5s-49 -117.833 -49 -182.5v-481h195v-117h-594v117h184v1071h-160v98h160
v96h-196v123h411v-219h288v-98h-288v-305c25.333 52 58.833 95 100.5 129s83.167 57.5 124.5 70.5s83.333 19.5 126 19.5c28 0 54.5 -2 79.5 -6s53.667 -13.667 86 -29s60 -35.833 83 -61.5s42.5 -62.834 58.5 -111.501s24 -105.667 24 -171z" />
    <glyph glyph-name="Itilde" unicode="&#x128;" horiz-adv-x="769" 
d="M552 1732c-27.333 0 -81.666 -15.667 -162.999 -47s-141 -47 -179 -47c-61.333 0 -104.666 18.333 -129.999 55s-38 99.334 -38 188.001h88c0 -34 6.33301 -57.833 19 -71.5s35.667 -20.5 69 -20.5c27.333 0 81.666 15.667 162.999 47s141 47 179 47
c61.333 0 104.666 -18.333 129.999 -55s38 -99.334 38 -188.001h-88c0 34 -6.33301 57.833 -19 71.5s-35.667 20.5 -69 20.5zM509 143h230v-143h-709v143h244v1219h-244v143h709v-143h-230v-1219z" />
    <glyph glyph-name="itilde" unicode="&#x129;" horiz-adv-x="671" 
d="M521 1298c-27.333 0 -81.666 -15.667 -162.999 -47s-141 -47 -179 -47c-61.333 0 -104.666 18.333 -129.999 55s-38 99.334 -38 188.001h88c0 -34 6.33301 -57.833 19 -71.5s35.667 -20.5 69 -20.5c27.333 0 81.666 15.667 162.999 47s141 47 179 47
c61.333 0 104.666 -18.333 129.999 -55s38 -99.334 38 -188.001h-88c0 34 -6.33301 57.833 -19 71.5s-35.667 20.5 -69 20.5zM461 1073v-956h196v-117h-604v117h193v844h-195v112h410z" />
    <glyph glyph-name="Imacron" unicode="&#x12a;" horiz-adv-x="769" 
d="M704 1638h-582v138h582v-138zM509 143h230v-143h-709v143h244v1219h-244v143h709v-143h-230v-1219z" />
    <glyph glyph-name="imacron" unicode="&#x12b;" horiz-adv-x="671" 
d="M673 1204h-582v138h582v-138zM461 1073v-956h196v-117h-604v117h193v844h-195v112h410z" />
    <glyph glyph-name="Ibreve" unicode="&#x12c;" horiz-adv-x="769" 
d="M625 1880c-1.33301 -25.333 -7 -51.502 -17 -78.502s-24.167 -53 -42.5 -78s-43.166 -45.5 -74.499 -61.5s-66.333 -24 -105 -24s-73.834 7.83301 -105.501 23.5s-57 36.167 -76 61.5s-33.5 51.833 -43.5 79.5s-15.667 54.834 -17 81.501h129
c0.666992 -38 12 -68.667 34 -92s47.667 -35 77 -35c28 0 53.167 11.333 75.5 34s34.5 52.334 36.5 89.001h129zM509 142.998h230v-143h-709v143h244v1219h-244v143h709v-143h-230v-1219z" />
    <glyph glyph-name="ibreve" unicode="&#x12d;" horiz-adv-x="671" 
d="M595 1446c-1.33301 -25.333 -7 -51.502 -17 -78.502s-24.167 -53 -42.5 -78s-43.166 -45.5 -74.499 -61.5s-66.333 -24 -105 -24s-73.834 7.83301 -105.501 23.5s-57 36.167 -76 61.5s-33.5 51.833 -43.5 79.5s-15.667 54.834 -17 81.501h129
c0.666992 -38 12 -68.667 34 -92s47.667 -35 77 -35c28 0 53.167 11.333 75.5 34s34.5 52.334 36.5 89.001h129zM461 1073v-956h196v-117h-604v117h193v844h-195v112h410z" />
    <glyph glyph-name="Iogonek" unicode="&#x12e;" horiz-adv-x="769" 
d="M173 -173c0 34 9.83301 64.668 29.5 92.001s45.334 48.833 77.001 64.5s65.667 27.667 102 36s72.833 12.5 109.5 12.5v-31c-52.667 -9.33301 -92.167 -25.333 -118.5 -48s-39.5 -47.667 -39.5 -75c0 -30.667 11.167 -56.834 33.5 -78.501s63.166 -36.5 122.499 -44.5
l-27 -139c-85.333 0 -154.833 21.333 -208.5 64s-80.5 91.667 -80.5 147zM509 143.001h230v-143h-709v143h244v1219h-244v143h709v-143h-230v-1219z" />
    <glyph glyph-name="iogonek" unicode="&#x12f;" horiz-adv-x="665" 
d="M147 -172c0 34 9.83301 64.668 29.5 92.001s45.334 48.833 77.001 64.5s65.667 27.667 102 36s72.833 12.5 109.5 12.5v-31c-52.667 -9.33301 -92.167 -25.333 -118.5 -48s-39.5 -47.667 -39.5 -75c0 -30.667 11.167 -56.834 33.5 -78.501s63.166 -36.5 122.499 -44.5
l-27 -139c-85.333 0 -154.833 21.333 -208.5 64s-80.5 91.667 -80.5 147zM188 1409c0 41.333 14.5 76.668 43.5 106.001s63.833 44 104.5 44c40 0 74.833 -14.833 104.5 -44.5s44.5 -64.834 44.5 -105.501c0 -40 -14.833 -74.5 -44.5 -103.5s-64.5 -43.5 -104.5 -43.5
c-40.667 0 -75.5 14.5 -104.5 43.5s-43.5 63.5 -43.5 103.5zM463 1073v-961h196v-112h-604v112h193v849h-195v112h410z" />
    <glyph glyph-name="Idotaccent" unicode="&#x130;" horiz-adv-x="769" 
d="M236 1786c0 41.333 14.5 76.5 43.5 105.5s63.833 43.5 104.5 43.5c40 0 74.833 -14.667 104.5 -44s44.5 -64.333 44.5 -105c0 -40 -14.833 -74.667 -44.5 -104s-64.5 -44 -104.5 -44c-40.667 0 -75.5 14.667 -104.5 44s-43.5 64 -43.5 104zM509 143h230v-143h-709v143
h244v1219h-244v143h709v-143h-230v-1219z" />
    <glyph glyph-name="dotlessi" unicode="&#x131;" horiz-adv-x="671" 
d="M461 1073v-956h196v-117h-604v117h193v844h-195v112h410z" />
    <glyph glyph-name="IJ" unicode="&#x132;" horiz-adv-x="1951" 
d="M1241 -201c-122.667 0 -222.667 31.6689 -300 95.002s-116 139.666 -116 228.999c0 56 16.667 99.667 50 131s73.333 47 120 47c44 0 82.667 -14.5 116 -43.5s50 -67.833 50 -116.5c0 -35.333 -11.667 -68 -35 -98s-48.666 -53.333 -75.999 -70
c12.667 -18 37.834 -32.667 75.501 -44s72.5 -17 104.5 -17c40 0 74.333 6.33301 103 19s51.5 29.667 68.5 51s30.333 49.666 40 84.999s16.167 71.666 19.5 108.999s5 82.333 5 135v1051h-281v143h754v-143h-238v-1024c0 -62.667 -3.83301 -119.167 -11.5 -169.5
s-21.834 -99.166 -42.501 -146.499s-47.834 -86.833 -81.501 -118.5s-78 -57 -133 -76s-118.833 -28.5 -191.5 -28.5zM509 143.002h230v-143h-709v143h244v1219h-244v143h709v-143h-230v-1219z" />
    <glyph glyph-name="ij" unicode="&#x133;" horiz-adv-x="1330" 
d="M825 -471c-98.667 0 -173.833 19.167 -225.5 57.5s-77.5 91.5 -77.5 159.5c0 44 14.5 78.5 43.5 103.5s62.833 37.5 101.5 37.5c32 0 59.5 -9.66699 82.5 -29s34.5 -46.333 34.5 -81c0 -68 -19.333 -110.333 -58 -127c22 -8 46 -12 72 -12c20 0 38.5 3.16699 55.5 9.5
s34.333 17.5 52 33.5s31.5 40.833 41.5 74.5s15 74.834 15 123.501v1082h-244v112h459v-1163c0 -122.667 -32.333 -216.834 -97 -282.501s-149.667 -98.5 -255 -98.5zM892.001 1409c0 41.333 14.5 76.668 43.5 106.001s63.833 44 104.5 44c40 0 74.833 -14.833 104.5 -44.5
s44.5 -64.834 44.5 -105.501c0 -40 -14.833 -74.5 -44.5 -103.5s-64.5 -43.5 -104.5 -43.5c-40.667 0 -75.5 14.5 -104.5 43.5s-43.5 63.5 -43.5 103.5zM188.001 1409c0 41.333 14.5 76.668 43.5 106.001s63.833 44 104.5 44c40 0 74.833 -14.833 104.5 -44.5
s44.5 -64.834 44.5 -105.501c0 -40 -14.833 -74.5 -44.5 -103.5s-64.5 -43.5 -104.5 -43.5c-40.667 0 -75.5 14.5 -104.5 43.5s-43.5 63.5 -43.5 103.5zM463.001 1073v-961h196v-112h-604v112h193v849h-195v112h410z" />
    <glyph glyph-name="Jcircumflex" unicode="&#x134;" horiz-adv-x="1161" 
d="M451 -201c-122.667 0 -222.667 31.6689 -300 95.002s-116 139.666 -116 228.999c0 56 16.667 99.667 50 131s73.333 47 120 47c44 0 82.667 -14.5 116 -43.5s50 -67.833 50 -116.5c0 -35.333 -11.667 -68 -35 -98s-48.666 -53.333 -75.999 -70
c12.667 -18 37.834 -32.667 75.501 -44s72.5 -17 104.5 -17c40 0 74.333 6.33301 103 19s51.5 29.667 68.5 51s30.333 49.666 40 84.999s16.167 71.666 19.5 108.999s5 82.333 5 135v1051h-281v143h754v-143h-238v-1024c0 -62.667 -3.83301 -119.167 -11.5 -169.5
s-21.834 -99.166 -42.501 -146.499s-47.834 -86.833 -81.501 -118.5s-78 -57 -133 -76s-118.833 -28.5 -191.5 -28.5zM771 1911c-23.333 -20.667 -53.833 -53.5 -91.5 -98.5l-96.5 -119.5l-39 -51l-99 92l326 351l328 -357l-99 -90c-100.667 135.333 -177 226.333 -229 273z
" />
    <glyph glyph-name="jcircumflex" unicode="&#x135;" horiz-adv-x="665" 
d="M160 -471c-98.667 0 -173.833 19.166 -225.5 57.499s-77.5 91.5 -77.5 159.5c0 44 14.5 78.5 43.5 103.5s62.833 37.5 101.5 37.5c32 0 59.5 -9.66699 82.5 -29s34.5 -46.333 34.5 -81c0 -68 -19.333 -110.333 -58 -127c22 -8 46 -12 72 -12c20 0 38.5 3.16699 55.5 9.5
s34.333 17.5 52 33.5s31.5 40.833 41.5 74.5s15 74.834 15 123.501v1077h-244v117h459v-1163c0 -121.333 -31.667 -214.833 -95 -280.5s-146.333 -99.167 -249 -100.5h-8zM282.001 1477c-23.333 -20.667 -53.833 -53.5 -91.5 -98.5l-96.5 -119.5l-39 -51l-99 92l326 351
l328 -357l-99 -90c-100.667 135.333 -177 226.333 -229 273z" />
    <glyph glyph-name="Kcommaaccent" unicode="&#x136;" horiz-adv-x="1624" 
d="M908 -102c2 -32 -7 -84.834 -27 -158.501s-40.667 -139.167 -62 -196.5l-32 -86l-49 6c2.66699 52 4 114.333 4 187s-0.666992 132.334 -2 179.001l-2 69h170zM905 -0.000976562v143h223l-444 553l-172 -143v-410h211v-143h-690v143h243v1219h-243v143h690v-143h-211
v-627c6 2 22.167 14.167 48.5 36.5s43.5 37.5 51.5 45.5c18.667 18 70.167 72.333 154.5 163l239.5 259l112 123h-229v143h710v-143h-229l-508 -537l574 -682h176v-143h-707z" />
    <glyph glyph-name="kcommaaccent" unicode="&#x137;" horiz-adv-x="1300" 
d="M751 -122c2 -32 -7 -84.834 -27 -158.501s-40.667 -139.167 -62 -196.5l-32 -86l-49 6c2.66699 52 4 114.333 4 187s-0.666992 132.334 -2 179.001l-2 69h170zM1176 136.999c38.667 0 73.334 7.00098 104.001 21.001l29 -135
c-32.667 -18.667 -61.834 -30.5 -87.501 -35.5s-56.167 -7.5 -91.5 -7.5c-71.333 0 -132.5 18.667 -183.5 56s-97.5 91.666 -139.5 162.999l-201 346l-166 -127v-306h170v-112h-587v112h202v1270h-202v123h417v-934l418 390h-188v112h600v-112h-191l-346 -332
c20 -28 46.333 -68.333 79 -121l86 -135c24.667 -37.333 52.5 -75.5 83.5 -114.5s63 -69 96 -90s65.833 -31.5 98.5 -31.5z" />
    <glyph glyph-name="kgreenlandic" unicode="&#x138;" horiz-adv-x="1308" 
d="M1198 137c39.333 0 74.335 7.00098 105.002 21.001l28 -135c-32.667 -18.667 -61.834 -30.5 -87.501 -35.5s-55.834 -7.5 -90.501 -7.5c-70.667 0 -131 18.5 -181 55.5s-97.667 91.5 -143 163.5l-208 327l-158 -133v-276h170v-117h-588v117h203v833h-203v123h418v-526
l434 409h-205v117h600v-117h-190l-354 -346l66.5 -99l71 -108c19.667 -30 43.5 -62.833 71.5 -98.5s53.667 -64.834 77 -87.501s49.5 -41.667 78.5 -57s57.5 -23 85.5 -23z" />
    <glyph glyph-name="Lacute" unicode="&#x139;" horiz-adv-x="1290" 
d="M1264 0h-1231v143h243v1219h-243v143h708v-143h-229v-1219h565v482h187v-625zM937 1902c-29.333 -30 -89.667 -67 -181 -111s-175.333 -80.333 -252 -109l-114 -44l-29 39c54 46 120.5 99.333 199.5 160l197.5 147l78 57z" />
    <glyph glyph-name="lacute" unicode="&#x13a;" horiz-adv-x="708" 
d="M703 1871c-29.333 -30 -89.667 -67 -181 -111s-175.333 -80.333 -252 -109l-114 -44l-29 39c54 46 120.5 99.333 199.5 160l197.5 147l78 57zM474.999 1505v-1393h215v-112h-653v112h223v1270h-223v123h438z" />
    <glyph glyph-name="Lcommaaccent" unicode="&#x13b;" horiz-adv-x="1290" 
d="M734 -102c2 -32 -7 -84.834 -27 -158.501s-40.667 -139.167 -62 -196.5l-32 -86l-49 6c2.66699 52 4 114.333 4 187s-0.666992 132.334 -2 179.001l-2 69h170zM1264 -0.000976562h-1231v143h243v1219h-243v143h708v-143h-229v-1219h565v482h187v-625z" />
    <glyph glyph-name="lcommaaccent" unicode="&#x13c;" horiz-adv-x="708" 
d="M449 -102c2 -32 -7 -84.834 -27 -158.501s-40.667 -139.167 -62 -196.5l-32 -86l-49 6c2.66699 52 4 114.333 4 187s-0.666992 132.334 -2 179.001l-2 69h170zM475 1505v-1393h215v-112h-653v112h223v1270h-223v123h438z" />
    <glyph glyph-name="Lcaron" unicode="&#x13d;" horiz-adv-x="1290" 
d="M1257 1098c32 19.333 61.498 44.001 88.498 74.001s40.5 58 40.5 84c0 11.333 -2.66699 20.666 -8 27.999c-26 -16 -54 -24 -84 -24c-34.667 0 -65.5 13.667 -92.5 41s-40.5 58 -40.5 92c0 37.333 15.833 70.5 47.5 99.5s65.834 43.5 102.501 43.5
c47.333 0 90.5 -18.167 129.5 -54.5s58.5 -87.833 58.5 -154.5c0 -51.333 -14.667 -103.5 -44 -156.5s-74.666 -100.5 -135.999 -142.5c-4 -1.33301 -8 -4 -12 -8zM1264 0.000976562h-1231v143h243v1219h-243v143h708v-143h-229v-1219h565v482h187v-625z" />
    <glyph glyph-name="lcaron" unicode="&#x13e;" horiz-adv-x="708" 
d="M803 1067c32 19.333 61.498 44.001 88.498 74.001s40.5 58 40.5 84c0 11.333 -2.66699 20.666 -8 27.999c-26 -16 -54 -24 -84 -24c-34.667 0 -65.5 13.667 -92.5 41s-40.5 58 -40.5 92c0 37.333 15.833 70.5 47.5 99.5s65.834 43.5 102.501 43.5
c47.333 0 90.5 -18.167 129.5 -54.5s58.5 -87.833 58.5 -154.5c0 -51.333 -14.667 -103.5 -44 -156.5s-74.666 -100.5 -135.999 -142.5c-4 -1.33301 -8 -4 -12 -8zM474.998 1505v-1393h215v-112h-653v112h223v1270h-223v123h438z" />
    <glyph glyph-name="Ldot" unicode="&#x13f;" horiz-adv-x="1290" 
d="M770 906c0 41.333 14.5 76.5 43.5 105.5s63.833 43.5 104.5 43.5c40 0 74.833 -14.667 104.5 -44s44.5 -64.333 44.5 -105c0 -40 -14.833 -74.667 -44.5 -104s-64.5 -44 -104.5 -44c-40.667 0 -75.5 14.667 -104.5 44s-43.5 64 -43.5 104zM1264 0h-1231v143h243v1219
h-243v143h708v-143h-229v-1219h565v482h187v-625z" />
    <glyph glyph-name="ldot" unicode="&#x140;" horiz-adv-x="1377" 
d="M894 924c0 41.333 14.5 76.5 43.5 105.5s63.833 43.5 104.5 43.5c40 0 74.833 -14.667 104.5 -44s44.5 -64.333 44.5 -105c0 -40 -14.833 -74.667 -44.5 -104s-64.5 -44 -104.5 -44c-40.667 0 -75.5 14.667 -104.5 44s-43.5 64 -43.5 104zM475 1505v-1393h215v-112h-653
v112h223v1270h-223v123h438z" />
    <glyph glyph-name="Lslash" unicode="&#x141;" horiz-adv-x="1290" 
d="M1264 0h-1231v137h243v568l-215 -106v148l215 106v509h-243v143h708v-143h-229v-393l212 104v-148l-212 -104v-684h565v488h187v-625z" />
    <glyph glyph-name="lslash" unicode="&#x142;" horiz-adv-x="708" 
d="M37 0v117h223v621l-199 -89v148l199 89v496h-223v123h438v-523l202 91v-148l-202 -91v-717h215v-117h-653z" />
    <glyph glyph-name="Nacute" unicode="&#x143;" horiz-adv-x="1720" 
d="M694 143v-143h-661v143h241v1219h-241v143h540l711 -1239v1096h-244v143h664v-143h-229v-1362h-267l-743 1292v-1149h229zM1157 1902c-29.333 -30 -89.667 -67 -181 -111s-175.333 -80.333 -252 -109l-114 -44l-29 39c54 46 120.5 99.333 199.5 160l197.5 147l78 57z" />
    <glyph glyph-name="nacute" unicode="&#x144;" horiz-adv-x="1359" 
d="M641 0l-592.001 -0.00195312v112h195v849h-195v112l379 17l25 -218c32.667 74.667 82.834 131.667 150.501 171s136.167 59 205.5 59c20 0 39 -1 57 -3s38.5 -6.5 61.5 -13.5s44 -16 63 -27s38.167 -26.5 57.5 -46.5s35.5 -43.167 48.5 -69.5s23.667 -59.166 32 -98.499
s12.5 -83 12.5 -131v-601h205v-112h-603v112h183v599c0 86.667 -17 150.667 -51 192s-80.667 62 -140 62c-38.667 0 -73.667 -7.16699 -105 -21.5s-57.5 -33.666 -78.5 -57.999s-38.5 -53 -52.5 -86s-24.167 -67.167 -30.5 -102.5s-9.5 -72.333 -9.5 -111v-474h182v-112z
M984.999 1468c-29.333 -30 -89.667 -67 -181 -111s-175.333 -80.333 -252 -109l-114 -44l-29 39c54 46 120.5 99.333 199.5 160l197.5 147l78 57z" />
    <glyph glyph-name="Ncommaaccent" unicode="&#x145;" horiz-adv-x="1720" 
d="M954 -102c2 -32 -7 -84.834 -27 -158.501s-40.667 -139.167 -62 -196.5l-32 -86l-49 6c2.66699 52 4 114.333 4 187s-0.666992 132.334 -2 179.001l-2 69h170zM694 142.999v-143h-661v143h241v1219h-241v143h540l711 -1239v1096h-244v143h664v-143h-229v-1362h-267
l-743 1292v-1149h229z" />
    <glyph glyph-name="ncommaaccent" unicode="&#x146;" horiz-adv-x="1359" 
d="M783 -102c2 -32 -7 -84.834 -27 -158.501s-40.667 -139.167 -62 -196.5l-32 -86l-49 6c2.66699 52 4 114.333 4 187s-0.666992 132.334 -2 179.001l-2 69h170zM641 -0.000976562l-592.001 -0.00195312v112h195v849h-195v112l379 17l25 -218
c32.667 74.667 82.834 131.667 150.501 171s136.167 59 205.5 59c20 0 39 -1 57 -3s38.5 -6.5 61.5 -13.5s44 -16 63 -27s38.167 -26.5 57.5 -46.5s35.5 -43.167 48.5 -69.5s23.667 -59.166 32 -98.499s12.5 -83 12.5 -131v-601h205v-112h-603v112h183v599
c0 86.667 -17 150.667 -51 192s-80.667 62 -140 62c-38.667 0 -73.667 -7.16699 -105 -21.5s-57.5 -33.666 -78.5 -57.999s-38.5 -53 -52.5 -86s-24.167 -67.167 -30.5 -102.5s-9.5 -72.333 -9.5 -111v-474h182v-112z" />
    <glyph glyph-name="Ncaron" unicode="&#x147;" horiz-adv-x="1720" 
d="M870 1812c23.333 20.667 53.833 53.5 91.5 98.5l96.5 118.5l39 52l99 -93l-326 -350l-328 357l99 90c100.667 -135.333 177 -226.333 229 -273zM694 143v-143h-661v143h241v1219h-241v143h540l711 -1239v1096h-244v143h664v-143h-229v-1362h-267l-743 1292v-1149h229z
" />
    <glyph glyph-name="ncaron" unicode="&#x148;" horiz-adv-x="1359" 
d="M698 1378c23.333 20.667 53.833 53.5 91.5 98.5l96.5 118.5l39 52l99 -93l-326 -350l-328 357l99 90c100.667 -135.333 177 -226.333 229 -273zM641 0l-592.001 -0.00195312v112h195v849h-195v112l379 17l25 -218c32.667 74.667 82.834 131.667 150.501 171
s136.167 59 205.5 59c20 0 39 -1 57 -3s38.5 -6.5 61.5 -13.5s44 -16 63 -27s38.167 -26.5 57.5 -46.5s35.5 -43.167 48.5 -69.5s23.667 -59.166 32 -98.499s12.5 -83 12.5 -131v-601h205v-112h-603v112h183v599c0 86.667 -17 150.667 -51 192s-80.667 62 -140 62
c-38.667 0 -73.667 -7.16699 -105 -21.5s-57.5 -33.666 -78.5 -57.999s-38.5 -53 -52.5 -86s-24.167 -67.167 -30.5 -102.5s-9.5 -72.333 -9.5 -111v-474h182v-112z" />
    <glyph glyph-name="Omacron" unicode="&#x14c;" horiz-adv-x="1589" 
d="M1113 1638h-582v138h582v-138zM84 754c0 78 9.16699 154.167 27.5 228.5s46.833 145 85.5 212s85.5 125.833 140.5 176.5s121.833 90.834 200.5 120.501s164.334 44.5 257.001 44.5s178.167 -14.833 256.5 -44.5s145 -69.834 200 -120.501s101.833 -109.5 140.5 -176.5
s67.167 -137.667 85.5 -212s27.5 -150.5 27.5 -228.5s-9.16699 -154.333 -27.5 -229s-46.833 -145.5 -85.5 -212.5s-85.5 -125.5 -140.5 -175.5s-121.667 -89.833 -200 -119.5s-163.833 -44.5 -256.5 -44.5s-178.334 14.833 -257.001 44.5s-145.5 69.5 -200.5 119.5
s-101.833 108.5 -140.5 175.5s-67.167 137.833 -85.5 212.5s-27.5 151 -27.5 229zM340 756c0 -65.333 6.16504 -128.999 18.498 -190.999s31.333 -120.333 57 -175s56.167 -102.667 91.5 -144s77.833 -73.833 127.5 -97.5s103.167 -35.5 160.5 -35.5
c71.333 0 136.333 18.167 195 54.5s106.5 84.666 143.5 144.999s65.5 128.333 85.5 204s30 154.167 30 235.5c0 64 -6.16699 127 -18.5 189s-31.166 120.333 -56.499 175s-55.833 102.834 -91.5 144.501s-78.167 74.667 -127.5 99s-102.666 36.5 -159.999 36.5
c-71.333 0 -136.333 -18.167 -195 -54.5s-106.667 -84.833 -144 -145.5s-66 -128.834 -86 -204.501s-30 -154.167 -30 -235.5z" />
    <glyph glyph-name="omacron" unicode="&#x14d;" 
d="M914 1204h-582v138h582v-138zM596 983c-66 0 -121.5 -20.501 -166.5 -61.501s-77.333 -95.167 -97 -162.5s-29.5 -145.666 -29.5 -234.999c0 -128 26.333 -230.667 79 -308s124.667 -116 216 -116c89.333 0 159.833 38.833 211.5 116.5s77.5 180.167 77.5 307.5
c0 90 -9.66699 168.5 -29 235.5s-51.333 121 -96 162s-100 61.5 -166 61.5zM598 -27.001c-160 0 -287.335 53.1689 -382.002 159.502s-142 241.166 -142 404.499c0 106.667 20.333 202.5 61 287.5s101 152.5 181 202.5s173.333 75 280 75c80 0 153 -14.5 219 -43.5
s120.833 -68.833 164.5 -119.5s77.334 -110.334 101.001 -179.001s35.5 -143 35.5 -223c0 -106 -20.167 -201.333 -60.5 -286s-100.166 -152.167 -179.499 -202.5s-172 -75.5 -278 -75.5z" />
    <glyph glyph-name="Obreve" unicode="&#x14e;" horiz-adv-x="1589" 
d="M1035 1880c-1.33301 -25.333 -7 -51.502 -17 -78.502s-24.167 -53 -42.5 -78s-43.166 -45.5 -74.499 -61.5s-66.333 -24 -105 -24s-73.834 7.83301 -105.501 23.5s-57 36.167 -76 61.5s-33.5 51.833 -43.5 79.5s-15.667 54.834 -17 81.501h129
c0.666992 -38 12 -68.667 34 -92s47.667 -35 77 -35c28 0 53.167 11.333 75.5 34s34.5 52.334 36.5 89.001h129zM84 753.998c0 78 9.16699 154.167 27.5 228.5s46.833 145 85.5 212s85.5 125.833 140.5 176.5s121.833 90.834 200.5 120.501s164.334 44.5 257.001 44.5
s178.167 -14.833 256.5 -44.5s145 -69.834 200 -120.501s101.833 -109.5 140.5 -176.5s67.167 -137.667 85.5 -212s27.5 -150.5 27.5 -228.5s-9.16699 -154.333 -27.5 -229s-46.833 -145.5 -85.5 -212.5s-85.5 -125.5 -140.5 -175.5s-121.667 -89.833 -200 -119.5
s-163.833 -44.5 -256.5 -44.5s-178.334 14.833 -257.001 44.5s-145.5 69.5 -200.5 119.5s-101.833 108.5 -140.5 175.5s-67.167 137.833 -85.5 212.5s-27.5 151 -27.5 229zM340 755.998c0 -65.333 6.16504 -128.999 18.498 -190.999s31.333 -120.333 57 -175
s56.167 -102.667 91.5 -144s77.833 -73.833 127.5 -97.5s103.167 -35.5 160.5 -35.5c71.333 0 136.333 18.167 195 54.5s106.5 84.666 143.5 144.999s65.5 128.333 85.5 204s30 154.167 30 235.5c0 64 -6.16699 127 -18.5 189s-31.166 120.333 -56.499 175
s-55.833 102.834 -91.5 144.501s-78.167 74.667 -127.5 99s-102.666 36.5 -159.999 36.5c-71.333 0 -136.333 -18.167 -195 -54.5s-106.667 -84.833 -144 -145.5s-66 -128.834 -86 -204.501s-30 -154.167 -30 -235.5z" />
    <glyph glyph-name="obreve" unicode="&#x14f;" 
d="M835 1446c-1.33301 -25.333 -7 -51.502 -17 -78.502s-24.167 -53 -42.5 -78s-43.166 -45.5 -74.499 -61.5s-66.333 -24 -105 -24s-73.834 7.83301 -105.501 23.5s-57 36.167 -76 61.5s-33.5 51.833 -43.5 79.5s-15.667 54.834 -17 81.501h129
c0.666992 -38 12 -68.667 34 -92s47.667 -35 77 -35c28 0 53.167 11.333 75.5 34s34.5 52.334 36.5 89.001h129zM596 982.998c-66 0 -121.5 -20.501 -166.5 -61.501s-77.333 -95.167 -97 -162.5s-29.5 -145.666 -29.5 -234.999c0 -128 26.333 -230.667 79 -308
s124.667 -116 216 -116c89.333 0 159.833 38.833 211.5 116.5s77.5 180.167 77.5 307.5c0 90 -9.66699 168.5 -29 235.5s-51.333 121 -96 162s-100 61.5 -166 61.5zM598 -27.0029c-160 0 -287.335 53.1689 -382.002 159.502s-142 241.166 -142 404.499
c0 106.667 20.333 202.5 61 287.5s101 152.5 181 202.5s173.333 75 280 75c80 0 153 -14.5 219 -43.5s120.833 -68.833 164.5 -119.5s77.334 -110.334 101.001 -179.001s35.5 -143 35.5 -223c0 -106 -20.167 -201.333 -60.5 -286s-100.166 -152.167 -179.499 -202.5
s-172 -75.5 -278 -75.5z" />
    <glyph glyph-name="Ohungarumlaut" unicode="&#x150;" horiz-adv-x="1589" 
d="M1030 1943c-29.333 -30 -86.167 -70.5 -170.5 -121.5s-161.5 -94.167 -231.5 -129.5l-104 -54l-29 39c54 46 117.167 102.833 189.5 170.5l176.5 168.5l68 66zM1419 1943c-29.333 -30 -86.168 -70.5 -170.501 -121.5s-161.166 -94.167 -230.499 -129.5l-105 -54l-29 39
c54 46 117.167 102.833 189.5 170.5l176.5 168.5l69 66zM83.9971 754c0 78 9.16699 154.167 27.5 228.5s46.833 145 85.5 212s85.5 125.833 140.5 176.5s121.833 90.834 200.5 120.501s164.334 44.5 257.001 44.5s178.167 -14.833 256.5 -44.5s145 -69.834 200 -120.501
s101.833 -109.5 140.5 -176.5s67.167 -137.667 85.5 -212s27.5 -150.5 27.5 -228.5s-9.16699 -154.333 -27.5 -229s-46.833 -145.5 -85.5 -212.5s-85.5 -125.5 -140.5 -175.5s-121.667 -89.833 -200 -119.5s-163.833 -44.5 -256.5 -44.5s-178.334 14.833 -257.001 44.5
s-145.5 69.5 -200.5 119.5s-101.833 108.5 -140.5 175.5s-67.167 137.833 -85.5 212.5s-27.5 151 -27.5 229zM339.997 756c0 -65.333 6.16504 -128.999 18.498 -190.999s31.333 -120.333 57 -175s56.167 -102.667 91.5 -144s77.833 -73.833 127.5 -97.5
s103.167 -35.5 160.5 -35.5c71.333 0 136.333 18.167 195 54.5s106.5 84.666 143.5 144.999s65.5 128.333 85.5 204s30 154.167 30 235.5c0 64 -6.16699 127 -18.5 189s-31.166 120.333 -56.499 175s-55.833 102.834 -91.5 144.501s-78.167 74.667 -127.5 99
s-102.666 36.5 -159.999 36.5c-71.333 0 -136.333 -18.167 -195 -54.5s-106.667 -84.833 -144 -145.5s-66 -128.834 -86 -204.501s-30 -154.167 -30 -235.5z" />
    <glyph glyph-name="ohungarumlaut" unicode="&#x151;" 
d="M834 1509c-29.333 -30 -86.167 -70.5 -170.5 -121.5s-161.5 -94.167 -231.5 -129.5l-104 -54l-29 39c54 46 117.167 102.833 189.5 170.5l176.5 168.5l68 66zM1223 1509c-29.333 -30 -86.168 -70.5 -170.501 -121.5s-161.166 -94.167 -230.499 -129.5l-105 -54l-29 39
c54 46 117.167 102.833 189.5 170.5l176.5 168.5l69 66zM595.997 983c-66 0 -121.5 -20.501 -166.5 -61.501s-77.333 -95.167 -97 -162.5s-29.5 -145.666 -29.5 -234.999c0 -128 26.333 -230.667 79 -308s124.667 -116 216 -116c89.333 0 159.833 38.833 211.5 116.5
s77.5 180.167 77.5 307.5c0 90 -9.66699 168.5 -29 235.5s-51.333 121 -96 162s-100 61.5 -166 61.5zM597.997 -27.001c-160 0 -287.335 53.1689 -382.002 159.502s-142 241.166 -142 404.499c0 106.667 20.333 202.5 61 287.5s101 152.5 181 202.5s173.333 75 280 75
c80 0 153 -14.5 219 -43.5s120.833 -68.833 164.5 -119.5s77.334 -110.334 101.001 -179.001s35.5 -143 35.5 -223c0 -106 -20.167 -201.333 -60.5 -286s-100.166 -152.167 -179.499 -202.5s-172 -75.5 -278 -75.5z" />
    <glyph glyph-name="OE" unicode="&#x152;" horiz-adv-x="2197" 
d="M2087 571v-571.002h-1319c-92.667 0 -180 16.667 -262 50s-154.5 80.5 -217.5 141.5s-112.833 139 -149.5 234s-55 200.167 -55 315.5c0 118.667 19.333 225.834 58 321.501s90.5 173.334 155.5 233.001s138 105.167 219 136.5s166.167 47 255.5 47h1315v-580h-180v436
h-639v-522h313v225h133v-614h-133v274h-313v-561h639v434h180zM340 742.998c0 -186 41.333 -333.499 124 -442.499s186 -163.5 310 -163.5h268v1198h-237c-64 0 -123.667 -12 -179 -36s-104.5 -59.667 -147.5 -107s-76.833 -109.333 -101.5 -186s-37 -164.334 -37 -263.001z
" />
    </font>
</defs>
</svg>
